<?xml version="1.0" standalone="no"?>
<!DOCTYPE svg PUBLIC "-//W3C//DTD SVG 1.1//EN" "http://www.w3.org/Graphics/SVG/1.1/DTD/svg11.dtd" >
<svg>
<metadata>
Created by FontForge 20090914 at Mon Sep  7 20:31:41 2015
 By www-data
Eurotype
</metadata>
<defs>
<font id="DomkratBold" horiz-adv-x="2048" >
  <font-face 
    font-family="Domkrat"
    font-weight="700"
    font-stretch="normal"
    units-per-em="4096"
    panose-1="2 11 -30 0 0 0 0 0 0 0"
    ascent="3276"
    descent="-820"
    x-height="1843"
    cap-height="2871"
    bbox="-85.999 -1053 4096 3453"
    underline-thickness="84"
    underline-position="-151"
    unicode-range="U+0020-U+2022"
  />
<missing-glyph horiz-adv-x="3072" 
d="M512 0v2560h2048v-2560h-2048zM2494 66v2428h-1916v-2428h1916z" />
    <glyph glyph-name=".notdef" horiz-adv-x="3072" 
d="M512 0v2560h2048v-2560h-2048zM2494 66v2428h-1916v-2428h1916z" />
    <glyph glyph-name="c32" unicode=" " horiz-adv-x="975" 
 />
    <glyph glyph-name="c33" unicode="!" horiz-adv-x="1384" 
d="M565 -82l-93.998 15.999c-2.66699 0 -16.334 7 -41.001 21c-106.667 78.667 -160 163.334 -160 254.001c0 45.333 12.333 93 37 143c75.333 150.667 175 226 299 226c79.333 0 166.666 -37 261.999 -111c57.333 -41.333 86 -86.333 86 -135l-4 -148
c0 -46 -10.667 -78.667 -32 -98c-11.333 -10 -17 -16.667 -17 -20l-24 -70c-4.66699 -20.667 -43 -44 -115 -70c-29.333 -10.667 -62 -16 -98 -16h-21zM500.002 781.999c-32.667 2 -56.499 12.999 -71.499 32.999s-28.167 57 -39.5 111c-16 104.667 -24 291.667 -24 561
c0 262 4 544.667 12 848c6 197.333 15.667 347.333 29 450c4 38 18.667 64 44 78s70.666 21 135.999 21c147.333 0 271.5 -17.167 372.5 -51.5s151.5 -76.166 151.5 -125.499c0 -4.66699 -2.66699 -21 -8 -49c-22 -68 -34.333 -104.667 -37 -110
c-43.333 -166 -92.333 -633 -147 -1401l-9 -111c-2.66699 -46 -4 -102 -4 -168v-32c0 -60.667 -43.667 -91 -131 -91c-8.66699 0 -21 5.66699 -37 17c-14 10.667 -27.667 16 -41 16z" />
    <glyph glyph-name="c34" unicode="&#x22;" horiz-adv-x="1393" 
d="M168 2732h385l-70 -1114h-262zM844 2732h381l-74 -1114h-254z" />
    <glyph glyph-name="c35" unicode="#" horiz-adv-x="3150" 
d="M1470 2920h381l-307 -872h500l311 872h381l-307 -872h582l-119 -344h-586l-180 -504h618l-123 -344h-614l-311 -864h-381l311 864h-504l-315 -864h-381l311 864h-598l123 344h594l180 504h-630l122 344h631zM1417 1704l-180 -508h512l180 508h-512z" />
    <glyph glyph-name="c36" unicode="$" horiz-adv-x="1880" 
d="M803 2449c0 24 0.660156 51 1.99316 81s2 48.333 2 55c0 122.667 5.33301 195 16 217c26 54.667 120.333 82 283 82c62.667 0 113.834 -9.16699 153.501 -27.5s59.5 -42.166 59.5 -71.5c0 -2.66699 -2.66699 -31.334 -8 -86c-2.66699 -10.667 -4 -38 -4 -82v-192v-45
l28 -16c4.66699 -2.66699 10.334 -5.66699 17.001 -9c2 -0.666992 48.333 -18.334 139 -53c94.667 -33.333 164.167 -72 208.5 -116s70.5 -99.667 78.5 -167l24 -176l21 -78c5.33301 -21.333 8 -39 8 -53c0 -40 -9.66699 -76.667 -29 -110
c-18.667 -42.667 -35 -68.667 -49 -78c-34 -24.667 -90 -37 -168 -37c-115.333 0 -208.5 31.5 -279.5 94.5s-111.5 150.167 -121.5 261.5l-17 152c-6.66699 46 -31 69 -73 69c-40 0 -77 -19 -111 -57c-74 -93.333 -111 -193 -111 -299c0 -47.333 11 -89.666 33 -126.999
c22 -42.667 54.333 -83.667 97 -123s122.334 -102 239.001 -188c314 -229.333 471 -450.666 471 -663.999c0 -72.667 -17 -146.334 -51 -221.001s-78.333 -137.334 -133 -188.001c-51.333 -48 -145.666 -111 -282.999 -189l-4 -45l-16 -303
c0 -15.333 -5.66699 -38.666 -17 -69.999c-27.333 -51.333 -56 -77 -86 -77h-8l-90 20l-254 4c-24 0 -47.333 15 -70 45c-16 20.667 -24 46.667 -24 78v12l24 287v12c0 20.667 -5.16699 34 -15.5 40s-35.166 9 -74.499 9l-32 -4c-118 0 -263 83.333 -435 250
c-68 64.667 -102 120.667 -102 168c0 51.333 13.667 115.666 41 192.999c36.667 109.333 87 164 151 164c67.333 0 149.333 -65.667 246 -197c112.667 -147.333 216.667 -221 312 -221c120 0 180 73.667 180 221c0 60 -20.667 120 -62 180
c-53.333 78.667 -148.666 174.334 -285.999 287.001c-104 89.333 -176.333 157.666 -217 204.999c-115.333 127.333 -173 283 -173 467c0 146 45.333 279.667 136 401c42.667 55.333 101.667 111.333 177 168s143.333 96.334 204 119c24.667 8 42.334 17.333 53.001 28z" />
    <glyph glyph-name="c37" unicode="%" horiz-adv-x="3408" 
d="M2114 2208l172 229l53 78c26.667 35.333 110 53 250 53c196.667 0 295 -45 295 -135c0 -22 -19.333 -48 -58 -78c-34.667 -30 -86.334 -86 -155 -168l-328 -409l-221 -308c-120.667 -164 -193 -266.333 -217 -307l-389 -622
c-117.333 -184.667 -191.333 -307.667 -222 -369c-88 -188.667 -156 -283 -204 -283c-3.33301 0 -7.33301 0.833008 -12 2.5s-9 2.5 -13 2.5l-74 12l-168 28c-73.333 10 -110 64.667 -110 164c0 30.667 7 59 21 85s56 90.667 126 194l352 512l156 213zM512 2507
c34 32.667 58.667 49.001 74 49.001c9.33301 0 20 -4 32 -12c100 -41.333 201.333 -62 304 -62h28c8.66699 2.66699 19.667 4 33 4c85.333 0 162.5 -26.167 231.5 -78.5s123.5 -124.833 163.5 -217.5s60 -194.667 60 -306c0 -144 -32.167 -278 -96.5 -402
s-151 -222.5 -260 -295.5s-226.5 -109.5 -352.5 -109.5c-167.333 0 -308.166 63.667 -422.499 191s-171.5 283.666 -171.5 468.999c0 102.667 26.667 221.667 80 357s112.666 234.666 177.999 298zM2347 1339c34 30 60 45.001 78 45.001c10.667 0 21.667 -2.66699 33 -8
c93.333 -40.667 193 -61 299 -61h28h37c84.667 0 161.5 -26 230.5 -78s123 -123.667 162 -215s58.5 -193 58.5 -305c0 -143.333 -32.167 -277.333 -96.5 -402s-151 -223.334 -260 -296.001s-226.5 -109 -352.5 -109c-167.333 0 -308.166 63.333 -422.5 190
c-114.333 126.667 -171.5 283 -171.5 469c0 102.667 26.5 221.667 79.5 357s112.5 235 178.5 299zM733 1393c23.333 0 46.667 13.667 70 41c47.333 49.333 87.833 124.666 121.5 225.999s50.5 202 50.5 302c0 68.667 -13.333 128.834 -40 180.501s-57 77.5 -91 77.5
c-47.333 0 -99.333 -57.333 -156 -172c-60 -117.333 -90 -233.333 -90 -348c0 -78.667 14 -149.5 42 -212.5s59 -94.5 93 -94.5zM2568 225.002c20.667 0 44 12.334 70 37.001c47.333 49.333 87.833 125.666 121.5 228.999s50.5 204.666 50.5 303.999
c0 68 -13.167 128 -39.5 180s-55.5 78 -87.5 78c-50.667 0 -102.667 -57.333 -156 -172c-60 -117.333 -90 -233.666 -90 -348.999c0 -78.667 13.333 -149.5 40 -212.5s57 -94.5 91 -94.5z" />
    <glyph glyph-name="c38" unicode="&#x26;" horiz-adv-x="2445" 
d="M2249 967h16.001c30.667 0 58 -9.66699 82 -29c49.333 -32 74 -73 74 -123c0 -10.667 -1.33301 -17.334 -4 -20.001c-12 -53.333 -53 -110.666 -123 -171.999c-12.667 -12.667 -60.667 -55 -144 -127c-27.333 -24.667 -41 -44 -41 -58c0 -22.667 20.667 -60.667 62 -114
c54 -64 101.667 -130.667 143 -200s62 -119 62 -149c0 -22 -23.333 -38.333 -70 -49c-6 0 -19.667 -4 -41 -12c-69.333 -22.667 -133.333 -37.667 -192 -45c-14 -2.66699 -29 -4 -45 -4c-45.333 0 -87.833 14.333 -127.5 43s-87.5 78.334 -143.5 149.001
c-84 106.667 -148 160 -192 160c-24 0 -65 -17.667 -123 -53c-71.333 -36.667 -115 -58.667 -131 -66c-150.667 -72.667 -256.834 -116.667 -318.501 -132s-163.167 -23 -304.5 -23c-120 0 -214 9.33301 -282 28c-95.333 28.667 -175.833 84.667 -241.5 168
s-98.5 172.333 -98.5 267c0 74 14 152.667 42 236s66.667 162.666 116 237.999s103 135.666 161 180.999l205 160c38 29.333 57 58 57 86c0 16 -8.5 34.333 -25.5 55s-56.167 58.334 -117.5 113.001c-106.667 98 -160 248 -160 450c0 141.333 26 280.833 78 418.5
s123 253.5 213 347.5c106 106.667 246.667 160 422 160c72 0 136 -8.33301 192 -25c86 -25.333 190.167 -70.333 312.5 -135s218.833 -126 289.5 -184c120.667 -98.667 181 -227 181 -385c0 -115.333 -27.333 -238.333 -82 -369c-31.333 -72 -65.333 -130.333 -102 -175
s-95.667 -101 -177 -169c-112 -90.667 -168 -150.667 -168 -180c0 -10.667 5.66699 -23 17 -37c8.66699 -17.333 18 -31 28 -41l185 -221c40 -46.667 70 -70 90 -70h16zM1032 1020c-93.333 -77.333 -175.334 -173.333 -246.001 -288s-106 -210 -106 -286
c0 -40.667 31.333 -61 94 -61c46 0 89.667 9.66699 131 29l221 94c123.333 54.667 185 95.667 185 123l-8 24l-41 54l-152 225c-2 2 -6.66699 8.16699 -14 18.5s-13.666 17.833 -18.999 22.5l-20.5 22c-7 7.33301 -15.167 15 -24.5 23zM1073 1577
c98 66.667 170.332 126.667 216.999 180c40.667 46.667 74.834 104.5 102.501 173.5s41.5 132.833 41.5 191.5c0 88 -23.167 162.5 -69.5 223.5s-102.5 91.5 -168.5 91.5c-65.333 0 -120.5 -39.667 -165.5 -119s-67.5 -176 -67.5 -290c0 -66 10.5 -141.333 31.5 -226
s47.167 -159.667 78.5 -225z" />
    <glyph glyph-name="c39" unicode="'" horiz-adv-x="725" 
d="M172 2732h381l-53 -1114h-279z" />
    <glyph glyph-name="c40" unicode="(" horiz-adv-x="1348" 
d="M532 2613l29.001 176.001c8.66699 57.333 37.334 86 86.001 86c12 0 36.667 -6.66699 74 -20l295 -94c38 -13.333 57 -57 57 -131c0 -84.667 -31.333 -259.667 -94 -525c-66.667 -284.667 -110.334 -570 -131.001 -856c-14 -191.333 -21 -338.666 -21 -441.999
c0 -202 13.667 -385 41 -549c21.333 -129.333 53.166 -273.666 95.499 -432.999s80.166 -278.333 113.499 -357c19.333 -42 29 -75 29 -99c0 -36 -15 -59 -45 -69c-43.333 -18 -130.666 -29 -261.999 -33c-19.333 -2.66699 -45.333 -4 -78 -4c-52.667 0 -90 5.66699 -112 17
s-44.667 35.666 -68 72.999c-82 130.667 -147 324.167 -195 580.5s-72 533.833 -72 832.5c0 189.333 13.667 419.166 41 689.499s59 480.166 95 629.499z" />
    <glyph glyph-name="c41" unicode=")" horiz-adv-x="1376" 
d="M492 -709l-156.002 3.99805c-34.667 6.66699 -62 24.667 -82 54c-8 12 -12 24.333 -12 37c0 22.667 9.33301 58 28 106l66 172c32 85.333 70.333 216.333 115 393c103.333 447.333 155 839.333 155 1176c0 142.667 -11 309.334 -33 500.001
c-22 202.667 -49.5 368.167 -82.5 496.501c-33 128.333 -79.167 243.833 -138.5 346.5c-48.667 88.667 -73 147.667 -73 177c0 38.667 20 64.667 60 78s116.667 20 230 20c86.667 0 138.667 -5.66699 156 -17c46.667 -22.667 97.334 -111.334 152.001 -266.001
c52.667 -148.667 96 -296.5 130 -443.5s59 -297.667 75 -452s24 -317.166 24 -488.499c0 -229.333 -11.5 -446.333 -34.5 -651s-59.167 -407 -108.5 -607c-51.333 -224 -78.666 -346.667 -81.999 -368c-28 -191.333 -74.667 -287 -140 -287z" />
    <glyph glyph-name="c42" unicode="*" 
d="M774 2019c38 26 57 48.002 57 66.002c0 24.667 -46.333 37 -139 37c-52.667 0 -100.334 -5.66699 -143.001 -17c-8.66699 0 -18.667 -0.666992 -30 -2s-17.666 -2 -18.999 -2c-19.333 0 -37.333 4.33301 -54 13c-49.333 27.333 -90.333 68.166 -123 122.5
c-32.667 54.333 -49 110.166 -49 167.5c0 96 52 144 156 144c44 0 98 -16.5 162 -49.5s123.333 -73.833 178 -122.5c52 -52 91.667 -78 119 -78c10.667 0 16 8 16 24v5c-9.33301 72.667 -32.333 143.667 -69 213c-44 96 -66 165.333 -66 208c0 28 8.33301 50 25 66
c34.667 38.667 78.667 72.834 132 102.5c53.333 29.667 96.666 44.5 129.999 44.5c41.333 0 74.833 -13.667 100.5 -41s38.5 -62.666 38.5 -106c0 8 -2.66699 -23.333 -8 -94c-4 -34 -8 -62.667 -12 -86l-46 -230c-5.33301 -26.667 -8 -49.667 -8 -69
c0 -24.667 8.33301 -37 25 -37c38 0 88.333 49 151 147c60 104 120.333 156 181 156c63.333 0 137 -30 221 -90c65.333 -44 98 -92 98 -144c0 -44.667 -39 -88.667 -117 -132s-170 -71.666 -276 -85c-109.333 -16 -164 -39 -164 -69c0 -43.333 56 -91.333 168 -144
c112 -48 168 -101 168 -159c0 -44 -10.167 -92.167 -30.5 -144.5s-47.166 -97.166 -80.499 -134.499c-27.333 -32.667 -57.333 -49 -90 -49c-23.333 0 -50.666 13.667 -81.999 41c-93.333 85.333 -160 191.666 -200 318.999l-25 95c-2.66699 8 -6.66699 17.333 -12 28
c-12.667 16.667 -23.667 25 -33 25c-18.667 0 -36.834 -20.833 -54.501 -62.5s-29.5 -91.834 -35.5 -150.501c-12 -104 -38 -176.5 -78 -217.5s-105.667 -61.5 -197 -61.5c-60 0 -109.667 14.167 -149 42.5s-59 64.833 -59 109.5c0 35.333 23 88.666 69 159.999
c36.667 56.667 96.667 116.667 180 180z" />
    <glyph glyph-name="c43" unicode="+" horiz-adv-x="3412" 
d="M1536 2441h340v-1052h1028v-332h-1028v-1057h-340v1057h-1028v332h1028v1052z" />
    <glyph glyph-name="c44" unicode="," horiz-adv-x="1012" 
d="M463 459l52.9971 48.999l16 4h21c90.667 -4 171.334 -22.167 242.001 -54.5s106 -66.166 106 -101.499c0 -13.333 -2.66699 -25.666 -8 -36.999c-48.667 -128.667 -101.167 -260.167 -157.5 -394.5s-106.666 -247.333 -150.999 -339s-78.166 -152.834 -101.499 -183.501
c-26 -35.333 -51.667 -53 -77 -53h-9l-159 12c-10.667 0 -30 17.667 -58 53l-61 66c-11.333 14 -17 27.667 -17 41c0 17.333 8.33301 43.333 25 78c2.66699 8 23 79 61 213l119 442c22 79.333 38.167 128.5 48.5 147.5s28.5 32.5 54.5 40.5z" />
    <glyph glyph-name="c45" unicode="-" horiz-adv-x="1352" 
d="M1057 881l-78.001 -4.00098c-16 0 -49.667 -1 -101 -3s-121.333 -4 -210 -6c-104.667 0 -203 -2.66699 -295 -8c-2 0 -6.33301 -0.666992 -13 -2s-12 -2 -16 -2c-25.333 0 -43 7 -53 21c-37.333 34 -68.666 99.333 -93.999 196c-14 40.667 -21 76.334 -21 107.001
c0 29.333 1.83301 46.833 5.5 52.5s15.5 8.5 35.5 8.5l168 12h324c194.667 -4 303.667 -9.33301 327 -16l45 -8c6 -2.66699 11.667 -6.66699 17 -12l12 -58l37 -74l12 -122v-17c0 -49.333 -13.667 -74 -41 -74h-4z" />
    <glyph glyph-name="c46" unicode="." horiz-adv-x="1012" 
d="M455 -82l-94.999 16.001c-5.33301 0 -17.333 7 -36 21c-109.333 80.667 -164 165.334 -164 254.001c0 41.333 13.667 89 41 143c70.667 150.667 169 226 295 226c78 0 166.667 -37 266 -111c57.333 -45.333 86 -90.333 86 -135l-4 -148
c-3.33301 -46.667 -14.333 -79.334 -33 -98.001c-13.333 -8.66699 -20 -15.334 -20 -20.001l-21 -70c-8 -20.667 -46.333 -44 -115 -70c-32.667 -10.667 -65.334 -16 -98.001 -16h-25z" />
    <glyph glyph-name="c47" unicode="/" horiz-adv-x="1999" 
d="M1475 1855l-193 -438.002l-188 -438c-120.667 -294.667 -205.334 -520 -254.001 -676c-105.333 -332.667 -182 -528 -230 -586c-37.333 -48.667 -113.666 -73 -228.999 -73c-106.667 0 -173.667 9.33301 -201 28c-12 8.66699 -23.167 26.834 -33.5 54.501
s-15.5 54.5 -15.5 80.5c0 21.333 15 54.333 45 99c38 56.667 105 223.334 201 500.001c19.333 60 53.333 148.667 102 266l144 356l147 356l180 426c144 346 230 548.333 258 607c126.667 256 191 388.333 193 397c26.667 63.333 49.334 101.666 68.001 115
c18.667 13.333 58.667 20 120 20c86 0 155.667 -8 209 -24c40 -14 75.667 -38.667 107 -74c27.333 -28 41 -56.667 41 -86c0 -12 -11 -31.333 -33 -58c-20.667 -20 -45.334 -54 -74.001 -102c-94.667 -155.333 -193 -350.666 -295 -586z" />
    <glyph glyph-name="c48" unicode="0" horiz-adv-x="2163" 
d="M111 1016c-3.33301 13.333 -4.99414 34.998 -4.99414 64.998c0 160 23.667 330 71 510s110.166 344.833 188.499 494.5s161.166 261.5 248.499 335.5c20 18 38 33.333 54 46s25.333 20.334 28 23c40 44 71.667 66 95 66c20 0 55.333 -13.667 106 -41
c65.333 -35.333 163.666 -57.333 294.999 -66c165.333 -14 280 -28.833 344 -44.5s122.667 -43.167 176 -82.5c72 -54 134.167 -130.167 186.5 -228.5s92.333 -213.166 120 -344.499s41.5 -274.666 41.5 -429.999c0 -152 -16.833 -304.667 -50.5 -458
s-81.834 -297.333 -144.501 -432s-135.334 -250.334 -218.001 -347.001c-47.333 -53.333 -112.333 -96.666 -195 -129.999s-169.334 -50 -260.001 -50c-86.667 0 -183.667 12.167 -291 36.5s-203 55.833 -287 94.5c-153.333 68 -273.5 187.167 -360.5 357.5
s-134.5 378.833 -142.5 625.5zM762.006 1016c6 -210.667 30.5029 -382.833 73.5029 -516.5s96.167 -200.5 159.5 -200.5c51.333 0 100.666 29 147.999 87s89.166 138.5 125.499 241.5s64.666 220.5 84.999 352.5s30.5 271 30.5 417c0 133.333 -10.667 253.5 -32 360.5
s-51 190.333 -89 250s-80.667 89.5 -128 89.5c-55.333 0 -118.333 -60 -189 -180c-55.333 -96.667 -99.833 -222.5 -133.5 -377.5s-50.5 -310.5 -50.5 -466.5v-57z" />
    <glyph glyph-name="c49" unicode="1" horiz-adv-x="1352" 
d="M139 1778l-24 64.9961c-2.66699 2.66699 -4 6.66699 -4 12s0.666992 10.333 2 15s2 8 2 10c0.666992 0.666992 2 3.16699 4 7.5s4.66699 8.83301 8 13.5c132 208 268.667 382.667 410 524c35.333 36 57 60.667 65 74c36 35.333 62 53 78 53c1.33301 0 4 -0.666992 8 -2
s6.66699 -2 8 -2l70 -29l258 -29c42 -4 71 -15.667 87 -35s24 -52.666 24 -99.999v-12c-4 -106.667 -8.83301 -254 -14.5 -442s-9.83398 -350.167 -12.501 -486.5s-5 -313.5 -7 -531.5s-3 -382.667 -3 -494c0 -115.333 2.66699 -191.666 8 -228.999l16 -152v-16
c0 -28 -11.667 -51.333 -35 -70s-52.666 -28 -87.999 -28c-19.333 0 -37 2.66699 -53 8l-143 61c-21.333 7.33301 -72 18.333 -152 33c-94 16 -147 32.333 -159 49c-27.333 23.333 -41 101.333 -41 234c0 14.667 0.666992 36.334 2 65.001s2 50.667 2 66
c8 176 12 451.667 12 827c0 106.667 1.33301 176.334 4 209.001c0 15.333 0.666992 37.333 2 66s2 49 2 61c0 57.333 -6.66699 86 -20 86h-4l-62 -29l-139 -45l-21 -8c-5.33301 -2.66699 -13.333 -4 -24 -4c-8 0 -13.667 1.33301 -17 4z" />
    <glyph glyph-name="c50" unicode="2" horiz-adv-x="1921" 
d="M1196 -8l-12 -0.00195312c-267.333 0 -469.333 -8.33301 -606 -25c-19.333 -2.66699 -46.666 -4 -81.999 -4c-60.667 0 -111 14.667 -151 44s-62 68 -66 116l-13 86c0 9.33301 -9.33301 38 -28 86c-22 42.667 -33 76.667 -33 102c0 29.333 10.833 59.833 32.5 91.5
s69.5 85.834 143.5 162.501c214 224.667 361.667 384 443 478s152 186 212 276c57.333 89.333 108 185 152 287c62.667 145.333 94 245 94 299v16l-4 33c-3.33301 22 -13 33 -29 33c-84 0 -181.167 -43.5 -291.5 -130.5s-224.833 -210.167 -343.5 -369.5l-53 -66
c-36 -51.333 -70 -77 -102 -77h-17c-12.667 4 -20.667 9.33301 -24 16l-90 147c-12 17.333 -66.667 54.333 -164 111c-41.333 25.333 -62 50 -62 74c0 8 3 17.333 9 28l28 70c21.333 46 100.666 133.333 237.999 262c283.333 268 499 402 647 402h25l118 -13l193 -28
l106 -86l328 -263c17.333 -13.333 32.333 -47.333 45 -102c10.667 -65.333 16 -110.333 16 -135c0 -60 -12.667 -130.5 -38 -211.5s-58.833 -161 -100.5 -240s-84.167 -142.833 -127.5 -191.5l-479 -533l-86 -114l-45 -66c-8 -16 -12 -29.667 -12 -41
c0 -10.667 9.33301 -16 28 -16h9c100 13.333 196.667 20 290 20c145.333 0 268.333 -16.333 369 -49c112 -31.333 168 -117.333 168 -258v-16c-4 -89.333 -6.66699 -134.666 -8 -135.999c-10 -20.667 -54.333 -38.667 -133 -54s-164 -23 -256 -23l-234 8h-4z" />
    <glyph glyph-name="c51" unicode="3" horiz-adv-x="1724" 
d="M270 381l41 -7.99902c19.333 -5.33301 52.333 -8 99 -8c88.667 0 160.167 5.5 214.5 16.5s104.833 32.167 151.5 63.5s103.334 79.666 170.001 144.999c90 90 135 159.667 135 209c0 52.667 -34.333 97.834 -103 135.501s-153 56.5 -253 56.5
c-58.667 0 -102.834 -3.33301 -132.501 -10s-76.834 -23.667 -141.501 -51c-34 -14 -56 -21 -66 -21c-19.333 0 -41.333 13.667 -66 41c-27.333 28 -47.666 65 -60.999 111c-2.66699 5.33301 -4 10.666 -4 15.999v4l25 86c0 8.66699 -3 17 -9 25
c-16 36.667 -24 80.334 -24 131.001c0 64 5.33301 103.667 16 119c10 12.667 49.667 29 119 49c101.333 28.667 207.666 74.334 318.999 137.001s192 122 242 178c40.667 44.667 76.834 92.167 108.501 142.5s47.5 84.833 47.5 103.5c0 24.667 -31.333 37 -94 37
c-69.333 0 -124 -5.33301 -164 -16c-10.667 -2.66699 -58.667 -20.667 -144 -54l-111 -46.5l-85 -35.5l-78 -45c-16 -8 -29.667 -12 -41 -12c-18.667 0 -33.334 8.33301 -44.001 25s-30 59 -58 127l-66 168c-13.333 35.333 -20 69.333 -20 102c0 16.667 1.33301 27.667 4 33
c8 19.333 25.667 35.666 53 49c52 21.333 131 48.666 237 82l91 28c111.333 36 213.666 54 306.999 54c58.667 0 151.334 -27.333 278.001 -82c151.333 -67.333 258 -126 320 -176c39.333 -29.333 71.666 -71.666 96.999 -127c25.333 -55.333 38 -110 38 -164
c0 -112.667 -37 -220.334 -111 -323.001s-175 -184.667 -303 -246c-71.333 -34 -111 -54.667 -119 -62c-12.667 -4 -24.667 -12.333 -36 -25c-8.66699 -8 -13 -17.333 -13 -28c0 -30.667 58.667 -55.334 176 -74.001c118.667 -20 240.334 -111.333 365.001 -274
c52 -71.333 78 -149.333 78 -234c0 -114.667 -24.667 -217 -74 -307c-46.667 -87.333 -115.667 -170.333 -207 -249s-184.666 -136.334 -279.999 -173.001c-88 -35.333 -196.667 -66.666 -326 -93.999s-231 -41 -305 -41c-142 0 -221.333 46.333 -238 139
c-13.333 69.333 -39.333 121.333 -78 156c-35.333 35.333 -53 64 -53 86c0 54 28.667 86.667 86 98c14 0 29 4 45 12z" />
    <glyph glyph-name="c52" unicode="4" horiz-adv-x="2097" 
d="M1720 1143c4.66699 -4 8.16895 -7.16699 10.502 -9.5s4.5 -4.83301 6.5 -7.5c8 -5.33301 36.667 -8 86 -8c96 -4 147.667 -17.667 155 -41l37 -176l41 -135c0 -0.666992 0.666992 -3.33398 2 -8.00098s2 -9 2 -13c0 -34.667 -8.16699 -57.667 -24.5 -69
s-49.166 -17 -98.499 -17h-28h-21c-62.667 0 -107.334 -3.66699 -134.001 -11s-44.334 -22.5 -53.001 -45.5s-13 -62.833 -13 -119.5c0 -35.333 1.33301 -62.666 4 -81.999c1.33301 -8 10.666 -143 27.999 -405c2.66699 -22 4 -52 4 -90c0 -71.333 -16.333 -107 -49 -107
c-18.667 0 -41.667 1.33301 -69 4l-250 25c-10 0 -53.667 16.333 -131 49c-8.66699 3.33301 -25 13 -49 29c-33.333 21.333 -50 74.666 -50 159.999v49v233v184c0 34.667 -5.66699 57.667 -17 69s-33 17 -65 17h-8l-483 -20h-33c-76.667 0 -123 5.33301 -139 16l-25 21
l-237 102c-31.333 16 -57 36.333 -77 61s-30 49.334 -30 74.001c0 16.667 8.33301 37.334 25 62.001c52 90 102.333 184.333 151 283l222 430c21.333 46 58 121 110 225c82.667 169.333 149.667 289.333 201 359.999c56 77.333 91.667 129.833 107 157.5s26 59.834 32 96.5
c6 31.333 14 50.833 24 58.5s30.667 11.5 62 11.5h25c356 -28.667 610 -75 762 -139c38 -15.333 57 -33.333 57 -54c0 -9.33301 -4 -20 -12 -32c-2.66699 -6 -5.66699 -10.333 -9 -13c-2.66699 -5.33301 -6.66699 -16 -12 -32c-16 -64.667 -28.333 -238.334 -37 -521.001
l-4 -184l-8 -340v-16c0 -13.333 0.666992 -27.666 2 -42.999l2 -23zM791.002 1257l-28.999 -72.999c-8 -16.667 -12 -31.667 -12 -45c0 -12.667 4 -21 12 -25c5.33301 -5.33301 58.666 -8 159.999 -8c92.667 0 150 2.66699 172 8c16 4 26.833 17.667 32.5 41
s12.5 75.333 20.5 156l49 573c2.66699 27.333 4 58.666 4 93.999c0 41.333 -12.333 62 -37 62c-18.667 0 -39 -20.667 -61 -62l-33 -69z" />
    <glyph glyph-name="c53" unicode="5" horiz-adv-x="1769" 
d="M369 -41l-193.003 234.004c-24.667 28.667 -37 60 -37 94c0 39.333 10 71.666 30 96.999s45.667 38 77 38c24.667 0 45 -1.33301 61 -4c16.667 -2.66699 34.334 -4 53.001 -4c52 0 123.167 16.5 213.5 49.5s164.166 69.5 221.499 109.5
c53.333 40 102.166 92.667 146.499 158s66.5 118 66.5 158c0 68 -45.333 128.667 -136 182s-201 84 -331 92l-107 8c-7.33301 0 -14.833 0.833008 -22.5 2.5s-12.5 2.5 -14.5 2.5c-9.33301 0 -27 -8.33301 -53 -25c-34.667 -16.667 -56.334 -25 -65.001 -25
c-21.333 0 -33.666 18 -36.999 54c-7.33301 32.667 -30.666 64 -69.999 94c-44 36.667 -66 73.334 -66 110.001c0 34 26 105 78 213c10.667 22 23.167 49.667 37.5 83l48.5 110c42.667 93.333 74.334 160.333 95.001 201l77 155c11.333 22 17 44 17 66
c0 20 -11 37.667 -33 53c-44 33.333 -66 66 -66 98c0 23.333 11 40 33 50c36.667 18 75 28.667 115 32c170 18.667 433.333 39.334 790 62h54c150 0 233.333 -54.667 250 -164c11.333 -70.667 22 -118.334 32 -143.001l33 -58c8 -12 12 -27 12 -45
c0 -26.667 -8.66699 -49.834 -26 -69.501s-38.666 -30.5 -63.999 -32.5l-491 -37l-54 -8c-57.333 -8 -94.166 -16.333 -110.499 -25s-33.833 -30.334 -52.5 -65.001c-2.66699 -6 -15.167 -28.5 -37.5 -67.5l-89.5 -158.5c-11.333 -17.333 -17 -32.333 -17 -45
c0 -18 24.667 -33 74 -45l78 -16c214 -56 382 -129.667 504 -221c172 -134 258 -270.667 258 -410c0 -90.667 -12.333 -176.667 -37 -258c-35.333 -112.667 -118.166 -227.334 -248.499 -344.001s-267.5 -198.667 -411.5 -246l-413 -139c-44 -10.667 -74 -16 -90 -16
c-18.667 0 -35.334 6.66699 -50.001 20z" />
    <glyph glyph-name="c54" unicode="6" horiz-adv-x="1999" 
d="M1135 1909l-123.001 -233.999l-8 -16c0 -8 8 -12 24 -12h12c33.333 5.33301 55.333 8 66 8c62.667 0 132.334 -8.83301 209.001 -26.5s139.334 -38.834 188.001 -63.501c76 -36.667 145.5 -90.667 208.5 -162s113 -150.5 150 -237.5s55.5 -171.167 55.5 -252.5
c0 -102.667 -23.667 -214.167 -71 -334.5s-113.666 -236.833 -198.999 -349.5c-150.667 -202 -325.667 -303 -525 -303c-119.333 0 -252.166 19.667 -398.499 59s-263.333 88 -351 146s-159.334 151.333 -215.001 280s-83.5 266 -83.5 412c0 91.333 16.333 198 49 320
c34 120.667 81.667 245 143 373c74 142.667 212 369 414 679l270 422c2 2.66699 7.66699 13.667 17 33c5.33301 21.333 13.333 33.666 24 37h41l21 4h98c130.667 0 222 -8.33301 274 -25c39.333 -8.66699 77.666 -31.667 114.999 -69c16.667 -18 25 -34.333 25 -49
c0 -16 -19.333 -34 -58 -54c-30.667 -17.333 -85.334 -92.333 -164.001 -225zM671.999 733.001v-19.999c0 -132.667 19.167 -236.834 57.5 -312.501s91.5 -113.5 159.5 -113.5c64.667 0 119.334 27.333 164.001 82c62 76 111.5 167.167 148.5 273.5s55.5 208.833 55.5 307.5
c0 254 -86 381 -258 381c-98.667 0 -176.834 -53.167 -234.501 -159.5s-88.5 -252.5 -92.5 -438.5z" />
    <glyph glyph-name="c55" unicode="7" horiz-adv-x="1663" 
d="M856 -20c-10.667 -49.333 -39.3311 -73.999 -85.998 -73.999c-58 0 -142.667 13.667 -254 41c-54.667 14 -92.834 37.5 -114.501 70.5s-32.5 84.5 -32.5 154.5c0 148 33.333 338.5 100 571.5s152 456.167 256 669.5c81.333 166.667 141.333 317 180 451v8
c0 7.33301 -6.66699 12.666 -20 15.999h-17c-87.333 14 -189.666 21 -306.999 21c-98 0 -182.667 -5.66699 -254 -17c-60.667 -8 -104.334 -12 -131.001 -12c-50 0 -77.333 19 -82 57l-49 328c-10.667 62 -16 107 -16 135c0 49.333 24.333 74 73 74h17l45 -12
c36 -8.66699 68.667 -13 98 -13c5.33301 0 54.666 3 147.999 9c94 8 208.667 12 344 12c125.333 0 212.666 4 261.999 12c81.333 11.333 137.333 17 168 17c50 0 89.667 -22 119 -66c22 -30 41 -47.667 57 -53l209 -49c4.66699 0 14 -7 28 -21
c9.33301 -8.66699 19 -21 29 -37c8 -8 12 -21.667 12 -41c0 -16.667 -21.667 -75.334 -65 -176c-3.33301 -8 -10.5 -26.5 -21.5 -55.5s-22.833 -58.167 -35.5 -87.5l-127 -328c-49.333 -118 -120.333 -322.667 -213 -614l-148 -451c-10.667 -32.667 -21.167 -63 -31.5 -91
s-16.166 -46.667 -17.499 -56z" />
    <glyph glyph-name="c56" unicode="8" horiz-adv-x="1909" 
d="M1331 1327c101.333 -68 172.33 -118.335 212.997 -151.002c85.333 -73.333 153.833 -162.666 205.5 -267.999s77.5 -208.666 77.5 -309.999c0 -128.667 -37.333 -246.167 -112 -352.5s-178.167 -189.5 -310.5 -249.5s-278.166 -90 -437.499 -90
c-80 0 -175.667 11 -287 33c-204.667 38.667 -356.334 119 -455.001 241c-44 54.667 -79.5 121.5 -106.5 200.5s-40.5 154.167 -40.5 225.5c0 75.333 16.333 161.333 49 258c30.667 82.667 63.334 142.667 98.001 180c28.667 34.667 72 74.667 130 120s109 79.333 153 102
c35.333 21.333 53 39 53 53l-4 4l-8 16c-6.66699 14.667 -17.667 27 -33 37l-90 58c-65.333 41.333 -119.166 105.5 -161.499 192.5s-63.5 174.167 -63.5 261.5c0 72 16.333 152.667 49 242c114.667 297.333 319.334 446 614.001 446c54.667 0 94.334 -2.66699 119.001 -8
c100 -15.333 209.667 -45.166 329 -89.5c119.333 -44.333 205 -86.833 257 -127.5c54.667 -42.667 102.5 -106.5 143.5 -191.5s61.5 -163.167 61.5 -234.5c0 -92.667 -31.667 -189.667 -95 -291c-48.667 -77.333 -95.834 -136.5 -141.501 -177.5
s-114.5 -84.167 -206.5 -129.5zM917.997 978.998c-191.333 -166.667 -286.998 -323.667 -286.998 -471c0 -78 23.667 -143.333 71 -196s105.666 -79 174.999 -79c52 0 103.167 20.167 153.5 60.5s90.5 92.5 120.5 156.5s45 131 45 201c0 61.333 -11.833 115.5 -35.5 162.5
s-65.167 100.833 -124.5 161.5c-22.667 27.333 -44.334 41 -65.001 41c-11.333 0 -22.333 -5.66699 -33 -17zM937.999 1561l33.001 27.998l33 33c54.667 48.667 101 111.5 139 188.5s57 147.833 57 212.5c0 66.667 -13.5 118.834 -40.5 156.501s-65.5 56.5 -115.5 56.5
c-54.667 0 -102.334 -20.333 -143.001 -61c-42.667 -40 -76.5 -87 -101.5 -141s-37.5 -106.667 -37.5 -158c0 -33.333 9.66699 -75.666 29 -126.999c29.333 -67.333 78.333 -130 147 -188z" />
    <glyph glyph-name="c57" unicode="9" horiz-adv-x="1954" 
d="M1303 909c-14 -6 -27.3311 -12 -39.998 -18s-20 -9.33301 -22 -10c-44.667 -24 -79.834 -39.667 -105.501 -47s-60.167 -11 -103.5 -11c-142.667 0 -279.667 40 -411 120s-237 185 -317 315s-120 266.333 -120 409c0 69.333 15.833 150.5 47.5 243.5
s73.5 182.667 125.5 269s109 159.833 171 220.5c64 58 132.333 103 205 135c31.333 14 57.333 21 78 21c5.33301 0 32.666 -4 81.999 -12c64 -16 147.333 -25.667 250 -29c219.333 -6.66699 360 -24.334 422 -53.001c138 -70.667 251 -191.5 339 -362.5
s132 -357.5 132 -559.5c0 -143.333 -19.667 -288.666 -59 -435.999s-93.333 -282 -162 -404c-105.333 -180 -243.333 -373.667 -414 -581c-98 -118.667 -180 -204.667 -246 -258l-82 -66c-20 -16 -33.667 -24 -41 -24c-16.667 0 -27.667 6.66699 -33 20l-20 33
c-22 34.667 -60.333 64.667 -115 90c-66.667 34.667 -112.667 63.5 -138 86.5s-38 48.833 -38 77.5c0 64.667 52 154.667 156 270l274 311c80 92.667 143 174.667 189 246zM811.002 1630l0.00195312 -32.9971c0 -118.667 15.833 -200.834 47.5 -246.501
s88.167 -68.5 169.5 -68.5c71.333 0 141 15 209 45c53.333 23.333 91.166 60.166 113.499 110.499s33.5 124.166 33.5 221.499c0 349.333 -88.667 524 -266 524c-44 0 -88.333 -26.167 -133 -78.5s-82.834 -121.5 -114.501 -207.5s-51.5 -175 -59.5 -267z" />
    <glyph glyph-name="c58" unicode=":" horiz-adv-x="1012" 
d="M455 -82l-94.999 16.001c-5.33301 0 -17.333 7 -36 21c-109.333 80.667 -164 165.334 -164 254.001c0 41.333 13.667 89 41 143c70.667 150.667 169 226 295 226c78 0 166.667 -37 266 -111c57.333 -45.333 86 -90.333 86 -135l-4 -148
c-3.33301 -46.667 -14.333 -79.334 -33 -98.001c-13.333 -8.66699 -20 -15.334 -20 -20.001l-21 -70c-8 -20.667 -46.333 -44 -115 -70c-32.667 -10.667 -65.334 -16 -98.001 -16h-25zM455.001 1229l-94.999 16c-8 0 -20 8.33301 -36 25c-109.333 80.667 -164 164 -164 250
c0 41.333 13.667 89 41 143c70 150 168.333 225 295 225c77.333 0 166 -36.667 266 -110c57.333 -45.333 86 -89 86 -131l-4 -152c-3.33301 -47.333 -14.333 -80 -33 -98c-13.333 -8.66699 -20 -15.667 -20 -21l-21 -69c-8 -20.667 -46.333 -44 -115 -70
c-32.667 -10.667 -65.334 -16 -98.001 -16h-25z" />
    <glyph glyph-name="c59" unicode=";" horiz-adv-x="1012" 
d="M680 508l16.001 4.00098h9h12c44.667 -10 93.667 -34.667 147 -74c44 -34.667 66 -62 66 -82c0 -2 -2.66699 -14.333 -8 -37c-192.667 -506.667 -330.667 -812.334 -414 -917.001c-22.667 -35.333 -47.334 -53 -74.001 -53c-16.667 0 -27.667 4 -33 12l-57 53l-197 66
c-10.667 5.33301 -16 14.666 -16 27.999c0 24.667 8.33301 55 25 91c2.66699 10.667 8.5 32.334 17.5 65.001l39.5 148l119 442c26 98.667 50.667 156 74 172c18 13.333 46.667 24.333 86 33zM479.001 1204l-94.0029 17.001c-4 0 -17.667 6.66699 -41 20
c-106.667 82.667 -160 167.334 -160 254.001c0 38 12.333 84.333 37 139c75.333 150.667 175 226 299 226c82.667 0 170 -35.667 262 -107c57.333 -41.333 86 -86.333 86 -135v-148c-3.33301 -46.667 -15.666 -79.334 -36.999 -98.001
c-10.667 -10.667 -16 -17.334 -16 -20.001l-20 -70c-9.33301 -20.667 -47.666 -44 -114.999 -70c-41.333 -13.333 -74 -20 -98 -20c-3.33301 0 -7.66602 0.666992 -12.999 2s-9.33301 2 -12 2z" />
    <glyph glyph-name="c60" unicode="&#x3c;" horiz-adv-x="3412" 
d="M2884 2351v-369l-1868 -761l1868 -758v-369l-2356 967v323z" />
    <glyph glyph-name="c61" unicode="=" horiz-adv-x="3412" 
d="M508 1802h2396v-336h-2396v336zM508 975h2396v-332h-2396v332z" />
    <glyph glyph-name="c62" unicode="&#x3e;" horiz-adv-x="3412" 
d="M528 2351l2356 -967v-323l-2356 -967v369l1868 758l-1868 761v369z" />
    <glyph glyph-name="c63" unicode="?" horiz-adv-x="1896" 
d="M786 778l-151.002 52.999c-39.333 13.333 -71 34 -95 62s-36 56.667 -36 86c0 88.667 106.333 274.334 319 557.001c116.667 154 199 272 247 354s90 173 126 273c19.333 48.667 29 93.667 29 135c0 68 -30 102 -90 102c-40.667 0 -84.334 -11 -131.001 -33
c-103.333 -44.667 -209.166 -111.834 -317.499 -201.501s-180.166 -169.834 -215.499 -240.501c-24.667 -40.667 -46.334 -61 -65.001 -61c-6 0 -11.667 2.66699 -17 8l-119 131l-209 197c-5.33301 5.33301 -8 16 -8 32v17c0 25.333 13.667 54 41 86
c118 160 286 299.333 504 418c140 76 245 114 315 114c26.667 0 77.334 -17.667 152.001 -53c108.667 -47.333 222 -80 340 -98c121.333 -20 204.833 -46.333 250.5 -79s87.834 -95.334 126.501 -188c32.667 -85.333 49 -164.333 49 -237
c0 -103.333 -37.333 -227.166 -112 -371.499s-178 -292.166 -310 -443.499c-124.667 -136.667 -209 -240.5 -253 -311.5s-66 -137.833 -66 -200.5c0 -14 1.33301 -23.667 4 -29l41 -45c10.667 -14 16 -31.667 16 -53c0 -32.667 -22 -49 -66 -49h-20l-160 20z
M720.998 -86.001l-94 15.999c-6 0 -18.333 7 -37 21c-109.333 80.667 -164 165.334 -164 254.001c0 41.333 13.667 89 41 143c72 147.333 170.333 221 295 221c81.333 0 170 -35.333 266 -106c57.333 -45.333 86 -90.333 86 -135l-4 -148
c-3.33301 -47.333 -14.333 -80 -33 -98c-13.333 -8.66699 -20 -15.667 -20 -21l-21 -69c-8 -20.667 -46 -44 -114 -70c-32.667 -10.667 -65.667 -16 -99 -16h-24z" />
    <glyph glyph-name="c64" unicode="@" horiz-adv-x="4096" 
d="M2347 565c-66.667 -90 -126.669 -155.332 -180.002 -195.999c-120.667 -93.333 -260 -140 -418 -140c-204 0 -365 61.667 -483 185c-101.333 100 -152 263.667 -152 491c0 196 43.333 380 130 552s202.667 309.333 348 412s300 154 464 154
c50.667 0 112.334 -9.33301 185 -28c62.667 -20 116.334 -48.833 161.001 -86.5s94.667 -96.167 150 -175.5l110 213h308l-295 -1172c-8.66699 -35.333 -13 -69.333 -13 -102c0 -106.667 54.667 -160 164 -160c124.667 0 245 47.667 361 143s209.167 220.666 279.5 375.999
s105.5 317 105.5 485s-32.667 322.333 -98 463s-158.333 262 -279 364s-264.667 180.667 -432 236s-351 83 -551 83c-316.667 0 -604.334 -70.333 -863.001 -211s-461.5 -335 -608.5 -583s-220.5 -524 -220.5 -828c0 -204.667 36.333 -391.167 109 -559.5
s176.834 -313 312.501 -434s298.334 -213.667 488.001 -278s398.5 -96.5 626.5 -96.5c104 0 197 5.66699 279 17c170.667 23.333 318.334 58.5 443 105.5c124.667 47 295 131.833 511 254.5l135 -192c-183.333 -126 -355.333 -223 -516 -291
c-262 -109.333 -551.333 -164 -868 -164c-266 0 -512.333 39.667 -739 119s-423 193.333 -589 342s-293.333 324.167 -382 526.5s-133 423.5 -133 663.5c0 348.667 89.167 668.167 267.5 958.5s423 519.166 734 686.499s652.833 251 1025.5 251
c243.333 0 467.666 -34.5 673 -103.5c205.333 -69 383.166 -167.667 533.5 -296c150.333 -128.333 266.666 -280.5 349 -456.5c82.333 -176 123.5 -368.333 123.5 -577c0 -227.333 -52.167 -440.666 -156.5 -639.999s-244.666 -358.333 -421 -477
c-176.333 -118.667 -364.5 -178 -564.5 -178c-145.333 0 -253.333 32.667 -324 98c-49.333 50 -79.333 132 -90 246zM2449 1413c0 101.333 -34.001 186 -102.001 254s-152.667 102 -254 102c-103.333 0 -202 -40.5 -296 -121.5s-169.167 -188.667 -225.5 -323
s-84.5 -276.833 -84.5 -427.5c0 -128 31.5 -229.667 94.5 -305s147.5 -113 253.5 -113c78.667 0 159.334 26 242.001 78c59.333 33.333 114 84 164 152c52 71.333 90 154.333 114 249c62.667 226 94 377.667 94 455z" />
    <glyph glyph-name="c65" unicode="A" horiz-adv-x="2032" 
d="M160 -168l-152.004 15.9961c-8 0 -12 19.333 -12 58c0 5.33301 0.666992 14.333 2 27s2 21.334 2 26.001c27.333 190.667 53.333 342.334 78 455.001l475 2093c29.333 121.333 51.5 201.166 66.5 239.5c15 38.333 37.833 74.5 68.5 108.5
c24.667 24.667 60.334 37 107.001 37c26.667 0 62 -2.66699 106 -8c128 -29.333 238.667 -48.666 332 -57.999c234.667 -20 356 -52.667 364 -98l17 -143l389 -2257l29 -140l16 -127l12 -61v-16c0 -30 -24.333 -45 -73 -45l-218 4l-94 -9l-102 -32
c-2.66699 0 -6.66699 -0.666992 -12 -2s-8.33301 -2 -9 -2c-16.667 0 -31.667 4 -45 12c-21.333 16 -37.166 40.833 -47.499 74.5s-31.166 127.5 -62.499 281.5l-37 193l-33 164c-8 51.333 -32.667 77 -74 77h-20c-148.667 -11.333 -300.334 -42.666 -455.001 -93.999
c-5.33301 -2 -10.166 -4.33301 -14.499 -7s-8.83301 -5.66699 -13.5 -9c-16 -8 -32.5 -43.167 -49.5 -105.5s-45.833 -192.5 -86.5 -390.5c-25.333 -117.333 -39 -180 -41 -188c-25.333 -96 -67.666 -144 -126.999 -144h-16zM1196 1143l40.999 3.99902
c10.667 0 16 13.667 16 41v20l-65 434c-55.333 365.333 -89.666 571.666 -102.999 618.999c0 -0.666992 -2.66699 7.66602 -8 25c-3.33301 13.333 -11.333 20 -24 20c-8.66699 0 -18.334 -5.33301 -29.001 -16c-2 -6 -3.5 -10.667 -4.5 -14s-2.16699 -5.66602 -3.5 -6.99902
c-11.333 -45.333 -70 -362 -176 -950c-9.33301 -53.333 -25.666 -132.666 -48.999 -237.999l81 9z" />
    <glyph glyph-name="c66" unicode="B" horiz-adv-x="2277" 
d="M225 340l8.00098 1970c0 84.667 -2.66699 146 -8 184c0 12 -0.666992 27.667 -2 47s-2 32.333 -2 39c0 49.333 12.333 86.333 37 111c62.667 58.667 234.667 94.334 516 107c25.333 0 58.333 0.666992 99 2s69 2 85 2c27.333 2.66699 68.333 4 123 4
c154 0 267.333 -9 340 -27s139.667 -52.667 201 -104c112.667 -94 203 -201 271 -321s102 -233 102 -339c0 -84.667 -23.833 -164.834 -71.5 -240.501s-111.167 -134.834 -190.5 -177.501c-94.667 -42 -152 -66.333 -172 -73c-48.667 -14 -77.334 -21 -86.001 -21
c-33.333 -4 -50 -13.333 -50 -28c0 -12.667 19.333 -21 58 -25c145.333 -20 264 -65 356 -135c82 -58.667 148.333 -144.5 199 -257.5s76 -230.5 76 -352.5c0 -142 -52 -265 -156 -369c-72.667 -72.667 -168.334 -135.667 -287.001 -189
c-117.333 -48.667 -250.5 -91.5 -399.5 -128.5s-262.833 -55.5 -341.5 -55.5c-20 0 -51.333 2.66699 -94 8c-79.333 0 -121.666 -4 -126.999 -12l-29 -33c-4.66699 -10 -13 -16.667 -25 -20c-12 -8 -20 -12 -24 -12l-29 4c-77.333 4 -133 12.667 -167 26
s-87.667 47 -161 101c-8 5.33301 -17.333 13.333 -28 24c-11.333 11.333 -17 40 -17 86zM831.001 627.002l-0.000976562 -85.999c0 -30 24.667 -45 74 -45c56 0 146.333 23 271 69c84 33.333 152 78.5 204 135.5s78 115.833 78 176.5c0 63.333 -26 124.666 -78 183.999
c-74.667 95.333 -207 143 -397 143c-61.333 0 -102.666 -10 -123.999 -30s-32 -60.333 -32 -121zM860 1683c146 8.66699 272.667 50.832 380 126.499s161 160.5 161 254.5c0 76.667 -30.5 136.834 -91.5 180.501s-145.167 65.5 -252.5 65.5c-74 0 -124.667 -7 -152 -21
s-41 -41 -41 -81v-49l-4 -320v-119v-37z" />
    <glyph glyph-name="c67" unicode="C" horiz-adv-x="1987" 
d="M1286 811l41.0029 176.003c8 37.333 38.5 69.833 91.5 97.5s112.5 41.5 178.5 41.5c94.667 0 167.5 -24 218.5 -72s76.5 -116.667 76.5 -206c0 -183.333 -31.833 -348.333 -95.5 -495s-152.334 -261.334 -266.001 -344.001s-241.5 -124 -383.5 -124
c-9.33301 0 -24.666 0.666992 -45.999 2s-37.333 2 -48 2c-120 16 -242.333 41.5 -367 76.5s-214 69.833 -268 104.5c-43.333 27.333 -85.166 73.666 -125.499 138.999s-73.5 141.666 -99.5 228.999c-49.333 170 -74 373.667 -74 611c0 384 54.667 749.667 164 1097
c50.667 165.333 113 309 187 431s148 203.667 222 245c32 18 80.333 34.167 145 48.5s124.334 21.5 179.001 21.5c5.33301 0 13.666 -0.666992 24.999 -2s19.333 -2 24 -2c12 -2.66699 50.333 -15 115 -37c219.333 -80 358.333 -136 417 -168c32 -26 60.667 -52 86 -78
c40.667 -48.667 73.667 -97.667 99 -147c40.667 -94 61 -219.667 61 -377c0 -111.333 -7.83301 -192.333 -23.5 -243s-45.834 -85 -90.501 -103s-115.667 -27 -213 -27c-33.333 0 -80 2.66699 -140 8c-53.333 7.33301 -96.833 29.5 -130.5 66.5s-51.5 81.833 -53.5 134.5
l-8 233c-8 180.667 -45 271 -111 271c-27.333 0 -52.833 -19 -76.5 -57s-41.834 -90 -54.501 -156l-57 -299c-16.667 -74.667 -33 -212.667 -49 -414c-22 -237.333 -33 -419 -33 -545c0 -284 19 -491.333 57 -622c22 -68.667 60.333 -103 115 -103c28 0 58 11 90 33
c38 28 65.667 53 83 75s32.166 52.333 44.499 91s31.166 111.667 56.499 219z" />
    <glyph glyph-name="c68" unicode="D" horiz-adv-x="2138" 
d="M573 12l-298.999 58c-6.66699 0 -17.334 12 -32.001 36c-2.66699 6 -4 15.667 -4 29c0 11.333 1.33301 22.333 4 33c0 84.667 -1.33301 157 -4 217c-3.33301 22 -5 45.333 -5 70l9 2003c0 13.333 2.66699 44.666 8 94c0 12.667 0.666992 26.334 2 41.001s2 24 2 28
c0 22 -7 55 -21 99c-8 24 -12 40.333 -12 49c0 14.667 5.66699 27 17 37c16.667 16.667 39.667 27.667 69 33c142.667 24 323 36 541 36c226 0 429 -55.333 609 -166s320.167 -265 420.5 -463s150.5 -421 150.5 -669c0 -198.667 -33.833 -401.334 -101.5 -608.001
s-160.667 -392.667 -279 -558s-249.833 -291.333 -394.5 -378l-151 -90c-61.333 -38.667 -102.333 -58 -123 -58c-10 0 -22.333 3 -37 9l-82 36l-217 58zM860.001 2367l-8 -299l-16 -1421l-9 -180v-8c0 -38.667 11 -58 33 -58c37.333 0 108.333 83.333 213 250
c82 135.333 145 280 189 434c57.333 206 86 387.667 86 545c0 150 -16.833 281.333 -50.5 394s-81.834 198.834 -144.501 258.5c-62.667 59.667 -137 89.5 -223 89.5c-27.333 0 -50.666 -1.66699 -69.999 -5z" />
    <glyph glyph-name="c69" unicode="E" horiz-adv-x="1790" 
d="M479 -41l-191.997 89.999c-41.333 18.667 -62 124 -62 316c0 64.667 2.66699 198.334 8 401.001c27.333 748 41 1249 41 1503c0 106.667 -1.33301 181.667 -4 225c-2.66699 30.667 -4 67.667 -4 111c0 54.667 10.833 99.667 32.5 135s49.167 53 82.5 53
c2 0 6.66699 -0.666992 14 -2s13.666 -2 18.999 -2l118 -24c24.667 -5.33301 59 -8 103 -8c42 0 98 4 168 12l532 65h13c34.667 0 70 -21.667 106 -65c79.333 -91.333 119 -206 119 -344c0 -29.333 -5.66699 -51.333 -17 -66
c-2.66699 -5.33301 -9.33398 -10.666 -20.001 -15.999c-14 -10.667 -29 -16 -45 -16c-9.33301 -4 -121.333 -19.333 -336 -46l-205 -24l-53 -8c-4.66699 -82 -8.66699 -139.333 -12 -172c-8.66699 -97.333 -13 -179.333 -13 -246c0 -53.333 2.83301 -85.833 8.5 -97.5
s20.834 -17.5 45.501 -17.5c17.333 0 59.666 4.33301 126.999 13l221 24c54.667 5.33301 88.667 8 102 8c124.667 0 193 -90 205 -270c5.33301 -88 8 -126.333 8 -115c2.66699 -13.333 4 -32.333 4 -57c0 -34.667 -4.33301 -58 -13 -70s-27.334 -20 -56.001 -24l-172 -17
c-18 0 -147.667 -15 -389 -45c-22 0 -57.667 -4 -107 -12v-111l-4 -446c0 -57.333 17.667 -86 53 -86c10.667 0 38 2.66699 82 8c168 30.667 306 49.667 414 57h16c29.333 0 55.333 -9.33301 78 -28c38 -26.667 69.333 -58.167 94 -94.5s37 -69.166 37 -98.499
c0 -16 -1.33301 -33.667 -4 -53c-2.66699 -16.667 -4 -45.334 -4 -86.001c0 -44 1.33301 -71.333 4 -82c5.33301 -26.667 8 -44.334 8 -53.001c0 -14 -12.333 -27.667 -37 -41l-278 -33l-344 -49l-135 -12c-153.333 -16.667 -241 -25 -263 -25c-16.667 0 -31.667 4 -45 12z
" />
    <glyph glyph-name="c70" unicode="F" horiz-adv-x="1679" 
d="M254 356l-3.99805 2110c0 7.33301 -4 27.666 -12 61c-8.66699 28 -13 55.333 -13 82c0 48.667 15 89.667 45 123l21 25c16 16 52.667 24 110 24c35.333 0 77.666 -4 126.999 -12c106.667 0 221.334 5.33301 344.001 16c82.667 5.33301 201.667 8 357 8
c85.333 0 144.666 -7 177.999 -21s69.666 -47.667 108.999 -101c32.667 -44.667 54.334 -82.834 65.001 -114.5c10.667 -31.667 16 -72.834 16 -123.501c0 -73.333 -6.5 -120.333 -19.5 -141s-43.167 -31 -90.5 -31h-41c-346 0 -534.333 -8.33301 -565 -25
c-14 -3.33301 -21 -17 -21 -41v-98l8 -491v-54h33h193l168 9c50 0 100.833 -14.167 152.5 -42.5s85.5 -60.833 101.5 -97.5c10.667 -21.333 16 -63.666 16 -126.999c0 -118.667 -17.667 -202 -53 -250c-24 -26.667 -89.667 -40 -197 -40h-221h-107
c-40.667 0 -61 -20.667 -61 -62l4 -102l12 -688l4 -62v-12c0 -77.333 -13.667 -130.833 -41 -160.5s-76.333 -44.5 -147 -44.5c-30.667 0 -63.334 7 -98.001 21l-213 86l-86 4c-54.667 4 -82 65.333 -82 184v20z" />
    <glyph glyph-name="c71" unicode="G" horiz-adv-x="2183" 
d="M1257 1249l413.996 65.999c5.33301 0 32 1.83301 80 5.5s85.667 5.83398 113 6.50098h16c22.667 0 55.334 -15 98.001 -45c68.667 -54 111 -101.667 127 -143c8.66699 -16.667 13 -45.334 13 -86.001c0 -76.667 -14.333 -169 -43 -277s-66 -213.667 -112 -317
s-97 -193.666 -153 -270.999c-81.333 -110 -163.166 -187.333 -245.499 -232s-184.833 -67 -307.5 -67c-98.667 0 -220 23.333 -364 70c-74 26.667 -121.667 41.667 -143 45l-185 33c-41.333 10 -98.666 70 -171.999 180c-95.333 148.667 -164.833 300.334 -208.5 455.001
s-65.5 325.334 -65.5 512.001c0 134 11.667 268.667 35 404s56.333 265 99 389s94.834 241.167 156.501 351.5s129.834 207.833 204.501 292.5c59.333 69.333 126.166 128.333 200.499 177s133.166 73 176.499 73c24.667 0 49.334 -1.33301 74.001 -4l201 -20
c62 -8 158.667 -36.667 290 -86c131.333 -52.667 238 -132 320 -238c43.333 -57.333 73.333 -114.833 90 -172.5s25 -133.834 25 -228.5c0 -193.333 -18.833 -331.166 -56.5 -413.499s-100.834 -123.5 -189.501 -123.5c-21.333 0 -48.666 2.66699 -81.999 8
c-60.667 14 -105.667 21 -135 21c-12 0 -27 -0.666992 -45 -2s-30.333 -2 -37 -2c-26 0 -45 8 -57 24c-19.333 23.333 -45.333 80.666 -78 171.999c-14 34 -21 76.333 -21 127c0 27.333 1.33301 48 4 62l41 192c2.66699 5.33301 4 13.666 4 24.999
c0 147.333 -25.667 221 -77 221c-30.667 0 -74.667 -34 -132 -102c-229.333 -275.333 -344 -686.333 -344 -1233c0 -159.333 9.66699 -308.833 29 -448.5s42.666 -234.5 69.999 -284.5c40.667 -68.667 93.667 -103 159 -103c34.667 0 72.334 14 113.001 42
s74 63.333 100 106c104 169.333 156 279.666 156 330.999c0 30 -21.667 45 -65 45h-111c-61.333 0 -121.333 12.333 -180 37c-53.333 22.667 -82 44.667 -86 66l-33 135l-41 98v17c0 8 1.33301 13.333 4 16c20.667 35.333 59 56 115 62z" />
    <glyph glyph-name="c72" unicode="H" horiz-adv-x="2216" 
d="M1348 1741c5.33301 43.333 8 91 8 143l4 598v422c0 48 11.167 82.5 33.5 103.5s60.166 31.5 113.499 31.5c11.333 0 25 -2.66699 41 -8l140 -33l249 -49c32.667 -3.33301 50.667 -45.666 54 -127l8 -205v-57l-17 -2003l-12 -258v-86c-2.66699 -19.333 -4 -38.333 -4 -57
v-13c0 -68.667 -9.66699 -111.667 -29 -129s-67 -26 -143 -26h-74l-82 8l-77 8c-51.333 6 -86 13.333 -104 22s-34 24.667 -48 48c0 -2.66699 -9.66699 35.333 -29 114c-5.33301 33.333 -8 55.333 -8 66l-8 786c0 82 -2.66699 132.667 -8 152s-20.333 29 -45 29
c-52 0 -199.667 -23.333 -443 -70v-197l-16 -884v-54v-12c0 -43.333 -26 -65 -78 -65c-22 0 -39.667 1.33301 -53 4c-94 16 -177.333 24 -250 24c-104 3.33301 -169.667 14.333 -197 33c-16 10 -27 30.833 -33 62.5s-10 98.167 -12 199.5l-4 107v200l45 1909
c2 92.667 7.66699 157.5 17 194.5s28.333 71.833 57 104.5l8 12c6 6 56.667 9 152 9c13.333 0 28.333 1.33301 45 4h33c128.667 0 214.667 -19.333 258 -58c32.667 -37.333 49 -93.333 49 -168l-8 -774l4 -69c0 -30 13.667 -45 41 -45c36.667 0 177.334 17.667 422.001 53z
" />
    <glyph glyph-name="c73" unicode="I" horiz-adv-x="1139" 
d="M647 -66l-229.001 37.001c-30 4 -68.333 27.333 -115 70c-8 5.33301 -17.667 13.666 -29 24.999c-12 20 -20 56.667 -24 110l8 250l12 1991v237c0 67.333 5.16699 115.5 15.5 144.5s30.333 48.333 60 58s76.834 14.5 141.501 14.5c273.333 0 410 -57.333 410 -172
c0 -35.333 -1.33301 -62.666 -4 -82c-8 -52.667 -12 -181 -12 -385l8 -1544v-606v-94c0 -66 -34.333 -99 -103 -99h-16z" />
    <glyph glyph-name="c74" unicode="J" horiz-adv-x="1716" 
d="M1487 1036l-0.00390625 -102.001c-4 -180.667 -8 -318.667 -12 -414c-9.33301 -143.333 -43.666 -262 -102.999 -356c-56.667 -98 -133.5 -168.333 -230.5 -211s-226.167 -64 -387.5 -64s-298.666 26.167 -411.999 78.5s-198.666 129.5 -255.999 231.5
s-86 225.333 -86 370c0 88 19 155 57 201c21.333 24.667 74.666 37 159.999 37c98.667 0 184.667 -12.333 258 -37c36.667 -8.66699 69.334 -32 98.001 -70c25.333 -28 42.666 -58.167 51.999 -90.5s18 -88.166 26 -167.499c11.333 -86 22.833 -144.333 34.5 -175
s28.834 -46 51.501 -46c30.667 0 55.334 16.333 74.001 49c24 40 41.667 90.5 53 151.5s19 152.167 23 273.5s6 317 6 587c0 461.333 -2.66699 749.333 -8 864c-11.333 142.667 -17 257.334 -17 344c0 136.667 13.667 228.334 41 275c19.333 30 52.333 45 99 45
c208 0 345.667 -23.333 413 -70c28.667 -18 47 -40.5 55 -67.5s13 -79.5 15 -157.5l8 -238z" />
    <glyph glyph-name="c75" unicode="K" horiz-adv-x="2122" 
d="M852 1573l283.004 504l241 377c71.333 108 123.833 184 157.5 228s62 72.167 85 84.5s54.167 18.5 93.5 18.5c118.667 0 221 -34 307 -102c44 -34.667 66 -64.667 66 -90c0 -27.333 -46.333 -102.666 -139 -226c-8 -10.667 -127 -184 -357 -520
c-56.667 -84.667 -96.334 -140.667 -119.001 -168c-51.333 -74.667 -77 -126.334 -77 -155.001c0 -24.667 6.5 -50.167 19.5 -76.5s48.833 -85.5 107.5 -177.5l168 -271c56 -88.667 128.333 -214 217 -376c84 -146 144 -256.667 180 -332
c24.667 -55.333 37 -97.666 37 -126.999c0 -39.333 -14.667 -76 -44 -110s-64 -56 -104 -66l-90 -25l-106 -33c-6 -2.66699 -14.333 -4 -25 -4c-81.333 0 -178.333 91.667 -291 275l-135 225c-2.66699 5.33301 -18.834 35 -48.501 89l-102.5 194
c-68 121.333 -107.667 191 -119 209l-139 245l-70 127l-4 -155l-8 -291c-4.66699 -72.667 -9 -281.667 -13 -627v-94c-2 -70 -11.333 -117.5 -28 -142.5s-48.334 -37.5 -95.001 -37.5c-52 0 -105 10.667 -159 32c-80.667 30 -125.667 45 -135 45
c-60.667 14 -106 23.667 -136 29c-32.667 7.33301 -49 34.666 -49 81.999v8c0 -3.33301 0.666992 18.334 2 65.001s2 94.667 2 144l4 242l9 1614c0 16.667 2.66699 68.334 8 155c5.33301 122 14.666 245 27.999 369c4.66699 43.333 37.667 65 99 65
c40.667 0 81.667 -4 123 -12c58 -14 120.667 -25 188 -33c72 -10 118 -26.333 138 -49s30 -69 30 -139v-8v-127l-4 -193l-8 -426l4 -135z" />
    <glyph glyph-name="c76" unicode="L" horiz-adv-x="1597" 
d="M377 -29c-9.33301 3.33301 -31.3311 19.6689 -65.998 49.002c-22.667 19.333 -41.667 41.333 -57 66c-16.667 20.667 -25 69.667 -25 147l-4 209l25 2007c0 41.333 -1.33301 86.666 -4 136c-2.66699 35.333 -4 83 -4 143c0 45.333 9 75.166 27 89.499
s56.667 21.5 116 21.5h233c118 0 194.667 -26 230 -78c10 -16 21 -49 33 -99c8 -24 12 -51.333 12 -82l-37 -1810v-61c-2.66699 -16.667 -4 -37.334 -4 -62.001s5.66699 -40.334 17 -47.001s35.666 -10 72.999 -10h33l180 12c22 2.66699 56 4 102 4
c77.333 0 133.333 -5 168 -15s62 -29.667 82 -59c24 -30.667 45 -77.834 63 -141.501s27 -124.167 27 -181.5c0 -51.333 -10.333 -85.166 -31 -101.499s-67.667 -27.5 -141 -33.5c-180 -21.333 -346.333 -48.666 -499 -81.999c-110.667 -22 -195.334 -44 -254.001 -66
c-22 -10.667 -41.333 -16 -58 -16c-8 0 -17.333 1.33301 -28 4z" />
    <glyph glyph-name="c77" unicode="M" horiz-adv-x="3052" 
d="M1495 922c26 148 46.3301 254.338 60.9971 319.005c0.666992 2 4.83398 20.167 12.501 54.5s18.834 79.166 33.501 134.499c46 196 103.333 481.333 172 856c30.667 162 52.334 268.333 65.001 319c4.66699 17.333 8.66699 34.666 12 52c3.33301 17.333 6.33301 30 9 38
c13.333 76 25.5 127.667 36.5 155s28 45.166 51 53.5c23 8.33301 63.167 12.5 120.5 12.5c8.66699 0 22 -0.666992 40 -2s30.667 -2 38 -2l90 -4l250 -82l213 -20c31.333 -2 57.666 -15.333 79 -40c21.333 -24.667 32 -52.334 32 -83v-12c-2.66699 -24.667 -4 -44 -4 -58
l16 -2314c0 -30 -1.33301 -61.333 -4 -94c-1.33301 -13.333 -2.66602 -37.833 -4 -73.5c-1.33301 -35.667 -2.66602 -61.834 -4 -78.501c0 -40.667 -4.16699 -67.834 -12.5 -81.501s-26.166 -20.5 -53.5 -20.5c-8.66699 0 -29 2.66699 -61 8
c-10 1.33301 -27 2.66602 -51 3.99902s-42.667 2.66602 -56 3.99902c-246.667 7.33301 -376.334 59.333 -389.001 156l4 119l4 94l41 1421l5 156l16 254l4 57c-22 -13.333 -34.333 -23 -37 -29l-78 -311l-106 -430l-246 -1122c-14.667 -71.333 -66.667 -107 -156 -107
c-38 0 -74.667 7 -110 21l-66 28l-209 54c-24 8 -40.333 18.667 -49 32c-7.33301 16 -16.666 57 -27.999 123l-238 1069l-45 230l-41 196l-8 54l-29 -4v-66v-266v-422l25 -1077l8 -136v-20c0 -76.667 -20.667 -115 -62 -115c-5.33301 0 -9.33301 1.33301 -12 4l-98 29
l-209 4c-99.333 4 -171.666 47.667 -216.999 131l-17 29l-12 258l-4 315l37 1868c0 13.333 2.66699 42 8 86c0 22 2.66699 35.667 8 41c16 19.333 59.667 29 131 29c38 0 71 -4.33301 99 -13l65 -16c9.33301 0 29.333 -2 60 -6s55.667 -6 75 -6c49.333 0 89 1.33301 119 4
c24.667 2.66699 63 4 115 4c115.333 0 193.666 -13 234.999 -39s68 -80 80 -162l107 -622l78 -471z" />
    <glyph glyph-name="c78" unicode="N" horiz-adv-x="2454" 
d="M250 2404l0.00195312 201.006c4 101.333 28.667 152 74 152c5.33301 0 13.333 -0.666992 24 -2s19 -2 25 -2l364 -50c137.333 -16 216.666 -29.667 237.999 -41c12.667 -4 30.334 -20.333 53.001 -49c47.333 -75.333 84.333 -153 111 -233l413 -1233l95 -287
c4 -12 13.333 -43.167 28 -93.5l37 -127.5l12 4l-12 164l-16 467l-58 1278v164c0 111.333 9.66699 176.666 29 196c3.33301 3.33301 14.333 7.66602 33 12.999c32 10.667 58 16 78 16c4 0 9 -0.666992 15 -2s10.333 -2 13 -2l172 -21c110 -14 182.333 -26.333 217 -37
c24.667 -9.33301 37 -31 37 -65v-61l4 -336l-16 -1643l4 -676c0 -46 -10.167 -78.667 -30.5 -98s-55.166 -29 -104.499 -29c-44 0 -83.667 4.33301 -119 13c-63.333 13.333 -105.666 20 -126.999 20l-106 -8c-11.333 -2.66699 -30.666 -4 -57.999 -4
c-104.667 0 -181.334 20.167 -230.001 60.5s-94.667 121.166 -138 242.499l-447 1290l-69 213l-33 98l-17 5c6 -84 9 -134.667 9 -152c21.333 -278.667 33.666 -433 36.999 -463l49 -1065l12 -155v-17c0 -31.333 -5.33301 -60 -16 -86
c-14.667 -36.667 -27 -58.334 -37 -65.001c-10 -10 -36 -19.667 -78 -29c-32.667 -8 -64 -12 -94 -12c-44.667 0 -105 16.333 -181 49c-14.667 7.33301 -31.334 14.666 -50.001 21.999s-32 12.333 -40 15c6 0 -13 2.66699 -57 8c-20.667 4 -34.334 9.33301 -41.001 16
c-14.667 11.333 -23.834 36.666 -27.501 75.999s-5.5 124.666 -5.5 255.999v98z" />
    <glyph glyph-name="c79" unicode="O" horiz-adv-x="2302" 
d="M1548 2740c-2 0 13.001 -2.66699 45.001 -8c104 -14.667 202.667 -83.834 296 -207.501s167.666 -281.167 222.999 -472.5s83 -390.666 83 -597.999c0 -514.667 -146 -948.667 -438 -1302c-146 -178 -294.667 -267 -446 -267c-52 0 -93 1.33301 -123 4
c-172.667 13.333 -305 36.5 -397 69.5s-178.333 89.167 -259 168.5c-275.333 271.333 -413 637.333 -413 1098c0 200 21 406.833 63 620.5s100 406.834 174 579.5c64.667 136.667 142.667 248.667 234 336c83.333 76 213 114 389 114c174 0 298.333 -16.333 373 -49z
M1081 344c40.667 0 85.668 25.332 135.001 75.999s90.333 114 123 190c120.667 270.667 181 563 181 877c0 268.667 -49.333 518.334 -148 749.001c-50.667 120.667 -105.334 181 -164.001 181c-41.333 0 -89 -34.667 -143 -104s-100.333 -156.333 -139 -261
c-104 -280.667 -156 -581 -156 -901c0 -134 15 -263.167 45 -387.5s69.333 -225.333 118 -303s98 -116.5 148 -116.5z" />
    <glyph glyph-name="c80" unicode="P" horiz-adv-x="2023" 
d="M881 926l3.99805 -85.999l24 -840c0 -30.667 -9.33301 -59.334 -28 -86.001s-40.667 -43 -66 -49c-10.667 -2.66699 -42 -4 -94 -4c-175.333 0 -314.666 23 -417.999 69c-34.667 16.667 -57 37.167 -67 61.5s-15 69.5 -15 135.5c0 44 1.33301 76.667 4 98
c8.66699 66 13 133 13 201v4l-13 1962v225v9c0 78.667 12.333 130.334 37 155c36.667 41.333 128.334 62 275.001 62c52 0 99.667 -4.33301 143 -13c78 -13.333 116.333 -20 115 -20h28c38.667 0 70.334 1.33301 95.001 4c116.667 10.667 198.334 16 245.001 16
c158.667 0 292.667 -39.333 402 -118c81.333 -61.333 153.666 -131.166 216.999 -209.5c63.333 -78.333 112.5 -158.166 147.5 -239.499s52.5 -158.333 52.5 -231c0 -120 -28.333 -253.333 -85 -400s-130.667 -278.334 -222 -395.001
c-58.667 -76.667 -116 -132.667 -172 -168c-102 -64 -242.667 -111.667 -422 -143c-24.667 -5.33301 -57.334 -8 -98.001 -8c-35.333 0 -69.333 2.66699 -102 8zM880.998 1495c0 -74 10.668 -111.001 32.001 -111.001c26 0 61.833 14.833 107.5 44.5
s85.167 64.167 118.5 103.5c46.667 52.667 85.667 120 117 202s47 159.333 47 232c0 108.667 -24.833 193.834 -74.5 255.501s-117.834 92.5 -204.501 92.5c-57.333 0 -94.833 -4.16699 -112.5 -12.5s-26.5 -25.833 -26.5 -52.5v-13l-4 -69v-672z" />
    <glyph glyph-name="c81" unicode="Q" horiz-adv-x="2343" 
d="M1450 -66c-70.667 -24 -148.333 -36.001 -233 -36.001c-311.333 0 -550.333 83 -717 249c-81.333 81.333 -150.5 178.666 -207.5 291.999s-100.167 239.833 -129.5 379.5s-44 287.5 -44 443.5c0 193.333 23.5 400.833 70.5 622.5s108.167 416.834 183.5 585.501
c60.667 130 133.167 229.333 217.5 298s175.5 103 273.5 103c35.333 0 82 -9.33301 140 -28c84.667 -32 151 -54 199 -66s107 -21.667 177 -29l209 -16c104 -10 202.333 -76.833 295 -200.5s167 -283.667 223 -480s84 -399.5 84 -609.5
c0 -247.333 -35.333 -490.333 -106 -729c-44.667 -148 -115.667 -306.333 -213 -475c46 -70.667 91 -126.667 135 -168c81.333 -77.333 127.666 -124 139 -140l54 -73c11.333 -16 27.666 -32.667 48.999 -50c43.333 -29.333 65 -59.333 65 -90
c0 -19.333 -5.33301 -38.333 -16 -57c-30 -54.667 -68.333 -82 -115 -82l-143 8l-217 8c-22 0 -46.667 11 -74 33c-27.333 20.667 -99.666 94.334 -216.999 221.001zM1143 306.999l-25.001 45.002l-86 127c-10.667 15.333 -16 33 -16 53c0 11.333 12.333 36 37 74
c29.333 44.667 47.833 70.834 55.5 78.501s20.5 11.5 38.5 11.5c36 0 90.667 -20.333 164 -61c5.33301 -2 12.333 -5.66699 21 -11s19.334 -11.333 32.001 -18c46 111.333 76.833 199.666 92.5 264.999s31.167 167 46.5 305c14 121.333 21 257.666 21 408.999
c0 161.333 -6.5 288 -19.5 380s-36.5 175.667 -70.5 251c-35.333 78.667 -74 142.667 -116 192s-78.667 74 -110 74c-74 0 -146 -65.167 -216 -195.5s-126.5 -300.833 -169.5 -511.5s-64.5 -428.334 -64.5 -653.001c0 -174.667 11.167 -318 33.5 -430
s62.833 -224 121.5 -336c36.667 -68 71 -102 103 -102s74.333 17.667 127 53z" />
    <glyph glyph-name="c82" unicode="R" horiz-adv-x="2273" 
d="M840 1085l0.00195312 -23.999l-4 -78c0 -224 1.33301 -351 4 -381l16 -401v-45c0 -156 -24.667 -234 -74 -234c-22 0 -50.667 7 -86 21c-42 12 -74.667 20 -98 24c-52.667 7.33301 -136 14.333 -250 21c-51.333 2 -85.333 20 -102 54s-25 100.667 -25 200
c0 32.667 1.33301 57 4 73l8 205l9 1594l4 155l12 279c4 94 15 150 33 168c8 8 16 14.667 24 20c52.667 39.333 80 60 82 62h13c18 0 42.333 -9.66699 73 -29c53.333 -32.667 113.666 -49 180.999 -49c38 0 87 12.333 147 37c100 40.667 233.667 61 401 61
c127.333 0 233.166 -9.5 317.499 -28.5s158.166 -51.667 221.499 -98s128.333 -113.5 195 -201.5c112 -144.667 168 -296 168 -454c0 -142.667 -55.333 -284.834 -166 -426.501s-248 -245.5 -412 -311.5l-70 -32c-24 -8 -36 -19 -36 -33
c0 -19.333 13.333 -42.666 40 -69.999c30.667 -28 103.334 -115.333 218.001 -262c38.667 -53.333 128.667 -169.333 270 -348c174.667 -224.667 262 -368 262 -430c0 -16.667 -15 -40 -45 -70l-53 -61c-12.667 -16.667 -37.334 -29 -74 -37
c-127.333 -27.333 -205 -41 -233 -41c-11.333 0 -38.666 8.33301 -81.999 25l-17.5 7c-5 2 -8.83301 3.66699 -11.5 5c-17.333 13.333 -32.833 27.166 -46.5 41.499s-40.834 48.666 -81.501 102.999l-147 202l-249 349.5l-271 373c-21.333 30.667 -44.333 52.334 -69 65.001
zM852.002 1565l-3.99902 -70c0 -38 13.667 -57 41 -57c18 0 69.667 24.333 155 73c136 78.667 244.5 173 325.5 283s121.5 218 121.5 324c0 82.667 -27.333 135.667 -82 159c-63.333 30 -134.333 45 -213 45c-76.667 0 -148.334 -13.333 -215.001 -40s-105.667 -57 -117 -91
v-209z" />
    <glyph glyph-name="c83" unicode="S" horiz-adv-x="1884" 
d="M213 823l119.002 7.99609c10 0 29 -9.33301 57 -28c69.333 -42.667 122.666 -94.667 159.999 -156l127 -209c48 -84.667 105.333 -127 172 -127c60 0 111.833 23.167 155.5 69.5s65.5 102.5 65.5 168.5c0 75.333 -32.5 166.333 -97.5 273s-155.5 217.667 -271.5 333
l-213 209c-169.333 174.667 -254 374 -254 598c0 42 4.33301 89.667 13 143c14 87.333 38.667 164.666 74 232c35.333 67.333 95.333 151.333 180 252c163.333 193.333 321.666 290 474.999 290c66.667 0 133.5 -8.83301 200.5 -26.5s121.5 -41.5 163.5 -71.5
c32.667 -18 123 -94.333 271 -229c51.333 -49.333 92.166 -121 122.499 -215s45.5 -197 45.5 -309c0 -154.667 -28.667 -256 -86 -304c-20.667 -16 -57.667 -24 -111 -24c-94 0 -177.5 30.167 -250.5 90.5s-109.5 129.833 -109.5 208.5v12l12 172v25
c0 122.667 -23.333 184 -70 184c-26 0 -45 -4 -57 -12c-40.667 -18.667 -83 -61 -127 -127c-68 -96 -102 -189 -102 -279c0 -81.333 24.833 -159.666 74.5 -234.999s142.167 -175.666 277.5 -300.999c200 -182 337.667 -343.333 413 -484c79.333 -144 119 -271 119 -381
c0 -99.333 -35.333 -202.666 -106 -309.999s-161 -193.666 -271 -258.999c-126 -76.667 -278.667 -115 -458 -115c-107.333 0 -199 12.333 -275 37c-117.333 38 -244.333 105 -381 201c-76.667 59.333 -136 135.5 -178 228.5s-63 194.167 -63 303.5
c0 46.667 8.33301 85.167 25 115.5s38.334 46.5 65.001 48.5h94z" />
    <glyph glyph-name="c84" unicode="T" horiz-adv-x="1671" 
d="M537 2253l-29.001 -3.99805l-123 -17c-88 -13.333 -148 -20 -180 -20c-24 0 -43.333 12.333 -58 37c-14 18.667 -24.667 39 -32 61c-44 136.667 -66 252.667 -66 348c0 30 5.33301 51 16 63s31.334 21 62.001 27l197 37l1040 127c10.667 2.66699 25.667 4 45 4
c58 0 93.667 -4 107 -12l16 -16c70.667 -74 106 -130 106 -168c0 13.333 -2.66699 -12.667 -8 -78l-24 -213c0 -8 -7 -19 -21 -33c-16 -16 -29.667 -24 -41 -24l-205 -21l-127 -12l-28 -4c-12 0 -20.333 -11 -25 -33v-70l-4 -176l4 -1569l4 -258v-163
c2.66699 -8.66699 4 -18.334 4 -29.001c2.66699 -2.66699 4 -8.33398 4 -17.001c0 -60 -50.333 -90 -151 -90c-98 0 -193.5 11.333 -286.5 34s-154.5 49.667 -184.5 81c-30 30 -45 121.333 -45 274l37 1684v225z" />
    <glyph glyph-name="c85" unicode="U" horiz-adv-x="2204" 
d="M233 2052l13.002 310.999c7.33301 216 23.666 346 48.999 390c14 21.333 49.333 32 106 32c159.333 0 304.333 -31.333 435 -94c46 -22 69 -54.667 69 -98v-8l-16 -361c-5.33301 -158.667 -8 -246 -8 -262c-36 -665.333 -54 -1049 -54 -1151
c0 -78 8.66699 -141.833 26 -191.5s47 -96.5 89 -140.5c29.333 -30.667 62.333 -56.667 99 -78s66.334 -32 89.001 -32c23.333 0 46.666 10.5 69.999 31.5s42.333 48.5 57 82.5c25.333 58 48.666 134.667 69.999 230c24.667 112.667 37 261.334 37 446.001v49l-8 992
c0 13.333 -2.66699 107.333 -8 282c0 26 -0.833008 54 -2.5 84s-2.5 52.667 -2.5 68c0 88 5.5 143.333 16.5 166s37.167 34 78.5 34c32.667 0 61.334 -1.33301 86.001 -4c121.333 -11.333 238.666 -26.333 351.999 -45c45.333 -8 77.166 -24.167 95.499 -48.5
s27.5 -62.833 27.5 -115.5v-61c-6 -71.333 -11 -238.5 -15 -501.5s-6 -622.833 -6 -1079.5c0 -472.667 -73.667 -774.334 -221 -905.001c-52.667 -48.667 -142.667 -93.667 -270 -135c-84.667 -30 -166.667 -45 -246 -45c-47.333 0 -93.666 8 -138.999 24l-115 45l-422 123
c-59.333 17.333 -115.833 57.5 -169.5 120.5s-92.5 134.833 -116.5 215.5c-44 160.667 -66 342.334 -66 545.001c0 64 4 257.667 12 581z" />
    <glyph glyph-name="c86" unicode="V" horiz-adv-x="1958" 
d="M1597 3015l188.998 -24.999c60 -12 96.667 -31 110 -57l33 -45c19.333 -28.667 29 -52 29 -70c0 -13.333 -2.66699 -27 -8 -41c-8 -20 -23 -67.667 -45 -143l-37 -176l-463 -1930l-37 -143l-78 -262c-4 -18.667 -8 -39.334 -12 -62.001c-20 -98 -43.333 -147 -70 -147
c-51.333 0 -89.333 5.33301 -114 16l-103 37c-34 14 -76.333 21 -127 21l-147 -8c-3.33301 0 -7.66602 -0.833008 -12.999 -2.5s-9.33301 -2.5 -12 -2.5c-76 0 -118.333 24.667 -127 74l-33 144l-36 126l-402 1827l-28 135l-33 136l-25 131c-2.66699 13.333 -4 31 -4 53
c0 13.333 13.667 35 41 65c24.667 28.667 54.667 49.334 90 62c46 16.667 118.333 25 217 25c88.667 0 157 -13.667 205 -41c96.667 -62 155.334 -189 176.001 -381l62 -623l49 -315l69 -377c20.667 -109.333 38.667 -164 54 -164c16 0 35 62.667 57 188l53 263
c105.333 529.333 168.333 873.333 189 1032c31.333 202 52.166 333.667 62.499 395s20.833 110 31.5 146s24.334 70 41.001 102c24 49.333 54 74 90 74c19.333 0 33 -3 41 -9z" />
    <glyph glyph-name="c87" unicode="W" horiz-adv-x="3207" 
d="M1278 283l-29.001 -172.002l-37 -123v-29c-4 -49.333 -47.667 -74 -131 -74c-40 0 -82.333 9.66699 -127 29l-213 98c-34 17.333 -124 32.333 -270 45c-28.667 0 -60 7 -94 21c-29.333 14 -45.666 31.667 -48.999 53c-4 0 -12.333 58.667 -25 176l-24 115l-132 1298
l-45 668c-5.33301 120 -8 197.667 -8 233c0 54.667 14.833 89.5 44.5 104.5s95.5 22.5 197.5 22.5c199.333 0 318 -19 356 -57c20.667 -24.667 33 -150.334 37 -377c0 14 19 -353.333 57 -1102c8.66699 -126 13 -203.667 13 -233c4 -78 12 -149 24 -213
c3.33301 -34 15.666 -57.333 36.999 -70c22.667 92 48.667 215 78 369c95.333 516 161 914.667 197 1196c24 203.333 44.333 315.333 61 336c4.66699 10 13 16.667 25 20c30 14 53 21 69 21c8.66699 0 14.334 -1.33301 17.001 -4l139 -58l385 -24c35.333 0 57 -26 65 -78
l54 -360l61 -582l62 -451l28 -237c44 68 73.667 126.167 89 174.5s33.666 144.5 55 288.5c6 44.667 42.667 238.334 110 581.001c35.333 154.667 56 243.334 62 266.001c10.667 53.333 21.167 101.666 31.5 144.999s16.166 70.333 17.5 81l90 471
c12 63.333 33.333 106.5 64 129.5s83 34.5 157 34.5c88 0 174 -24.667 258 -74c106.667 -57.333 160 -101 160 -131c0 -16.667 -4 -33 -12 -49l-86 -209l-66 -225l-352 -1586l-37 -135l-139 -635c-3.33301 -27.333 -24 -41 -62 -41c-31.333 0 -64 7 -98 21l-234 127l-270 45
c-42 6.66699 -73.333 25.667 -94 57c-22 38.667 -41.5 92.334 -58.5 161.001s-32.167 158 -45.5 268s-26.333 253.667 -39 431c-2.66699 45.333 -18 234 -46 566l-20 229h-29l-24 -229l-74 -594l-53 -381z" />
    <glyph glyph-name="c88" unicode="X" horiz-adv-x="2060" 
d="M950 1081l-20 -98.002l-119 -569c-6 -32 -34.667 -133 -86 -303c-19.333 -71.333 -41.333 -131.666 -66 -180.999c-16 -32.667 -46 -49 -90 -49c-18 0 -59 7 -123 21l-184 45c-36.667 7.33301 -70.667 25 -102 53c-24.667 27.333 -46.667 50.666 -66 69.999
c-22 7.33301 -33 19.333 -33 36c0 12 11 36.667 33 74c44.667 88.667 84.334 180.334 119.001 275.001l254 667c60 164 90 257 90 279c0 47.333 -45 170 -135 368c-27.333 55.333 -109.333 263 -246 623c-49.333 138 -74 232.333 -74 283c0 68 24.667 102 74 102
c2.66699 0 6 -0.666992 10 -2s7.66699 -2 11 -2l233 -66l221 -36c12 0 30 -16.667 54 -50c54.667 -87.333 88.667 -151.333 102 -192l164 -574l24 -65c8.66699 8 13 14.667 13 20l32 107l119 319l156 439c69.333 204.667 141.666 307 216.999 307
c27.333 0 46.333 -2.66699 57 -8l94 -49l250 -86c8.66699 -4.66699 23.667 -22.667 45 -54c19.333 -26 29 -50.333 29 -73v-25l-65 -111l-119 -229l-463 -860c-5.33301 -16 -8 -28.333 -8 -37c0 -10.667 5.33301 -32.667 16 -66l209 -499l209 -553
c40.667 -110.667 61 -183 61 -217c0 -84.667 -24.333 -127 -73 -127c-22 0 -38.667 1.33301 -50 4c21.333 0 -46.667 2.66699 -204 8c-72 0 -126.667 5.33301 -164 16c-14 4.66699 -26.333 10.334 -37 17.001c-9.33301 6.66699 -31.333 29.667 -66 69
c-11.333 16 -19.333 31 -24 45l-225 775l-25 77z" />
    <glyph glyph-name="c89" unicode="Y" horiz-adv-x="1925" 
d="M504 1225l-372.999 1007c-70.667 190.667 -106 323.334 -106 398c0 39.333 9.16699 72.333 27.5 99s41.833 40 70.5 40c13.333 0 23 -1.33301 29 -4c5.33301 0 16 -4 32 -12c32.667 -11.333 95.667 -17 189 -17c18.667 2.66699 40.334 4 65.001 4
c52 0 98.667 -27.333 140 -82c34 -42 60.667 -89.667 80 -143s48.333 -160 87 -320l70 -294l74 -312c2 -6 8.66699 -21 20 -45c10 -13.333 17 -20 21 -20c9.33301 0 21.666 21.667 36.999 65c43.333 102 85.666 223.667 126.999 365l159 577c84 308.667 164.667 463 242 463
c19.333 0 33 -1.33301 41 -4l106 -20l111 -74l135 -45c24.667 -4.66699 37 -34.667 37 -90c0 -24 -4 -44.667 -12 -62l-45 -114l-13 -33l-479 -1143l-53 -131c-43.333 -121.333 -72 -199.333 -86 -234c-6 -18 -11.333 -53.333 -16 -106c-16 -150 -25.667 -400 -29 -750
c-2 -110 -12 -181.167 -30 -213.5s-55.667 -48.5 -113 -48.5c-30 0 -52 2.66699 -66 8l-160 41l-209 50c-16 4 -30.167 19.833 -42.5 47.5s-18.5 58.167 -18.5 91.5c0 46 1.33301 81.333 4 106c10.667 84.667 16 214.334 16 389.001c0 139.333 -1.33301 247.333 -4 324
c0 31.333 -6.66699 69.666 -20 114.999z" />
    <glyph glyph-name="c90" unicode="Z" horiz-adv-x="1905" 
d="M98 156l-56.999 85.9971c-4 8.66699 -8 26.334 -12 53.001c0 2.66699 -0.666992 7.33398 -2 14.001s-2 11.667 -2 15c0 26.667 13.667 62 41 106c2.66699 2.66699 5.33398 5.83398 8.00098 9.50098l8 11.5l790 1392l156 275l53 94c8.66699 11.333 13 23.666 13 37
c0 10.667 -9.66699 16 -29 16h-4l-115 -4c-262.667 -8 -425 -19 -487 -33c-32.667 -8 -58.667 -12 -78 -12c-31.333 0 -58.333 13 -81 39s-34 56.667 -34 92l4 201l-8 98v8c0 57.333 38.333 86 115 86c59.333 0 171.333 5.66699 336 17c164 5.33301 274.333 8 331 8
c106.667 0 201 -4 283 -12c54 -6 99 -9 135 -9c43.333 0 79 4.33301 107 13c-2.66699 0 6.66602 2.66699 27.999 8c24.667 8 45.334 12 62.001 12c8 0 14.667 -1.33301 20 -4c8.66699 -5.33301 19.667 -15 33 -29l53 -41c24 -19.333 42 -53.333 54 -102
c0 -19.333 2.66699 -31.666 8 -36.999l37 -45c8 -12 12 -23 12 -33c0 -2 -2.66699 -14.333 -8 -37l-99 -163l-163 -308l-602 -1106l-58 -102l-115 -205l-20 -37c-2.66699 -2.66699 -4 -5.33398 -4 -8.00098c0 -5.33301 12.333 -8 37 -8h4c80.667 4.66699 183 13 307 25
c44 5.33301 97.333 8 160 8c110.667 0 188.334 -8.33301 233.001 -25c22.667 -8 40 -25.5 52 -52.5s26 -80.5 42 -160.5c14 -66 21 -115 21 -147c0 -32.667 -7 -77.667 -21 -135c-6.66699 -24.667 -32.334 -37 -77.001 -37c-25.333 0 -78.666 5.33301 -159.999 16
c-62 8 -142.667 12 -242 12h-708c-72.667 0 -120.834 -2.16699 -144.501 -6.5s-47.834 -15.833 -72.501 -34.5c-18.667 -13.333 -32.334 -20 -41.001 -20c-10 0 -26.667 15 -50 45l-36 57z" />
    <glyph glyph-name="c91" unicode="[" horiz-adv-x="1446" 
d="M831 2519l0.000976562 -32.9971l-8 -442l-41 -1430l4 -372l-4 -340v-70c32.667 -2.66699 65.667 -4 99 -4c30 0 51.667 1.33301 65 4l176 25h8c32.667 0 58.667 -9.66699 78 -29l49 -57l62 -37l41 -4c22 -4.66699 33 -36.334 33 -95.001c0 -58 -16.667 -97.333 -50 -118
s-116.333 -41.334 -249 -62.001c-26.667 -6 -47 -10.333 -61 -13s-27 -5.33398 -39 -8.00098s-28 -6.66699 -48 -12c-124.667 -35.333 -205 -53 -241 -53h-41c-106.667 0 -175 5.66699 -205 17l-13.5 11c-5 4 -10.167 9.66699 -15.5 17l-79.5 104l-112.5 146
c-13.333 17.333 -21.666 31 -24.999 41c-8 16 -12 57 -12 123c0 70 4 152 12 246c2.66699 52 4 129.667 4 233v86l37 1749l-4 258l-8 168l-17 180c0 3.33301 -0.666992 7.66602 -2 13c-1.33301 5.33301 -2 9.33301 -2 12c0 52 12 88.333 36 109s66.667 32 128 34l291 9
l287 8c24.667 0 48.667 0.666992 72 2s34.666 2 33.999 2c45.333 0 91.666 -11 138.999 -33c18.667 -8.66699 29.667 -17 33 -25c6.66699 -6.66699 15 -21.667 25 -45c46 -123.333 69 -199.666 69 -229c0 -30.667 -20.333 -48.334 -61 -53
c-50 -10 -185.333 -19.667 -406 -29z" />
    <glyph glyph-name="c92" unicode="\" horiz-adv-x="1925" 
d="M1638 -328l-15.998 -11.999l-29 -12l-77 8c-54.667 2.66699 -94.334 15 -119.001 37c-40.667 36.667 -84.334 124 -131.001 262c-19.333 60 -48 140.667 -86 242c-68 199.333 -116 331.666 -144 396.999c-44.667 126 -118.334 307.667 -221.001 545l-322 747
c-78.667 178 -144.167 319.5 -196.5 424.5s-102.166 193.5 -149.499 265.5l-81 127c-16.667 24.667 -25 48 -25 70c0 10.667 1.33301 19 4 25c2.66699 10.667 12.334 27 29.001 49c48 52 86 78 114 78l279 16h12c37.333 0 66 -11.5 86 -34.5s44.667 -72.833 74 -149.5
c4 -12.667 77.667 -167 221 -463c6 -10.667 27.667 -61 65 -151l165 -398l258 -623l340 -848c19.333 -49.333 34.166 -88.333 44.499 -117l49.5 -132l37 -82l45 -107c13.333 -27.333 20 -45 20 -53s-1.33301 -13.333 -4 -16c-2.66699 -14 -8 -25 -16 -33z" />
    <glyph glyph-name="c93" unicode="]" horiz-adv-x="1409" 
d="M541 -168l3.99707 107l8 139l8 151l41 2114c0 22 1.33301 42.333 4 61v140c-49.333 5.33301 -76.666 8 -81.999 8l-221 16h-70c-58.667 2 -100.5 21.167 -125.5 57.5s-37.5 96.5 -37.5 180.5c0 117.333 109 176 327 176l275 4h53c100.667 0 168.5 -2.16699 203.5 -6.5
s66.833 -15.833 95.5 -34.5c58 -33.333 105.333 -79.833 142 -139.5s55 -121.167 55 -184.5c0 -25.333 -3 -55.333 -9 -90l-24 -319l-53 -2155v-155c2.66699 -66 4 -145.333 4 -238c0 -55.333 -2 -92.833 -6 -112.5s-14.333 -40.834 -31 -63.501
c-9.33301 -19.333 -25.666 -29 -48.999 -29c7.33301 0 -6.66699 -0.666992 -42 -2s-73.333 -2 -114 -2h-352c-109.333 0 -180.333 -1.33301 -213 -4c-11.333 -2.66699 -29 -4 -53 -4c-78 0 -124.667 20.333 -140 61l-49 123l-37 99v12c0 26.667 22 51.334 66 74.001
c16 8 35 12 57 12c32.667 0 65.334 -1.33301 98.001 -4c63.333 0 127.666 1.33301 192.999 4c3.33301 0 13.333 0.666992 30 2s31.334 2 44.001 2z" />
    <glyph glyph-name="c94" unicode="^" horiz-adv-x="2474" 
d="M1024 3121c13.333 5.33301 29.665 7.99805 48.998 7.99805c11.333 0 33.333 -5.33301 66 -16c24.667 -10.667 56 -16 94 -16l82 24c8 2.66699 24.333 4 49 4c30 0 61.333 -1.33301 94 -4c79.333 -72 162.666 -169 249.999 -291
c312.667 -435.333 495.667 -679.666 549.001 -732.999c31.333 -28 49 -45.667 53 -53c8.66699 -8.66699 18.334 -23.667 29 -45c-35.333 -19.333 -83.333 -29 -144 -29c-48.667 0 -97.667 4 -147 12c-35.333 6 -75 9 -119 9c-35.333 -2.66699 -62.666 -4 -81.999 -4
c-8.66699 0 -27.667 4 -57 12l-49 45l-447 659c-13.333 27.333 -36.333 41 -69 41c-37.333 0 -64.666 -13.667 -81.999 -41l-398 -643l-57 -61l-57 -4l-78 12h-107l-213 -16h-36c-22 0 -42.667 2.66699 -62 8c17.333 42.667 47.333 83.667 90 123.001
c102 95.333 197.333 201.166 286 317.5c88.667 116.333 201 283.5 337 501.5c32.667 52.667 60 90.167 82 112.5s53.333 44.833 94 67.5z" />
    <glyph glyph-name="c95" unicode="_" 
d="M0 -618h2048v-345h-2048v345z" />
    <glyph glyph-name="c96" unicode="`" horiz-adv-x="1229" 
d="M979 2454l98.001 -78c54.667 -38 82 -71 82 -99c0 -18.667 -6.66699 -39 -20 -61c-47.333 -82 -102 -123 -164 -123c-16.667 0 -35.667 5.33301 -57 16l-70 50l-74 49l-86 57c-34 25.333 -109 73 -225 143c-74 48.667 -111 91 -111 127c0 27.333 12.333 53.333 37 78
c20 20 48.667 40.667 86 62c84 43.333 137.333 65 160 65c19.333 0 67 -38 143 -114c9.33301 -9.33301 36.666 -32.666 81.999 -70z" />
    <glyph glyph-name="c97" unicode="a" horiz-adv-x="1507" 
d="M905 41c-146.667 -52 -265.333 -78.002 -356 -78.002c-87.333 0 -166.5 19.833 -237.5 59.5s-126.333 94.334 -166 164.001s-59.5 146.834 -59.5 231.501c0 144 66.5 265.333 199.5 364s295.833 148 488.5 148h21h12c28.667 0 46 8.5 52 25.5s9 64.5 9 142.5
c0 68 -1.33301 117 -4 147l-4 103c-3.33301 48.667 -17 73 -41 73c-29.333 0 -78.333 -61.333 -147 -184c-46 -86.667 -81.167 -148.5 -105.5 -185.5s-45.333 -60.333 -63 -70s-42.167 -14.5 -73.5 -14.5c-83.333 0 -156.666 15.5 -219.999 46.5s-95 67.167 -95 108.5
c0 27.333 8 60.333 24 99l49 90l86 176c46.667 97.333 102 179 166 245s119.333 99 166 99h33l160 -21c5.33301 0 14.666 -6.66699 27.999 -20c30.667 -26.667 56.667 -41.667 78 -45l197 -41c74.667 -14 139 -60.333 193 -139s81 -164.667 81 -258l-16 -1201v-36
c2.66699 -8.66699 4 -19.667 4 -33c0 -47.333 -8.66699 -80.333 -26 -99s-47 -28 -89 -28c-16 0 -46 2.66699 -90 8l-172 33c-12.667 0 -27.667 13.667 -45 41c-8 12.667 -20.333 29 -37 49zM856.001 466.998v19.999c2.66699 6 4 14.333 4 25c0 54.667 -19 82 -57 82
c-45.333 0 -105.333 -26 -180 -78c-68.667 -45.333 -103 -87.666 -103 -126.999c0 -46.667 45 -70 135 -70c136.667 0 205 35.667 205 107z" />
    <glyph glyph-name="c98" unicode="b" horiz-adv-x="1647" 
d="M668 1442l16.002 37c16.667 51.333 25 71.666 25 60.999c29.333 59.333 59.333 110 90 152c38 51.333 99.333 77 184 77c154.667 0 281.667 -40.667 381 -122c120 -100 180 -313 180 -639c0 -210.667 -23.833 -400.667 -71.5 -570s-113.834 -301 -198.501 -395
s-180.334 -141 -287.001 -141c-68 0 -169 23 -303 69c-72 22 -121 33 -147 33c-6 0 -36.333 -2.66699 -91 -8l-73 -8c-11.333 -2.66699 -29.333 -4 -54 -4c-60.667 0 -97.334 15 -110.001 45c-30 54.667 -45 180.334 -45 377.001v36l29 1942v299v24
c0 64.667 4.83301 108.834 14.5 132.5c9.66699 23.667 27.834 35.5 54.501 35.5l180 -4c87.333 0 162.666 -15 225.999 -45c30.667 -14 49.834 -27.667 57.501 -41s11.5 -37.666 11.5 -72.999c0 -27.333 -5.33301 -98.333 -16 -213
c-9.33301 -60.667 -20.333 -250.667 -33 -570c0 -40.667 -2.66699 -118.334 -8 -233.001l-8 -180zM672.002 422c4 -98.667 34 -148.001 90 -148.001c18.667 0 44.667 13.667 78 41c20.667 22 37 45.333 49 70c18 50 38.333 123.667 61 221c46.667 196 70 377.667 70 545
c0 70 -7.16699 127.833 -21.5 173.5s-31.833 68.5 -52.5 68.5c-24 0 -62.333 -49.333 -115 -148c-106 -191.333 -159 -454.666 -159 -789.999v-33z" />
    <glyph glyph-name="c99" unicode="c" horiz-adv-x="1516" 
d="M1069 1761l168.002 -49.002c18 -6.66699 36.833 -18.667 56.5 -36s33.5 -35.333 41.5 -54c19.333 -34 29 -155.667 29 -365c0 -96 -9.66699 -161.333 -29 -196c-34 -60 -73.333 -90 -118 -90c-16 0 -36.667 4 -62 12c-46.667 16.667 -78 25 -94 25l-119 4
c-62.667 4.66699 -94 49.667 -94 135v16l20 144v28c0 71.333 -15 107 -45 107c-14 0 -24.667 -11 -32 -33c-48.667 -116 -90.334 -262.5 -125.001 -439.5s-52 -329.5 -52 -457.5c0 -147.333 28.667 -221 86 -221c34.667 0 77.167 30 127.5 90s92.5 132.333 126.5 217
c39.333 98.667 66.666 153.334 81.999 164.001c16.667 8 45.334 12 86.001 12c20 0 48.667 -2.66699 86 -8c49.333 -10.667 70 -16 62 -16c19.333 -8.66699 52 -36 98 -82c44 -40 66 -77 66 -111c0 -2 -0.666992 -6 -2 -12s-2 -11.667 -2 -17
c-14 -75.333 -36 -147.666 -66 -216.999c-50.667 -131.333 -135.334 -244.666 -254.001 -339.999c-54.667 -43.333 -128.334 -65 -221.001 -65c-96.667 0 -213.5 26.833 -350.5 80.5s-241.5 114.167 -313.5 181.5c-87.333 79.333 -131 241.666 -131 486.999
c0 377.333 93 727 279 1049c26.667 50 55.334 88.333 86.001 115c24.667 21.333 65.667 32 123 32c128.667 0 244.667 -15 348 -45z" />
    <glyph glyph-name="c100" unicode="d" horiz-adv-x="1679" 
d="M1012 217l-16.9961 8.00098c-55.333 -107.333 -116.666 -182.333 -183.999 -225c-54.667 -35.333 -116 -53 -184 -53h-54c-52.667 6 -92.834 15.333 -120.501 28s-72.167 41.334 -133.5 86.001c-60 46.667 -105.333 91.5 -136 134.5s-52.5 93.167 -65.5 150.5
s-19.5 131.666 -19.5 222.999c0 242 54.667 505.667 164 791c44.667 114.667 99.167 210.834 163.5 288.501s121.833 116.5 172.5 116.5c12 0 40.667 -6.66699 86 -20c59.333 -16.667 119.333 -25 180 -25c53.333 0 87.833 9 103.5 27s23.5 58.333 23.5 121
c0 13.333 -1.33301 22.666 -4 27.999v103l-8 659v41v8c0 65.333 8.16699 110.333 24.5 135s45.166 37 86.499 37c131.333 0 252.666 -25.667 363.999 -77c28 -11.333 45.333 -27 52 -47s10 -67.333 10 -142v-172l-21 -1749v-135v-356c0 -48.667 0.666992 -94.667 2 -138
s2 -63 2 -59c11.333 -46 17 -78.667 17 -98c0 -20.667 -11.333 -38.834 -34 -54.501s-48.334 -23.5 -77.001 -23.5c-18.667 0 -42 5.33301 -70 16l-123 62l-159 37c-10.667 3.33301 -20.334 21 -29.001 53c-8 40.667 -12 70.667 -12 90v111v20zM614.004 381.001
c4 -41.333 20.667 -61.998 50 -61.998s69.666 41.833 120.999 125.5s94 178.5 128 284.5c14.667 41.333 28 116.666 40 225.999s18 211.666 18 306.999c0 98 -23.333 147 -70 147c-29.333 0 -60.666 -24.667 -93.999 -74c-28.667 -44 -49.334 -90.333 -62.001 -139
c-35.333 -126 -74.666 -321.333 -117.999 -586c-11.333 -92 -17 -145 -17 -159l4 -21v-49z" />
    <glyph glyph-name="c101" unicode="e" horiz-adv-x="1589" 
d="M918 1794l158.999 -15.999c40 -4 84 -22.333 132 -55s87.333 -71.667 118 -117c68.667 -109.333 103 -314.333 103 -615c0 -105.333 -4.33301 -166.666 -13 -183.999c-10.667 -14 -57 -21 -139 -21h-78c-91.333 0 -218.333 -20.333 -381 -61
c-45.333 -14.667 -95.666 -28.334 -150.999 -41.001c-6 -2.66699 -14.333 -6.66699 -25 -12c-22 -18 -33 -66 -33 -144c0 -133.333 35.667 -200 107 -200c116 0 222.333 64 319 192l90 119c23.333 27.333 46.666 41 69.999 41c87.333 0 158.333 -13.833 213 -41.5
s82 -63.167 82 -106.5v-4l-12 -32c0 -0.666992 -0.666992 -3 -2 -7s-2 -7.33301 -2 -10c0 -1.33301 0.666992 -4.33301 2 -9s2 -8.33398 2 -11.001c2.66699 -8.66699 4 -17 4 -25c0 -24 -27.333 -82.667 -82 -176c-49.333 -70.667 -87.666 -122.667 -114.999 -156
c-65.333 -73.333 -129 -124.333 -191 -153s-143 -43 -243 -43c-182.667 0 -367 66.667 -553 200c-68 51.333 -115.667 107.333 -143 168c-36 96.667 -54 218.334 -54 365.001c0 111.333 18.5 254.666 55.5 429.999s82.833 332.333 137.5 471
c61.333 153.333 128.333 245 201 275c36 16 98.667 24 188 24c21.333 0 46 -2.66699 74 -8zM699.999 1155c0 -4.66699 -0.666992 -9 -2 -13s-2 -6.33301 -2 -7c0 2 -2.66699 -13 -8 -45v-13c0 -13.333 8.33301 -20 25 -20s63 11 139 33c36.667 8 58.834 16.5 66.501 25.5
s11.5 29.167 11.5 60.5c0 220.667 -23.333 331 -70 331c-32.667 0 -65.334 -51.667 -98.001 -155z" />
    <glyph glyph-name="c102" unicode="f" horiz-adv-x="1270" 
d="M295 1253c-27.333 6 -54.667 9.00488 -82 9.00488h-12h-13c-44.667 0 -72.5 5.16699 -83.5 15.5s-18.5 37.833 -22.5 82.5c0 17.333 -4 40.666 -12 69.999c-11.333 39.333 -17 78.666 -17 117.999c0 34 6.16699 57.667 18.5 71s34.833 21 67.5 23l90 5
c32.667 0 53.167 4.16699 61.5 12.5s12.5 27.166 12.5 56.499v131c0 254.667 38.333 481.334 115 680c54.667 150.667 117.334 253 188.001 307c31.333 24.667 79.333 37 144 37c281.333 0 488.666 -66.667 621.999 -200c44 -44.667 66 -130.667 66 -258
c0 -46.667 -1.33301 -83.667 -4 -111v-61c0 -157.333 -26 -238 -78 -242l-152 -21c-13.333 -2.66699 -35 -4 -65 -4c-65.333 0 -109.666 19.167 -132.999 57.5s-35 113.5 -35 225.5c0 22 1.33301 38.333 4 49v41c0 90 -13.667 135 -41 135c-26 0 -47.833 -32.5 -65.5 -97.5
s-28.5 -153.833 -32.5 -266.5l-9 -267v-69c0 -32.667 4.33301 -54.5 13 -65.5s26.334 -16.5 53.001 -16.5c24 0 52.5 4 85.5 12s63.167 12 90.5 12c54.667 0 82 -20.333 82 -61v-33l-2 -34c-1.33301 -22.667 -2 -45.334 -2 -68.001c0 -94.667 -2.5 -153.834 -7.5 -177.501
s-18.833 -35.5 -41.5 -35.5c-16.667 0 -30.334 1.33301 -41.001 4c-5.33301 0 -14 0.666992 -26 2s-22.667 2 -32 2c-78.667 0 -131.667 -8.33301 -159 -25l-13 -180l-4 -692v-295c2.66699 -19.333 4 -49.333 4 -90c0 -60.667 -9.5 -99.667 -28.5 -117
s-61.167 -26 -126.5 -26c-24.667 0 -59 2.66699 -103 8l-143 33l-66 12c-22.667 4 -37.334 19 -44.001 45s-11 79.333 -13 160l-4 245v725l-4 103v24z" />
    <glyph glyph-name="c103" unicode="g" horiz-adv-x="1614" 
d="M946 279c-60.667 -93.333 -121.504 -160.502 -182.504 -201.502s-129.833 -61.5 -206.5 -61.5c-77.333 0 -151.666 23.5 -222.999 70.5s-129.166 109.167 -173.499 186.5s-66.5 158.333 -66.5 243c0 119.333 11 247.666 33 384.999
c46.667 341.333 120.334 595.333 221.001 762c78 139.333 180.333 209 307 209c55.333 0 118.333 -31.333 189 -94c41.333 -37.333 68.666 -58 81.999 -62c20 -8 67.667 -12 143 -12c13.333 0 33 0.666992 59 2s46 2 60 2h16c81.333 0 147.5 -18.167 198.5 -54.5
s76.5 -82.166 76.5 -137.499c0 -14.667 -8.33301 -62.667 -25 -144c-27.333 -122 -41 -321.333 -41 -598c0 -26.667 0.666992 -61.667 2 -105s2 -73.666 2 -90.999c0 -97.333 4.33301 -236.666 13 -417.999c4 -62 7.16699 -114.833 9.5 -158.5s4.5 -81.167 6.5 -112.5
c5.33301 -81.333 8 -144 8 -188c0 -104.667 -9.66699 -187.834 -29 -249.501s-54.666 -120.5 -105.999 -176.5c-40 -44 -86.333 -86.333 -139 -127c-78 -60.667 -131.667 -97 -161 -109s-82.333 -18 -159 -18c-152 0 -285.667 39.667 -401 119
c-56 34.667 -120.333 90.667 -193 168c-48 52.667 -81.167 97.334 -99.5 134.001s-27.5 79.334 -27.5 128.001c0 43.333 7.83301 72.666 23.5 87.999s46.167 23 91.5 23c60.667 0 109.667 5.33301 147 16c68 24.667 103.667 37 107 37c10 0 21.833 -6 35.5 -18
s23.5 -25.333 29.5 -40l54 -143c14 -37.333 40.833 -70.5 80.5 -99.5s76.834 -43.5 111.501 -43.5c50 0 83.667 15.667 101 47s26 93.333 26 186l4 594c0 19.333 -1.33301 40 -4 62zM597.996 482.998c0 -54.667 10.999 -82 32.999 -82c33.333 0 73 31.667 119 95
c87.333 110 135 249 143 417l12 369v41c0 42 -2 68.833 -6 80.5s-14.333 17.5 -31 17.5c-36.667 0 -70.667 -27.333 -102 -82c-45.333 -79.333 -84.666 -193 -117.999 -341s-50 -282.667 -50 -404v-111z" />
    <glyph glyph-name="c104" unicode="h" horiz-adv-x="1667" 
d="M672 1389l49 109.999l49 98c29.333 62 53.666 102.167 72.999 120.5s47 27.5 83 27.5c79.333 0 161.833 -11.667 247.5 -35s153.167 -52.666 202.5 -87.999c104 -74.667 156 -240 156 -496l-4 -20l-33 -885c0 -30 1.33301 -65.333 4 -106v-25
c0 -60.667 -6.33301 -106.667 -19 -138s-35 -53 -67 -65s-78.333 -18 -139 -18c-121.333 0 -208.666 24.667 -261.999 74c-30 30 -45 101 -45 213c0 108.667 5.33301 237 16 385l29 377l4 196v45c0 156 -16.333 234 -49 234c-6 0 -13 -4.33301 -21 -13
c-44 -48.667 -80.667 -107.334 -110 -176.001c-39.333 -100.667 -73.166 -233.5 -101.499 -398.5s-42.5 -307.833 -42.5 -428.5v-37l8 -197v-12c0 -36.667 -5.33301 -68 -16 -94c-4 -19.333 -12.333 -33 -25 -41c-2 -2 -48.333 -7.33301 -139 -16l-57 -9
c-18 0 -52.333 11 -103 33c-40.667 17.333 -80 43.333 -118 78c-36 36 -54 128.667 -54 278c0 38.667 1.66699 66 5 82c0 20.667 0.666992 41.334 2 62.001s2 31.667 2 33l-17 1859l-8 201l-8 90v37c0 64 12 109.333 36 136s63.667 40 119 40c56 0 150.333 -13.667 283 -41
c47.333 -10 77.666 -26.667 90.999 -50s20 -71 20 -143v-24l-13 -668l-8 -86l-8 -303z" />
    <glyph glyph-name="c105" unicode="i" horiz-adv-x="913" 
d="M188 1401l-4 328.002c0 81.333 24.667 122 74 122l193 -4c193.333 -8 290 -57 290 -147c0 -16.667 -1.33301 -31.667 -4 -45c-5.33301 -38.667 -8 -139.667 -8 -303l-8 -975l4 -328c0 -30.667 -12.167 -55.334 -36.5 -74.001s-57.166 -28 -98.499 -28
c-8 0 -13.667 1.33301 -17 4c3.33301 0 -39 8 -127 24c-8 3.33301 -20 7.66602 -36 12.999h-9l-155 16c-16.667 2 -31.834 27.5 -45.501 76.5s-20.5 105.5 -20.5 169.5c0 24.667 1.33301 43.667 4 57v90zM705 2544l27.998 -82c8 -16.667 12 -40 12 -70
c0 -82 -23.167 -146.167 -69.5 -192.5s-110.5 -69.5 -192.5 -69.5c-210 0 -315 92.667 -315 278c0 126.667 21.833 214.334 65.5 263c43.667 48.667 122.834 73 237.501 73c68.667 0 112.334 -9.33301 131.001 -28l37 -50l45 -49l8 -20z" />
    <glyph glyph-name="c106" unicode="j" horiz-adv-x="1053" 
d="M643 1815l62 -5.00098c36.667 -3.33301 77.334 -21 122.001 -53l33 -24c11.333 -24 17 -50 17 -78c0 -6 -0.833008 -12 -2.5 -18s-2.5 -11 -2.5 -15c-8 -86 -12 -221 -12 -405l4 -1610l8 -254c0 -80.667 -15 -152.667 -45 -216s-70.667 -108.666 -122 -135.999
c-67.333 -36 -179.333 -54 -336 -54c-144 0 -255.833 34.833 -335.5 104.5s-119.5 167.5 -119.5 293.5c0 128 52 192 156 192c62 0 109.667 -32.667 143 -98c29.333 -65.333 58 -98 86 -98c38 0 57 45 57 135v12l-4 176l-8 103l-25 1749l5 114l-9 82v21
c0 36.667 7.66699 61.5 23 74.5s44.666 19.5 87.999 19.5h25zM852 2552l29 -81.999c8 -16 12 -39.333 12 -70c0 -80.667 -23.5 -143.834 -70.5 -189.501s-112.167 -68.5 -195.5 -68.5c-208 0 -312 93 -312 279c0 85.333 9.33301 152 28 200s50 82 94 102s104.333 30 181 30
c71.333 0 115.333 -9.66699 132 -29l36 -45l41 -49l13 -21z" />
    <glyph glyph-name="c107" unicode="k" horiz-adv-x="1569" 
d="M680 831l12.001 -551.995c0 -49.333 5.66699 -115 17 -197c2.66699 -14 4 -37.333 4 -70c0 -36.667 -7.66699 -60.834 -23 -72.501s-48.666 -17.5 -99.999 -17.5c-34.667 0 -66 4 -94 12c-52.667 16.667 -87 25 -103 25l-147 4c-20.667 2 -38.167 14.667 -52.5 38
s-21.5 51.666 -21.5 84.999c0 19.333 4 78 12 176c2.66699 41.333 4 143.666 4 306.999c-2.66699 52 -4 173.667 -4 365l-8 1601c0 22 -1.33301 50.667 -4 86c-2.66699 11.333 -4 28 -4 50c0 78 11.667 132.167 35 162.5s63.666 45.5 120.999 45.5
c66.667 0 143 -13.333 229 -40c47.333 -11.333 87.166 -30.5 119.499 -57.5s48.5 -54.5 48.5 -82.5c0 -16 -1.33301 -31 -4 -45c0 19.333 -2.66699 -25.667 -8 -135l-4 -123v-49l-13 -901v-115l-4 -90v-8c0 -30 2.66699 -45 8 -45s12.333 6.66699 21 20
c48.667 49.333 91 105.333 127 168l209 348l44 78c12 21.333 19 33.666 21 36.999c32.667 52 58.667 78 78 78h12c38 -8 72.333 -27 103 -57c20.667 -21.333 39.667 -35 57 -41l148 -29c4 0 8 -4 12 -12c10.667 -22 16 -48 16 -78c0 -44 -12.333 -82.333 -37 -115l-250 -348
c-76 -105.333 -114 -177.666 -114 -216.999c0 -28 26.5 -98.833 79.5 -212.5s117.833 -236.834 194.5 -369.501c98.667 -168 148 -275.667 148 -323c0 -54 -33 -85.667 -99 -95l-131 -20l-49 -49c-9.33301 -14 -24.333 -21 -45 -21c-75.333 0 -136.666 49.333 -183.999 148
l-107 217l-65 127l-140 344c-16.667 45.333 -38.334 80.666 -65.001 105.999v-41z" />
    <glyph glyph-name="c108" unicode="l" horiz-adv-x="950" 
d="M414 -41l-196.999 49c-27.333 9.33301 -41 58.666 -41 147.999v340l8 344l21 1540v168c-2.66699 30 -4 72.333 -4 127c0 78 6.66699 134 20 168c10 24 58 36 144 36c128.667 0 229 -17 301 -51s108 -81 108 -141c0 -27.333 -4 -68.333 -12 -123
c-4.66699 -76.667 -8.66699 -155.667 -12 -237c0 -75.333 -0.833008 -139.333 -2.5 -192s-2.5 -77.667 -2.5 -75l-12 -143v-148l-20 -798v-262v-267l8 -376v-9c0 -53.333 -10.667 -91.166 -32 -113.499s-57 -33.5 -107 -33.5c-32.667 0 -61.334 5.33301 -86.001 16z" />
    <glyph glyph-name="c109" unicode="m" horiz-adv-x="2454" 
d="M987 717l12.001 225.002c6 128.667 9 216 9 262c0 117.333 -19.333 176 -58 176c-13.333 0 -25.666 -5.33301 -36.999 -16c-14.667 -14.667 -25.334 -27 -32.001 -37c-50 -59.333 -85.667 -107 -107 -143c-46 -96.667 -69 -282.334 -69 -557.001
c0 -84.667 1.33301 -149 4 -193v-237l-4 -111c-2 -66.667 -9.5 -110.667 -22.5 -132s-41.167 -32 -84.5 -32c-72 0 -171.667 23.333 -299 70c-52 21.333 -86.167 41.666 -102.5 60.999s-24.5 49.333 -24.5 90v50c2.66699 10.667 4 24 4 40l-12 1323v41
c0 122.667 5.33301 191 16 205c23.333 32.667 91.666 49 204.999 49c114.667 0 187 -15 217 -45c10.667 -7.33301 16 -26.333 16 -57v-12c-2.66699 -32.667 -4 -79.334 -4 -140.001v-86v-49c42.667 84.667 92 162.667 148 234c57.333 65.333 135 98 233 98
c74.667 0 142.834 -15.5 204.501 -46.5s109.5 -74.167 143.5 -129.5l17 -25c9.33301 -18.667 19 -28 29 -28c10.667 0 27 23 49 69c47.333 86.667 95 138.667 143 156c30.667 10 101.667 19.667 213 29c40.667 2.66699 92.667 4 156 4c83.333 0 154.333 -19.333 212.999 -58
c50.667 -34 86.5 -91.5 107.5 -172.5s31.5 -200.833 31.5 -359.5c0 -86.667 -5 -218.667 -15 -396s-21.333 -345.666 -34 -504.999c-8 -74 -12 -128.667 -12 -164c-2 -93.333 -10 -153.5 -24 -180.5s-45.667 -40.5 -95 -40.5c-11.333 0 -18.333 1.33301 -21 4
c-120.667 7.33301 -220.334 23.666 -299.001 48.999c-46 16.667 -69 55 -69 115c0 2 0.666992 9 2 21s2 25.333 2 40c8 52.667 12 108.667 12 168l4 127c16.667 320 29 534.333 37 643c2.66699 30 4 71 4 123c0 52.667 -4 93.667 -12 123l-17 49
c-7.33301 19.333 -16.666 29 -27.999 29c-22.667 0 -51.5 -32.333 -86.5 -97s-62.167 -137.667 -81.5 -219c-22 -83.333 -44 -236 -66 -458c-18.667 -244 -28 -421.667 -28 -533c0 -70.667 -20.667 -106 -62 -106c-20.667 0 -56 6.66699 -106 20
c-12 4.66699 -25.833 9 -41.5 13s-26.5 6.66699 -32.5 8h-90h-66c-44.667 0 -73.5 17.333 -86.5 52s-19.5 111.334 -19.5 230.001c0 49.333 1.33301 86.333 4 111z" />
    <glyph glyph-name="c110" unicode="n" horiz-adv-x="1659" 
d="M176 406l-0.00292969 932.999l-8 152l-4 123v61c0 34.667 15 59.334 45 74.001c26.667 13.333 99 20 217 20c103.333 0 162 -16.333 176 -49c4.66699 -13.333 8.66699 -31 12 -53c8.66699 -43.333 13 -78.666 13 -105.999c0 -36 -1.33301 -66.333 -4 -91l20 33l33 78
c38 83.333 83 149 135 197c27.333 23.333 51.833 38.666 73.5 45.999s55.834 11 102.501 11c221.333 0 367.333 -54.667 438 -164c34 -52 56.833 -120.333 68.5 -205s17.5 -219.667 17.5 -405c0 -112 -4 -233.667 -12 -365c-10.667 -229.333 -16 -326 -16 -290
c0 -107.333 -2.66699 -199 -8 -275c-4.66699 -46.667 -22.667 -83.667 -54 -111c-23.333 -13.333 -69.666 -20 -138.999 -20c-108.667 0 -193.834 20.5 -255.501 61.5s-92.5 98.167 -92.5 171.5l16 156c3.33301 33.333 7.66602 109.666 12.999 228.999
c4 146.667 12 325.667 24 537c2.66699 24.667 4 61.667 4 111c0 103.333 -12.333 155 -37 155c-5.33301 0 -10.666 -2.66699 -15.999 -8c-10.667 -10.667 -19 -18.667 -25 -24c-59.333 -74 -98.666 -134.333 -117.999 -181c-66 -135.333 -99 -368.666 -99 -699.999
c0 -66.667 3 -154 9 -262c5.33301 -74 8 -142.333 8 -205c0 -84.667 -28.667 -127 -86 -127h-25c-146.667 14.667 -243.667 29.667 -291 45c-43.333 16.667 -78.666 35.667 -105.999 57c-22 22 -33 63 -33 123l4 152v115z" />
    <glyph glyph-name="c111" unicode="o" horiz-adv-x="1602" 
d="M918 1782l207.999 -41.0039c53.333 -9.33301 117.666 -54.333 192.999 -135c58 -65.333 103.833 -157.666 137.5 -276.999s50.5 -251 50.5 -395c0 -269.333 -42.333 -490.666 -127 -663.999c-34 -78.667 -79.5 -150 -136.5 -214s-109.833 -104.667 -158.5 -122
c-35.333 -13.333 -95.333 -20 -180 -20c-5.33301 -2.66699 -14.666 -4 -27.999 -4c-45.333 0 -90.666 6.66699 -135.999 20c-35.333 12 -62.666 21.667 -81.999 29l-229 88.5c-50 19.667 -76 29.834 -78 30.501c-86 40.667 -149.167 109.834 -189.5 207.501
s-60.5 231.834 -60.5 402.501c0 172.667 19 349 57 529s90 335.333 156 466c42 83.333 88.667 132.666 140 147.999c16 4 72 8 168 12h24c61.333 0 114.666 -8 159.999 -24zM728.999 286.996c42.667 0 81.5 31.501 116.5 94.501s62.5 150.167 82.5 261.5
s30 235.666 30 372.999c0 126.667 -10.167 228.667 -30.5 306s-46.833 116 -79.5 116c-32 0 -63.333 -45 -94 -135c-74 -220.667 -111 -454.334 -111 -701.001c0 -91.333 8.16699 -166.666 24.5 -225.999s36.833 -89 61.5 -89z" />
    <glyph glyph-name="c112" unicode="p" horiz-adv-x="1712" 
d="M762 1761c48.667 24.667 100.669 36.998 156.002 36.998c136.667 0 257.5 -24.667 362.5 -74s186.167 -119.666 243.5 -210.999s86 -197 86 -317c0 -145.333 -34.167 -317.666 -102.5 -516.999s-154.5 -379.333 -258.5 -540c-24.667 -38 -53.334 -73.333 -86.001 -106
c-24.667 -28 -51.167 -46.667 -79.5 -56s-72.833 -14 -133.5 -14c-76.667 0 -142 13.667 -196 41h-13c2.66699 -65.333 4 -131 4 -197v-45c0 -130.667 1.66699 -209.667 5 -237l20 -176v-197c0 -86 -8.5 -139.5 -25.5 -160.5s-60.5 -31.5 -130.5 -31.5
c-73.333 0 -144.833 10.833 -214.5 32.5s-118.167 48.834 -145.5 81.501c-35.333 39.333 -53 99.666 -53 180.999v45l8 102l4 131l16 1385c0 50.667 -3.83301 87 -11.5 109s-26.834 48.333 -57.501 79c-24.667 24 -37 47.333 -37 70c0 10 5.33301 26.333 16 49l45 78
c38.667 60.667 58 141 58 241v62c0 11.333 -0.666992 32 -2 62s-2 54.333 -2 73c0 207.333 32.667 311 98 311c-0.666992 0 32 -5.33301 98 -16l201 -41c28.667 -4.66699 62.667 -37.667 102 -99c16.667 -27.333 25 -61.333 25 -102v-33zM782.002 454.998v-28.999
c0 -30 11 -45 33 -45c26 0 56 38.333 90 115c39.333 80.667 74.5 200.167 105.5 358.5s46.5 302.166 46.5 431.499c0 126 -33 189 -99 189c-57.333 0 -109 -30.333 -155 -91c-11.333 -13.333 -17 -50 -17 -110v-62v-659z" />
    <glyph glyph-name="c113" unicode="q" horiz-adv-x="1659" 
d="M995 168h-12.001l-33 -41c-83.333 -104 -155.666 -156 -216.999 -156c-18.667 0 -32.334 1.33301 -41.001 4l-45 13l-217 49c-102 23.333 -182.167 88 -240.5 194s-87.5 240.667 -87.5 404c0 188 28.667 378.167 86 570.5s134 357.166 230 494.499
c37.333 53.333 69.666 89.833 96.999 109.5s60.333 29.5 99 29.5h21c42.667 -5.33301 75.334 -10.666 98.001 -15.999c-5.33301 0 15.334 -5.66699 62.001 -17c69.333 -21.333 133.333 -32 192 -32c26.667 0 48.667 4 66 12l45 20l49 4l86 -32l229 -66
c22 -5.33301 33 -30 33 -74v-4c-0.666992 -26.667 -2 -64.334 -4 -113.001l-6 -149c-2 -50.667 -5.33301 -121.667 -10 -213c-3.33301 -42.667 -10.333 -199.667 -21 -471c-8 -282 -12 -481.333 -12 -598c0 -104 2.66699 -270.667 8 -500l8 -221l4 -143
c0 -32.667 0.666992 -62 2 -88s2 -36.333 2 -31c0 -79.333 -62.667 -119 -188 -119c-30.667 0 -58 4.33301 -82 13l-143 36l-29 9c-18.667 4.66699 -42 21 -70 49c-24 32.667 -36 62.667 -36 90v24l12 107c2.66699 8 4 39.333 4 94c0 2.66699 5.33301 86 16 250
c14 151.333 22.333 237.333 25 258c10.667 130.667 16 196.334 16 197.001c2.66699 5.33301 4 23 4 53zM638.999 385c8 -79.333 25.667 -119 53 -119c3.33301 0 10.333 2.66699 21 8c48 20 83.333 55.667 106 107c50.667 96 85 214.667 103 356
c13.333 71.333 20 206.666 20 405.999c0 126.667 -4.66699 214.334 -14 263.001s-26.333 73 -51 73c-28 0 -65 -52 -111 -156c-38 -92.667 -70.667 -217.5 -98 -374.5s-41 -299.833 -41 -428.5v-37z" />
    <glyph glyph-name="c114" unicode="r" horiz-adv-x="1311" 
d="M672 1540c28 97.333 50.832 164.832 68.499 202.499s39.667 62.5 66 74.5s67.5 18 123.5 18c237.333 0 360 -72.333 368 -217l9 -127c0 -16.667 0.666992 -37 2 -61s2 -39.333 2 -46v-12c-3.33301 -33.333 -40.333 -129 -111 -287c-16.667 -38 -37 -57 -61 -57
c-11.333 0 -23.666 1.33301 -36.999 4l-176 29c-29.333 3.33301 -55.333 55.333 -78 156c-15.333 62.667 -36 94 -62 94c-46 0 -69 -49.333 -69 -148l12 -979l8 -139v-12c0 -44 -6.33301 -74.167 -19 -90.5s-37.667 -24.5 -75 -24.5l-94 25h-98
c-43.333 -6 -69.333 -9 -78 -9c-44.667 0 -80.5 15.333 -107.5 46s-40.5 71.334 -40.5 122.001c0 6 0.666992 15.333 2 28s2 22.667 2 30c6 27.333 9 50.333 9 69l-5 1196l-4 95l-20 86c-5.33301 16 -8 29.667 -8 41c0 38.667 9 64.667 27 78s52.667 20 104 20
c46 0 80 -1.33301 102 -4l90 -8c44 -4 75.667 -18.667 95 -44s37 -75 53 -149z" />
    <glyph glyph-name="c115" unicode="s" horiz-adv-x="1372" 
d="M176 492l66.001 32.001c21.333 8.66699 44.333 13 69 13c22 0 37 -1.66699 45 -5c44 -8 68.667 -17.333 74 -28l102 -135c33.333 -46.667 81.333 -70 144 -70s94 27.333 94 82c0 43.333 -19.833 84.833 -59.5 124.5s-109.834 88.167 -210.501 145.5
c-136.667 83.333 -233.667 160 -291 230c-31.333 39.333 -57 92 -77 158s-30 132 -30 198c0 152 63 296.667 189 434c130.667 139.333 239.667 209 327 209c19.333 0 33 -1.33301 41 -4l287 -61c110.667 -22.667 187.334 -46.834 230.001 -72.501s76.667 -67.167 102 -124.5
c27.333 -58.667 41 -151.667 41 -279c0 -185.333 -37 -278 -111 -278c-2 0 -22.333 2.66699 -61 8c-30 5.33301 -79.333 8 -148 8h-69c-40 0 -67.833 7.16699 -83.5 21.5s-23.5 40.166 -23.5 77.499c0 30 1.33301 55.667 4 77c2.66699 14 4 36 4 66
c0 128 -16.333 192 -49 192c-6.66699 0 -16 -4 -28 -12c-41.333 -30 -76.333 -70 -105 -120s-43 -94.667 -43 -134c0 -111.333 99.667 -220.333 299 -327c151.333 -83.333 256.166 -162 314.499 -236s87.5 -166 87.5 -276c0 -117.333 -38.333 -206.333 -115 -267
c-66.667 -53.333 -151.667 -102.166 -255 -146.499s-183.666 -66.5 -240.999 -66.5c-56 0 -116 7 -180 21c-124.667 26 -238 80.667 -340 164c-82 64.667 -123 126 -123 184c0 12 7 31 21 57c10.667 18.667 16 35 16 49v13v16v8l4 4l4 4c5.33301 8 13.666 15 24.999 21z" />
    <glyph glyph-name="c116" unicode="t" horiz-adv-x="1225" 
d="M356 1303l-77 -17.001l-74 -8l-25 -4h-4c-10 0 -22.333 6.66699 -37 20c-25.333 26.667 -47.333 66.834 -66 120.501s-28 106.5 -28 158.5c0 43.333 8.66699 72.5 26 87.5s49.666 22.5 96.999 22.5h33c10.667 -2.66699 25.667 -4 45 -4
c46.667 0 78.167 7.16699 94.5 21.5s24.5 41.5 24.5 81.5v8l-13 250l-4 225v21c0 64.667 6.83301 108.834 20.5 132.5c13.667 23.667 39.5 35.5 77.5 35.5c2.66699 0 6.16699 -0.833008 10.5 -2.5s7.83301 -2.5 10.5 -2.5l98 -20l201 -16c44 -2 81 -17.333 111 -46
s45 -64 45 -106c0 -12.667 -1.66699 -34.334 -5 -65c-3.33301 -30.667 -6 -56.667 -8 -78c-4.66699 -34 -12.667 -114.667 -24 -242c-8.66699 -76 -13 -115.667 -13 -119c-1.33301 -4.66699 -2.66602 -13.667 -3.99902 -27s-2.66602 -23.333 -3.99902 -30l82 20l78 17
c38.667 5.33301 62 8 70 8c46 0 69 -26 69 -78l-12 -180c0 -11.333 2.66699 -30.333 8 -57c5.33301 -16.667 8 -32 8 -46c0 -43.333 -19 -65 -57 -65h-4l-74 8l-98 4h-4c-42.667 0 -66 -12.333 -70 -37c-5.33301 -21.333 -8 -84 -8 -188c0 -52 1.33301 -117.667 4 -197
c2.66699 -54.667 4 -155.667 4 -303v-24c0 -174 16.333 -282 49 -324l49 -61c38.667 -52 58 -104 58 -156c0 -37.333 -12.667 -67.833 -38 -91.5s-56.333 -35.5 -93 -35.5c-31.333 0 -56 5.33301 -74 16l-98 45l-258 29c-46.667 6 -78.834 27.667 -96.501 65
s-26.5 103 -26.5 197v17l4 159l4 267l4 405c0 40 4 103 12 189z" />
    <glyph glyph-name="c117" unicode="u" horiz-adv-x="1622" 
d="M516 8l-134.997 33c-86.667 21.333 -152.334 96.333 -197.001 225c-32.667 98 -49 248.333 -49 451v78c2 6 7.66699 109.667 17 311c1.33301 19.333 2.66602 49 3.99902 89s2.66602 70.333 3.99902 91c0 104.667 4 179.667 12 225c10.667 109.333 16 160 16 152v8
c0 60 50.667 90 152 90c89.333 0 189 -24.333 299 -73c46.667 -18.667 70 -58.334 70 -119.001c0 -38.667 -8.33301 -129 -25 -271l-33 -323c-13.333 -141.333 -20 -243.666 -20 -306.999c0 -104.667 5.5 -189 16.5 -253s25.833 -96 44.5 -96c21.333 0 47.5 16.333 78.5 49
s56.833 71 77.5 115c34 74 58.667 208 74 402c16 196 24 353 24 471v33l-4 163c0 82 -1.33301 134 -4 156v45c0 39.333 5.16699 65.5 15.5 78.5s29.833 19.5 58.5 19.5c44.667 0 81.334 -5.33301 110.001 -16c66 -22 115.333 -37 148 -45
c109.333 -10.667 154.333 -16 135 -16c13.333 -8 23 -17.667 29 -29c13.333 -23.333 20 -49.333 20 -78c0 -35.333 -1.33301 -73.666 -4 -114.999v-69l-4 -1131l4 -69v-86l8 -91v-16c0 -136.667 -21.667 -205 -65 -205c-14.667 0 -34 4.33301 -58 13
c-13.333 5.33301 -68 14.666 -164 27.999c-65.333 9.33301 -109.5 25.166 -132.5 47.499s-34.5 61.166 -34.5 116.499v53c5.33301 30 8 58.667 8 86v29c-14 -23.333 -26.333 -46.666 -37 -69.999c-36 -76 -61.333 -123.167 -76 -141.5s-42.667 -39.166 -84 -62.499
c-36.667 -24.667 -76.334 -37 -119.001 -37c-23.333 0 -45 4 -65 12z" />
    <glyph glyph-name="c118" unicode="v" horiz-adv-x="1483" 
d="M709 438c4 10 7.16406 18.499 9.49707 25.499s4.5 12.167 6.5 15.5c8.66699 18 18.334 46.667 29.001 86c0 8.66699 13.667 86.667 41 234l49 278l41 303l37 308c14 124 33.5 212.333 58.5 265s59.833 79 104.5 79c106 0 197.5 -25.167 274.5 -75.5
s115.5 -111.166 115.5 -182.499c0 -41.333 -19.333 -130.333 -58 -267c-11.333 -35.333 -19.333 -62.666 -24 -81.999l-246 -970c-31.333 -132.667 -64 -280.334 -98 -443.001c-16 -73.333 -55.667 -110 -119 -110c-21.333 0 -44.666 4 -69.999 12l-205 53
c-31.333 16.667 -51.666 25 -60.999 25l-168 8c-36.667 4 -64.167 21.667 -82.5 53s-37.166 91.333 -56.499 180l-49 222l-181 1130l-16 156v24c0 38.667 21.667 58 65 58c24.667 0 44 -1.33301 58 -4l74 -21l180 -8c103.333 -4 164.666 -77.667 183.999 -221l21 -156
l36 -471c0 -25.333 5.66699 -74.333 17 -147c8.66699 -73.333 19.667 -192.333 33 -357z" />
    <glyph glyph-name="c119" unicode="w" horiz-adv-x="2269" 
d="M1573 844l44.999 250c46.667 242 78 440 94 594c8 59.333 16.333 100 25 122c8 24.667 14.667 44 20 58v24l8 82c0 44 35.667 66 107 66c102.667 0 192.5 -19.333 269.5 -58s115.5 -83.667 115.5 -135c0 -15.333 -9.66699 -67 -29 -155l-254 -1139
c-36.667 -169.333 -55.667 -258 -57 -266l-29.5 -149l-23.5 -118c-4 -30.667 -15 -55 -33 -73c-24.667 -24.667 -64.334 -37 -119.001 -37c-25.333 0 -60.666 8 -105.999 24c-44 14 -75.667 21 -95 21c-2.66699 0 -10.667 -0.666992 -24 -2s-25.666 -2 -36.999 -2
c-8 -2.66699 -21.667 -4 -41 -4c-111.333 0 -177 58.667 -197 176l-45 262l-24 123l-53 487l-9 82h-16l-12 -86l-25 -250c-10 -107.333 -21 -208.333 -33 -303c-18.667 -106.667 -28 -177.667 -28 -213l-13 -139c-8 -112 -64 -168 -168 -168c-32.667 0 -57 2.66699 -73 8
l-156 37c-14.667 3.33301 -50 9 -106 17c-44 6 -72.833 11.667 -86.5 17s-31.5 18.666 -53.5 39.999c-20.667 20.667 -33 35.667 -37 45c-26 37.333 -46.333 116.333 -61 237l-168 1225l-4 66l-12 82c0 1.33301 -0.666992 3.33301 -2 6s-2 4.66699 -2 6
c0 76.667 57.333 115 172 115c69.333 0 136.5 -6.5 201.5 -19.5s108.167 -28.5 129.5 -46.5c32 -28 50 -110 54 -246c0 -429.333 20.333 -729.666 61 -900.999c13.333 26 23 66.833 29 122.5s19.667 132.167 41 229.5l26 144c9.33301 50 19.666 110 30.999 180
c22 146.667 38.333 245 49 295l25 90c6.66699 30 19 45 37 45c2.66699 0 13.334 -2.66699 32.001 -8c14 -2.66699 33.333 -4 58 -4c52 0 99.667 2.66699 143 8c82 0 132.667 -5.33301 152 -16l73 -33l29 -12c22 -9.33301 33 -60 33 -152c0 -66.667 8 -180 24 -340l21 -205
c12.667 -114.667 36 -258 70 -430l20 107z" />
    <glyph glyph-name="c120" unicode="x" horiz-adv-x="1503" 
d="M725 1237l45 85.998l66 168c17.333 43.333 67.666 143 150.999 299c26.667 52.667 51.334 88 74.001 106c26 22 60 33 102 33c43.333 0 91.333 -20.333 144 -61l106 -78c44 -31.333 66 -58.666 66 -81.999c0 -16 -13.667 -46 -41 -90l-115 -193l-262 -421
c-19.333 -32.667 -29 -64.334 -29 -95.001c0 -51.333 42.333 -152.333 127 -303l74 -135c122.667 -225.333 184 -368.666 184 -429.999c0 -19.333 -6.66699 -35.666 -20 -48.999c-6 -6 -17 -14.333 -33 -25c-5.33301 -2.66699 -12.333 -4 -21 -4l-73 4
c-22 0 -42.667 -4 -62 -12c-28.667 -10.667 -56 -16 -82 -16c-94 0 -155.333 16.333 -184 49c-22.667 18.667 -44.334 51.334 -65.001 98.001l-197 442l-33 -86l-213 -589c-14 -36 -33 -54 -57 -54c-43.333 0 -122.666 23.333 -237.999 70c-90 35.333 -135 102.333 -135 201
c0 85.333 76.333 266.666 229 543.999c74 129.333 111 221 111 275c0 15.333 -6.66699 41.333 -20 78l-82 196l-152 381c-24.667 59.333 -37 100.333 -37 123c0 38 26 70.667 78 98c89.333 49.333 175.333 74 258 74c50 0 89.5 -18.667 118.5 -56s61.833 -111.333 98.5 -222
c10 -24.667 27.833 -72.5 53.5 -143.5z" />
    <glyph glyph-name="c121" unicode="y" horiz-adv-x="1475" 
d="M1167 1905l172 -25c36 -4 70.333 -21.667 103 -53c24.667 -26 37 -45.333 37 -58l-4 -4l-33 -180l-4 -37l-492 -2212l-61 -348c-4 -21.333 -24.667 -32 -62 -32c-40 0 -79.333 10.667 -118 32l-119 66c-8 4.66699 -38 11.334 -90 20.001c-79.333 8 -119 39.667 -119 95
c0 10.667 1.33301 18.667 4 24c3.33301 10.667 15.666 40.667 36.999 90c3.33301 3.33301 6.83301 9.66602 10.5 18.999s6.83398 16.666 9.50098 21.999c14.667 38 24.334 72.333 29.001 103l111 483l12 90l8 66c0 41.333 -32.667 64.333 -98 69l-107 12
c-38 5.33301 -73.5 31.5 -106.5 78.5s-58.833 108.5 -77.5 184.5c-38 155.333 -65.333 285.833 -82 391.5s-40 297.167 -70 574.5c-10.667 112.667 -16 198.667 -16 258c0 96 17.667 144 53 144c8 0 16.333 -1.33301 25 -4l151 -29l66 -25l180 -32
c-0.666992 0 4.66602 -8.33301 15.999 -25c18 -47.333 29 -89.666 33 -126.999l58 -492c24 -208 36 -319.667 36 -335c-2.66699 -14 -4 -36 -4 -66c0 -107.333 8.33301 -178.333 25 -213c2 -2 3.83301 -4.16699 5.5 -6.5l6 -8c2.33301 -3 6.83301 -7.83301 13.5 -14.5
c34 125.333 64 266 90 422c81.333 473.333 126.333 783.333 135 930c8 131.333 39.333 197 94 197l4 -4z" />
    <glyph glyph-name="c122" unicode="z" horiz-adv-x="1458" 
d="M1090 1843l163.001 -33.002l58 -69l61 -168c0 -7.33301 4 -17 12 -29c14 -17.333 21 -32.333 21 -45v-8l-8 -16c-29.333 -54 -56.666 -98 -81.999 -132l-602 -802c-36 -50.667 -54 -80.667 -54 -90c0 -16.667 16.667 -25 50 -25c-10.667 0 30 2.66699 122 8h95
c182.667 0 274 -45 274 -135c0 -65.333 1.33301 -100.666 4 -105.999l25 -50c10.667 -26.667 16 -49.667 16 -69c0 -32.667 -6.83301 -55.834 -20.5 -69.501s-38.167 -20.5 -73.5 -20.5c-24.667 0 -42.334 1.33301 -53.001 4c-21.333 3.33301 -110.333 10 -267 20
c-48.667 2.66699 -88 4 -118 4l-316 4c-38 0 -62.333 -1.33301 -73 -4l-62 -12c-8 -2.66699 -19 -4 -33 -4c-34.667 0 -57.667 21.667 -69 65c-5.33301 22 -11 40 -17 54c-5.33301 10.667 -16 24.334 -32 41.001c-30 33.333 -45 71.333 -45 114
c0 16.667 1.33301 30.334 4 41.001c8 44 17.5 76 28.5 96s34.167 49.667 69.5 89c44.667 48.667 81.667 97.667 111 147c27.333 44 43.666 68.667 48.999 74l401 549l74 98c8 12 12 24.333 12 37c0 13.333 -5.33301 20 -16 20l-107 -12l-274 -29l-41 -16l-33 -37
c-4 -8 -15 -12 -33 -12c-36 0 -65.5 37.167 -88.5 111.5s-34.5 170.833 -34.5 289.5c0 30 4.33301 50.667 13 62c8 14 40.667 24.5 98 31.5s187 15.5 389 25.5c92.667 4 155.667 8 189 12c54 5.33301 109.667 8 167 8z" />
    <glyph glyph-name="c123" unicode="{" 
d="M1802 2953l0.000976562 -274.003h-28c-132.667 0 -225.667 -11 -279 -33c-61.333 -22 -103.333 -66.167 -126 -132.5s-34 -180.5 -34 -342.5v-483c0 -174 -17.667 -299.667 -53 -377c-20.667 -50.667 -52 -93 -94 -127
c-68.667 -51.333 -183.334 -93.666 -344.001 -126.999c172.667 -40 287.334 -79.667 344.001 -119c98 -72 147 -240 147 -504v-475c0 -136 6 -233.167 18 -291.5s34.667 -105.833 68 -142.5c30 -30 71.667 -50.5 125 -61.5s138.666 -16.5 255.999 -16.5v-270l-233 -4h-41
c-201.333 0 -355.666 25.667 -462.999 77c-94 46 -158.5 113.5 -193.5 202.5s-52.5 229.167 -52.5 420.5v492c0 234.667 -38 390 -114 466c-42 40 -94.5 67.833 -157.5 83.5s-155.5 23.5 -277.5 23.5v250c148.667 0 258 12.333 328 37
c81.333 30.667 138.5 85.834 171.5 165.501s49.5 201.834 49.5 366.501v496c0 144.667 8.16699 255.167 24.5 331.5s45.166 139.166 86.499 188.5c49.333 64.667 131.333 113.667 246 147c90 22 222.333 33 397 33h37h151h41z" />
    <glyph glyph-name="c124" unicode="|" 
d="M803 3068h463v-4092h-463v4092z" />
    <glyph glyph-name="c125" unicode="}" 
d="M250 2953l37.001 0.00195312h168c158 0 276.667 -6.5 356 -19.5s151.666 -39.167 216.999 -78.5c71.333 -39.333 124.666 -105 159.999 -197c27.333 -74.667 41 -209.667 41 -405v-496c0 -128.667 8.66699 -227.334 26 -296.001s46.666 -124.334 87.999 -167.001
c40 -40 91.5 -67.667 154.5 -83s156.5 -23 280.5 -23v-250c-150 0 -260.667 -13.667 -332 -41c-78.667 -29.333 -134.5 -84.333 -167.5 -165s-49.5 -203 -49.5 -367v-492c0 -183.333 -14.167 -316.666 -42.5 -399.999s-82.5 -149.333 -162.5 -198
c-52 -37.333 -124.333 -64.666 -217 -81.999c-69.333 -10.667 -170.333 -16 -303 -16h-53h-156h-45v270c146.667 0 250.334 11 311.001 33c60 23.333 101 68.666 123 135.999s33 181.666 33 342.999v475c0 176 16.333 300.333 49 373
c29.333 63.333 69.333 112.833 120 148.5s129.334 70.834 236.001 105.501c-120 37.333 -207.333 79.666 -262 126.999c-55.333 49.333 -93 109 -113 179s-30 177 -30 321v483c0 230.667 -30 374 -90 430c-30 30 -68.833 50.5 -116.5 61.5s-123.5 16.5 -227.5 16.5h-33v274z
" />
    <glyph glyph-name="c126" unicode="~" horiz-adv-x="2167" 
d="M2068 2810l0.00195312 -479c-122.667 -104.667 -223.334 -176.667 -302.001 -216s-160.667 -59 -246 -59c-61.333 0 -121.833 9.16699 -181.5 27.5s-145.5 54.166 -257.5 107.5c-175.333 82 -311.666 123 -408.999 123c-86.667 0 -169 -21.167 -247 -63.5
s-187 -124.833 -327 -247.5v479c73.333 61.333 141.666 113.333 204.999 156c122.667 87.333 247 131 373 131c104.667 0 242.667 -39.667 414 -119c124 -58.667 214.167 -97.167 270.5 -115.5s112.166 -27.5 167.499 -27.5c82.667 0 161.167 20.833 235.5 62.5
s175.833 121.834 304.5 240.5z" />
    <glyph glyph-name="c160" unicode="&#xa0;" horiz-adv-x="1024" 
 />
    <glyph glyph-name="c162" unicode="&#xa2;" horiz-adv-x="1671" 
d="M852 -193l-201.003 40.998c-60 14.667 -90 96.667 -90 246c0 34 4 69.667 12 107v28c0 18 -19 36 -57 54c-104.667 48 -187 101.167 -247 159.5s-102.833 127.5 -128.5 207.5s-38.5 180 -38.5 300c0 214.667 45.333 449.667 136 705c86 246 174.667 423.333 266 532
c26 28.667 60 46.667 102 54c41.333 4 67.333 11.833 78 23.5s16 37.834 16 78.5c0 30 -1.33301 53.333 -4 70c0 6.66699 -0.666992 17.667 -2 33s-2 26 -2 32c0 122.667 90.333 184 271 184c63.333 0 104.333 -10.333 123 -31s28 -67.667 28 -141
c0 -35.333 -1.33301 -61 -4 -77c-2.66699 -33.333 -4 -82.666 -4 -148c0 -36.667 2 -60.667 6 -72s14.333 -21.333 31 -30l53 -25c14.667 -8 47.334 -23 98.001 -45c42.667 -16 73 -31.5 91 -46.5s33 -37.833 45 -68.5c30 -66 45 -124.667 45 -176
c0 -2 -0.833008 -4.16699 -2.5 -6.5s-2.5 -4.16602 -2.5 -5.49902l-12 -86l8 -168v-12c0 -54 -16.333 -102.333 -49 -145s-69.334 -64 -110.001 -64c-0.666992 0 -2.66699 0.666992 -6 2s-5.66602 2 -6.99902 2l-57 24c-13.333 6 -65.333 9 -156 9h-12
c-39.333 0 -71.666 28.833 -96.999 86.5s-38 132.5 -38 224.5v12l4 119c0 30 -6.66699 45 -20 45c-8 0 -16.333 -6.66699 -25 -20c-45.333 -70 -87.166 -163.833 -125.499 -281.5s-68.666 -243.667 -90.999 -378s-33.5 -262.833 -33.5 -385.5c0 -158 30 -237 90 -237
c28 0 62.333 13.667 103 41c33.333 20.667 59 42.334 77 65.001c48.667 56.667 98 148.334 148 275.001c20 61.333 40.333 109 61 143c13.333 21.333 28.166 34.166 44.499 38.499s57.5 6.5 123.5 6.5c48 0 100 -24.667 156 -74c76.667 -62.667 115 -120 115 -172
c0 -24 -13.667 -70.333 -41 -139c-46.667 -110.667 -87.667 -191.334 -123 -242.001c-64.667 -90 -167 -163.667 -307 -221c-34 -16 -55.5 -33.5 -64.5 -52.5s-13.5 -60.167 -13.5 -123.5c0 -25.333 2.66699 -59.333 8 -102c5.33301 -49.333 8 -83.666 8 -102.999
c0 -44 -4 -73.333 -12 -88s-24.333 -22 -49 -22c-14 0 -23.667 1.33301 -29 4z" />
    <glyph glyph-name="c163" unicode="&#xa3;" horiz-adv-x="2023" 
d="M512 1425l-3.99512 91.002c0 16.667 -0.666992 40 -2 70s-2 51.667 -2 65c0 211.333 56 390 168 536c66.667 98 159.334 188.333 278.001 271c86.667 57.333 144 86 172 86c1.33301 0 2.66602 -0.666992 3.99902 -2s2.66602 -2 3.99902 -2l123 -33l275 -66
c172 -36.667 258 -210 258 -520c0 -94 -17.667 -159.833 -53 -197.5s-97 -56.5 -185 -56.5c-71.333 0 -127.333 25.333 -168 76s-61 119.667 -61 207v94v29c0 40.667 -9.66699 61 -29 61c-37.333 0 -75.333 -39.667 -114 -119c-40 -78.667 -73.333 -165.334 -100 -260.001
s-40 -173 -40 -235v-33v-29h25l127 4c90 0 157 -2.66699 201 -8l118 -12c59.333 -6 101.5 -16.667 126.5 -32s44.5 -41.666 58.5 -78.999c38 -92.667 57 -173 57 -241c0 -28 -11 -47.333 -33 -58c-36 -18.667 -76.5 -30.334 -121.5 -35.001s-151.833 -8 -320.5 -10h-176
c-23.333 -2 -38.166 -5.33301 -44.499 -10s-9.5 -16.334 -9.5 -35.001c0 -10.667 1.66699 -34 5 -70c2.66699 -24 4 -55.333 4 -94c0 -52 -9.5 -105.167 -28.5 -159.5s-41.167 -91.166 -66.5 -110.499l-53 -45l-37 -29.5c-8.66699 -7 -14 -10.833 -16 -11.5
c-2.66699 -2.66699 -6.66699 -5.33398 -12 -8.00098c0 -14 57.333 -21 172 -21c16.667 0 44.667 0.666992 84 2s70 2 92 2l418 17c21.333 0 43 0.666992 65 2l33 2h57c76 0 128 -19.333 156 -58c17.333 -26 35 -69.667 53 -131c16.667 -64 25 -102 25 -114
c0 -32 -8.83301 -54.667 -26.5 -68s-55.834 -22.833 -114.501 -28.5s-156.334 -10.5 -293.001 -14.5c-338.667 -10.667 -511 -16 -517 -16c-196.667 -4 -326.334 -8.33301 -389.001 -13c-102 -8 -181 -12 -237 -12c-35.333 0 -86 4 -152 12
c-48.667 8.66699 -84 19.667 -106 33c-66 42 -99 124 -99 246c0 66 14.667 113.667 44 143s85.666 54 168.999 74c107.333 25.333 180.666 64 219.999 116s59 137.667 59 257v20v111l-4 45l-62 -4c-60.667 -8 -109.667 -12 -147 -12c-119.333 0 -190.333 15 -213 45
c-20 24.667 -35 49 -45 73c-35.333 88 -53 149.667 -53 185c0 15.333 6.66699 30.333 20 45c24.667 18.667 53.667 31.5 87 38.5s100 14.5 200 22.5l151 12h25z" />
    <glyph glyph-name="c164" unicode="&#xa4;" horiz-adv-x="2482" 
d="M336 2859l404.998 -405c57.333 34.667 110.666 64.667 159.999 90c105.333 46 218.666 69 339.999 69c44 0 101.333 -5.33301 172 -16c98.667 -20.667 209.334 -68.334 332.001 -143.001l405 405l189 -184l-410 -410c34 -55.333 62.667 -107.333 86 -156
c46.667 -93.333 70 -206.666 70 -339.999c0 -65.333 -5.66699 -121 -17 -167c-16.667 -94 -63 -203.333 -139 -328l410 -410l-189 -184l-405 410c-55.333 -34.667 -108.666 -65 -159.999 -91c-101.333 -48.667 -216 -73 -344 -73c-41.333 0 -97.333 5.33301 -168 16
c-61.333 13.333 -113.166 29.333 -155.499 48s-101.166 52 -176.499 100l-405 -410l-184 184l405 410c-52 90.667 -80.667 144 -86 160c-46.667 93.333 -70 205 -70 335c0 62 5.66699 118 17 168c16.667 94 63 203.333 139 328l-405 410zM1237 2351
c-100 0 -193.834 -27.001 -281.501 -81.001s-158.167 -126.333 -211.5 -217s-80 -186.667 -80 -288c0 -102 26.5 -197 79.5 -285s124.167 -158 213.5 -210s185.333 -78 288 -78c103.333 0 199.833 26.5 289.5 79.5s160.834 123.5 213.501 211.5s79 183.333 79 286
c0 160.667 -57.667 297.834 -173 411.501s-254.333 170.5 -417 170.5z" />
    <glyph glyph-name="c165" unicode="&#xa5;" horiz-adv-x="1954" 
d="M561 1098c-22.667 76 -37.6709 130.664 -45.0039 163.997c-24 100.667 -55.333 151 -94 151l-324 8c-30 0 -45 30 -45 90c0 30 4.16699 49.833 12.5 59.5s24.833 14.5 49.5 14.5c30 0 60 -1.33301 90 -4h135c8 2.66699 27 4 57 4l-53 131
c-60.667 155.333 -110 297.333 -148 426s-57 216 -57 262c0 8.66699 2.66699 21 8 37l17 41l4 33l29 16c15.333 8.66699 31.666 13 48.999 13c9.33301 0 24.333 -7 45 -21c22 -13.333 39.667 -20 53 -20l49 -4c30.667 -6 70.334 -43 119.001 -111
c82 -106 192.667 -364 332 -774l65 -189h70c52.667 174 98.834 318.667 138.501 434s79.167 217.5 118.5 306.5s87.333 187.833 144 296.5c69.333 136.667 109 217 119 241c35.333 82 71 123 107 123c18 0 63 -19 135 -57c103.333 -58 155 -114 155 -168
c0 -36 -16.333 -86.667 -49 -152c-6 -14 -16.167 -36.333 -30.5 -67l-47.5 -105c-83.333 -185.333 -136.333 -308 -159 -368l-131 -328h69h246h41h4c24.667 0 37 -16.333 37 -49c0 -46.667 -2.83301 -75.667 -8.5 -87s-21.834 -19.333 -48.501 -24
c-2.66699 -0.666992 -9 -1.83398 -19 -3.50098s-17.333 -3.16699 -22 -4.5h-172h-25h-49l-45 4h-8c-44.667 0 -80.334 -30 -107.001 -90l-34.5 -81.5c-19.667 -46.333 -29.834 -71.166 -30.501 -74.499c-12.667 -19.333 -21 -35.666 -25 -48.999v-4
c0 -13.333 17.667 -20 53 -20c60 0 108 -1.33301 144 -4c40.667 -2.66699 99.334 -4 176.001 -4c48.667 0 97.667 2.66699 147 8c8.66699 2.66699 18.334 4 29.001 4c24.667 0 37 -30 37 -90c0 -36.667 -7.16699 -60.167 -21.5 -70.5s-48.166 -15.5 -101.499 -15.5l-422 4
h-8c-44 0 -76.667 -2.66699 -98 -8c-15.333 -6.66699 -27.666 -39.667 -36.999 -99l-17 -114c-11.333 -78.667 -23.666 -212.667 -36.999 -402c-2.66699 -60 -4 -116 -4 -168v-53v-41c0 -100.667 -26 -151 -78 -151c-34 0 -98 12 -192 36l-107 29
c-42.667 12.667 -71.667 31.334 -87 56.001s-23 64.667 -23 120c0 24.667 2.66699 67 8 127c14 86 21 147.333 21 184l8 189v160c0 98 -64.333 147 -193 147c-90 0 -166.333 -2.66699 -229 -8c-41.333 -2.66699 -77 -4 -107 -4c-32.667 0 -54.5 5.33301 -65.5 16
s-16.5 31.334 -16.5 62.001c0 36.667 8.33301 62.167 25 76.5s46.667 21.5 90 21.5h25c-1.33301 0 87.334 -2.66699 266.001 -8h94z" />
    <glyph glyph-name="c166" unicode="&#xa6;" horiz-adv-x="4096" 
d="M0 807v266h4096v-266h-4096z" />
    <glyph glyph-name="c167" unicode="&#xa7;" 
d="M430 1839c-3.33301 7.33301 -7.33203 14.999 -11.999 22.999s-7.33398 12.667 -8.00098 14c-60.667 104.667 -99.834 181.667 -117.501 231.001c-17.667 49.333 -26.5 107.333 -26.5 174c0 120.667 32.833 225.834 98.5 315.5c65.667 89.667 159.667 158.5 282 206.5
s265.833 72 430.5 72c222 0 417.333 -46.333 586 -139c60 -32.667 90 -68 90 -106c0 -2.66699 -1.33301 -5.66699 -4 -9l-25 -73l-69 -209c-9.33301 -25.333 -34 -50 -74 -74c-21.333 -10.667 -40.333 -16 -57 -16c-45.333 0 -101.333 21.667 -168 65l-99 66
c-75.333 54.667 -153 82 -233 82c-60 0 -107.833 -17.5 -143.5 -52.5s-53.5 -80.5 -53.5 -136.5c0 -48.667 15.333 -94.834 46 -138.501s70 -75.167 118 -94.5l606 -238c36 -14.667 77.5 -41 124.5 -79s87.5 -78.333 121.5 -121c74 -90.667 111 -197.334 111 -320.001
c0 -80 -9.5 -148.333 -28.5 -205s-52.333 -111.334 -100 -164.001s-116.834 -114 -207.501 -184c18.667 -22.667 32.334 -40.334 41.001 -53.001c5.33301 -7.33301 25.833 -34 61.5 -80s54.834 -71.333 57.501 -76c65.333 -92 98 -206.667 98 -344
c0 -110 -23.333 -213.667 -70 -311c-43.333 -87.333 -99.333 -161 -168 -221c-83.333 -77.333 -175.833 -132.166 -277.5 -164.499s-232.834 -48.5 -393.501 -48.5c-252.667 0 -468.667 86 -648 258c-63.333 62.667 -116.666 126.834 -159.999 192.501
s-65 116.167 -65 151.5c0 51.333 46.333 103 139 155c106 60.667 186.667 91 242 91c30 0 67 -30.333 111 -91c82 -116 156 -198.167 222 -246.5s136.667 -72.5 212 -72.5c53.333 0 104.833 13.333 154.5 40s89.5 61.334 119.5 104.001s45 87.334 45 134.001
c0 88.667 -42.167 169 -126.5 241s-219.5 143.333 -405.5 214c-240.667 92 -413.5 191.167 -518.5 297.5s-157.5 235.166 -157.5 386.499c0 86.667 20.5 176.334 61.5 269.001s94.167 165.667 159.5 219l62 49zM1204 925.999c59.333 40.667 107 89.832 143 147.499
s54 113.5 54 167.5c0 52 -15.333 96 -46 132s-87.167 72.333 -169.5 109s-198.833 79.334 -349.5 128.001c-72.667 -87.333 -118 -149 -136 -185c-16 -28 -24 -63.333 -24 -106c0 -84 38.333 -148.333 115 -193c40 -28 105.333 -64.667 196 -110
c74.667 -40.667 147 -70.667 217 -90z" />
    <glyph glyph-name="c168" unicode="&#xa8;" horiz-adv-x="1790" 
d="M479 -41l-191.997 89.999c-41.333 18.667 -62 124 -62 316c0 64.667 2.66699 198.334 8 401.001c27.333 748 41 1249 41 1503c0 106.667 -1.33301 181.667 -4 225c-2.66699 30.667 -4 67.667 -4 111c0 54.667 10.833 99.667 32.5 135s49.167 53 82.5 53
c2 0 6.66699 -0.666992 14 -2s13.666 -2 18.999 -2l118 -24c24.667 -5.33301 59 -8 103 -8c42 0 98 4 168 12l532 65h13c34.667 0 70 -21.667 106 -65c79.333 -91.333 119 -206 119 -344c0 -29.333 -5.66699 -51.333 -17 -66
c-2.66699 -5.33301 -9.33398 -10.666 -20.001 -15.999c-14 -10.667 -29 -16 -45 -16c-9.33301 -4 -121.333 -19.333 -336 -46l-205 -24l-53 -8c-4.66699 -82 -8.66699 -139.333 -12 -172c-8.66699 -97.333 -13 -179.333 -13 -246c0 -53.333 2.83301 -85.833 8.5 -97.5
s20.834 -17.5 45.501 -17.5c17.333 0 59.666 4.33301 126.999 13l221 24c54.667 5.33301 88.667 8 102 8c124.667 0 193 -90 205 -270c5.33301 -88 8 -126.333 8 -115c2.66699 -13.333 4 -32.333 4 -57c0 -34.667 -4.33301 -58 -13 -70s-27.334 -20 -56.001 -24l-172 -17
c-18 0 -147.667 -15 -389 -45c-22 0 -57.667 -4 -107 -12v-111l-4 -446c0 -57.333 17.667 -86 53 -86c10.667 0 38 2.66699 82 8c168 30.667 306 49.667 414 57h16c29.333 0 55.333 -9.33301 78 -28c38 -26.667 69.333 -58.167 94 -94.5s37 -69.166 37 -98.499
c0 -16 -1.33301 -33.667 -4 -53c-2.66699 -16.667 -4 -45.334 -4 -86.001c0 -44 1.33301 -71.333 4 -82c5.33301 -26.667 8 -44.334 8 -53.001c0 -14 -12.333 -27.667 -37 -41l-278 -33l-344 -49l-135 -12c-153.333 -16.667 -241 -25 -263 -25c-16.667 0 -31.667 4 -45 12z
M254.003 3080c0 80 25.1689 151.167 75.502 213.5s107.166 93.5 170.499 93.5c48 0 93 -19 135 -57c84.667 -80 127 -148.333 127 -205s-23.333 -109 -70 -157s-98.334 -72 -155.001 -72c-71.333 0 -136.333 19 -195 57s-88 80.333 -88 127zM934.005 3080
c0 82 24.668 153.667 74.001 215s106.666 92 171.999 92c52 0 98.333 -20.333 139 -61c79.333 -84 119 -151 119 -201c0 -59.333 -23 -112.333 -69 -159s-98.333 -70 -157 -70c-70.667 0 -134.667 19 -192 57s-86 80.333 -86 127z" />
    <glyph glyph-name="c169" unicode="&#xa9;" horiz-adv-x="3924" 
d="M3432 1458c0 -279.333 -65.665 -535.33 -196.998 -767.997s-310.833 -415.334 -538.5 -548.001s-477.834 -199 -750.501 -199c-268.667 0 -516.834 66 -744.501 198s-407.667 312.333 -540 541s-198.5 478 -198.5 748s65.5 518.833 196.5 746.5s310 407.167 537 538.5
s476.833 197 749.5 197c264.667 0 511.334 -65.833 740 -197.5c228.667 -131.667 410.167 -308.834 544.5 -531.501s201.5 -464.334 201.5 -725.001zM1921 168.003c230.667 0 442.502 55.499 635.502 166.499s344.833 263 455.5 456s166 406.167 166 639.5
c0 172 -31.667 334.5 -95 487.5s-151.333 287.167 -264 402.5s-244.334 205.333 -395.001 270s-310 97 -478 97c-223.333 0 -430 -56.167 -620 -168.5s-340.333 -265.166 -451 -458.499s-166 -403.333 -166 -630c0 -225.333 55 -435 165 -629s258.167 -348 444.5 -462
s387.166 -171 602.499 -171zM1839 1769c-49.333 -216.667 -74 -422.668 -74 -618.001c0 -150.667 12.5 -269.5 37.5 -356.5s59.167 -130.5 102.5 -130.5c45.333 0 90 38 134 114s73 166.333 87 271c11.333 70.667 25 117 41 139c32.667 43.333 66.667 65 102 65
c39.333 0 73.166 -17.667 101.5 -53c28.333 -35.333 42.5 -77.666 42.5 -126.999c0 -114 -19.833 -218.833 -59.5 -314.5s-94.167 -171.667 -163.5 -228s-144 -84.5 -224 -84.5s-159.833 19 -239.5 57s-139.167 86 -178.5 144c-78.667 120 -118 305.667 -118 557
c0 211.333 23.333 410 70 596s109.167 334.667 187.5 446s161.5 167 249.5 167c74.667 0 169 -45.333 283 -136c61.333 -46.667 104 -99.834 128 -159.5c24 -59.667 36 -140.167 36 -241.5c0 -92 -11.5 -155.333 -34.5 -190s-66.167 -52 -129.5 -52
c-33.333 0 -64.666 9.66699 -94 29c-27.333 20 -47 48 -59 84s-21 96.667 -27 182c-10 117.333 -34.667 176 -74 176c-36 0 -64.667 -46.333 -86 -139z" />
    <glyph glyph-name="c170" unicode="&#xaa;" horiz-adv-x="2241" 
d="M1049 2867c-16.667 -16 -41.3359 -24 -74.0029 -24c-45.333 0 -105.333 23 -180 69c-191.333 122 -341.666 198.667 -450.999 230c-54.667 15.333 -82 46.666 -82 94c0 27.333 12.333 53.333 37 78c18 25.333 45.333 45.666 82 61c140.667 52 233.334 78 278.001 78
c38.667 0 93.334 -37 164.001 -111c96 -92 160.333 -150.667 193 -176l102 -78c54.667 -42.667 82 -75.334 82 -98c0 -21.333 -27.333 -43 -82 -65c-16 -9.33301 -28.333 -17.666 -37 -25zM675.998 2626l90 -13.002c37.333 -6 62.333 -16.5 75 -31.5s19 -39.833 19 -74.5
v-291c0 -71.333 -4 -156 -12 -254c-27.333 -416.667 -41 -721 -41 -913c0 -442.667 82 -664 246 -664c61.333 0 120 37 176 111c38 50.667 61 106.667 69 168c12.667 54.667 21 131 25 229c13.333 204.667 20 309.667 20 315l-8 992c0 13.333 -2.66699 107.333 -8 282
c-2.66699 35.333 -4 86 -4 152c0 100.667 8.16699 159.167 24.5 175.5s61.5 24.5 135.5 24.5c140.667 0 264.667 -16.333 372 -49c54 -16 87.333 -35.667 100 -59s19 -77.333 19 -162c0 -9.33301 -0.666992 -23.666 -2 -42.999s-2 -35 -2 -47
c-10.667 -336 -16 -826 -16 -1470l8 -455l20 -332l37 -164c6 -13.333 9 -35 9 -65c0 -24.667 -5.33301 -40.5 -16 -47.5s-35.667 -10.5 -75 -10.5h-32c-60 0 -139.333 -5.33301 -238 -16c-38.667 -5.33301 -64.667 -8 -78 -8c-53.333 0 -91.166 15.833 -113.499 47.5
s-43.166 99.167 -62.499 202.5c-2 12 -4.5 25.333 -7.5 40l-12.5 62c-109.333 -127.333 -209 -205 -299 -233c-80.667 -27.333 -176.334 -41 -287.001 -41c-118 0 -209.833 14.167 -275.5 42.5s-119.834 76.833 -162.501 145.5c-54.667 85.333 -97.667 196.5 -129 333.5
s-47 283.833 -47 440.5c0 -13.333 2.66699 187.334 8 602.001l12 504c3.33301 228.667 14.333 413 33 553c6 41.333 21.333 70.833 46 88.5s62.667 26.5 114 26.5c16 0 28 -1.33301 36 -4c84 -8.66699 140 -22.334 168 -41z" />
    <glyph glyph-name="c171" unicode="&#xab;" horiz-adv-x="1761" 
d="M750 475l102.001 -183.998c22 -32.667 33 -57.334 33 -74.001c0 -20.667 -35.667 -50.667 -107 -90c-40.667 -24.667 -88.334 -37 -143.001 -37c-56.667 0 -107.334 23.667 -152.001 71s-102 139.666 -172 276.999l-36.5 71.5l-36.5 68.5c-109.333 200 -164 320 -164 360
c0 56 75 210.333 225 463c50.667 86 80.667 139.333 90 160c46.667 94.667 77.167 152.334 91.5 173.001s31.5 31 51.5 31h37l131 -12c56 -4 100.833 -15.333 134.5 -34s50.5 -41.334 50.5 -68.001c0 -25.333 -23.333 -70.333 -70 -135
c-27.333 -38 -80.666 -128.333 -159.999 -271l-163 -291v-12c0 -16 16.333 -51.333 49 -106l45 -82zM1495 475.002l102.001 -183.997c22 -32.667 33 -57.334 33 -74.001c0 -20 -35.333 -50 -106 -90c-40.667 -24.667 -88.667 -37 -144 -37
c-56.667 0 -107.167 23.667 -151.5 71s-101.5 139.666 -171.5 276.999l-74 140c-109.333 200 -164 320 -164 360c0 56 75 210.333 225 463c51.333 86.667 81.666 140 90.999 160c46 94 76.167 151.5 90.5 172.5s31.833 31.5 52.5 31.5h37l131 -12
c55.333 -4 99.833 -15.333 133.5 -34s50.5 -41.334 50.5 -68.001c0 -26 -23 -71 -69 -135c-24.667 -32 -78 -122.333 -160 -271l-164 -291v-12c0 -16 16.333 -51.333 49 -106l45 -82z" />
    <glyph glyph-name="c172" unicode="&#xac;" horiz-adv-x="1905" 
d="M102 922v421h1684v-937h-406v516h-1278z" />
    <glyph glyph-name="c173" unicode="&#xad;" 
d="M0 807v266h2048v-266h-2048z" />
    <glyph glyph-name="c174" unicode="&#xae;" horiz-adv-x="3924" 
d="M463 1401c0 211.333 37 408.835 111 592.502s178.333 344.5 313 482.5s293 245.167 475 321.5s376.667 114.5 584 114.5c271.333 0 520.833 -65.833 748.5 -197.5s407.5 -311.334 539.5 -539.001s198 -476.167 198 -745.5c0 -203.333 -38 -395.5 -114 -576.5
s-182.333 -339.833 -319 -476.5s-295.5 -243.167 -476.5 -319.5s-373.167 -114.5 -576.5 -114.5c-264.667 0 -511 66 -739 198s-409 310.167 -543 534.5s-201 466.166 -201 725.499zM1966 2687c-174 0 -337.333 -31.834 -490 -95.501s-286.667 -153.167 -402 -268.5
s-205 -250 -269 -404s-96 -317 -96 -489c0 -229.333 54.833 -440.666 164.5 -633.999s259.667 -346.333 450 -459s397.833 -169 622.5 -169c168 0 327.167 32.167 477.5 96.5s282.333 154.833 396 271.5s201.834 251.5 264.5 404.5c62.667 153 94 316.167 94 489.5
c0 222.667 -54.833 430.667 -164.5 624s-257.834 347.166 -444.5 461.5c-186.667 114.333 -387.667 171.5 -603 171.5zM1901 2343l94 11.999h28c70.667 0 142.667 -20 216 -60s129.666 -89.667 169 -149c79.333 -115.333 119 -213.666 119 -294.999
c0 -93.333 -37.333 -191.5 -112 -294.5s-172.334 -190.5 -293 -262.5c-27.333 -18.667 -41 -31 -41 -37c0 -8 2.66699 -16 8 -24c2.66699 -5.33301 6.66699 -12.333 12 -21c4 -12 30 -51.333 78 -118c24.667 -34.667 74 -108.667 148 -222
c53.333 -84 95.666 -146.667 127 -188c35.333 -54 53 -89.333 53 -106c0 -10 -8.33301 -21 -25 -33c-25.333 -30 -41.666 -53.333 -49 -70c-6.66699 -19.333 -15 -29 -25 -29c-14 0 -41 5.66699 -81 17c-73.333 26.667 -201.666 178.334 -384.999 455.001
c-116.667 180 -187.667 270 -213 270c-6 0 -9 -4 -9 -12v-54c-2.66699 -30 -4 -105 -4 -225c2.66699 -57.333 4 -143.333 4 -258c0 -72.667 -3 -121.5 -9 -146.5s-19.333 -37.5 -40 -37.5c-8 2 -17.5 4.16699 -28.5 6.5s-19.167 4.16602 -24.5 5.49902
c-7.33301 3.33301 -17 7.33301 -29 12s-18.667 7.33398 -20 8.00098l-66 13c-30.667 6 -50.5 29 -59.5 69s-13.5 124.667 -13.5 254v21l8 1048v99l12 184c3.33301 66.667 10 103.667 20 111c0 3.33301 5.66699 8.66602 17 15.999l49 37h12c13.333 0 28.333 -7 45 -21
c33.333 -16 56.666 -24 69.999 -24c18 0 37 6.66699 57 20c12.667 6.66699 34.667 13.667 66 21zM1729 1532l-0.00195312 -44.999c0 -27.333 8 -41 24 -41c11.333 0 21 4 29 12l73 37c104.667 57.333 192.334 131 263.001 221s106 174.667 106 254
c0 37.333 -12 63.833 -36 79.5s-65.333 23.5 -124 23.5c-93.333 0 -184.666 -16.667 -273.999 -50c-12.667 -4 -25 -12 -37 -24c-5.33301 -10.667 -8 -19 -8 -25c-2.66699 -2.66699 -4 -42.334 -4 -119.001z" />
    <glyph glyph-name="c176" unicode="&#xb0;" horiz-adv-x="1389" 
d="M528 2720c38.667 32.667 64.6641 49 77.9971 49c0.666992 0 11.667 -2.66699 33 -8c12.667 -8 22.334 -13.333 29.001 -16s10.667 -4.33398 12 -5c1.33301 0 60 -13.667 176 -41c110.667 -26 201.834 -96.333 273.501 -211s107.5 -247.667 107.5 -399
c0 -150 -50.667 -311 -152 -483c-118.667 -202 -255 -303 -409 -303c-92 0 -178.333 30 -259 90s-145 139.833 -193 239.5s-72 205.5 -72 317.5c0 66 12.333 142.5 37 229.5s56.834 169 96.501 246s81.167 136.833 124.5 179.5zM638.997 1606c24 0 47.333 13.665 70 40.998
c48 48 88.667 123.333 122 226s50 203.334 50 302.001c0 68 -13.167 128 -39.5 180s-55.5 78 -87.5 78c-46.667 0 -98.667 -56 -156 -168c-60 -119.333 -90 -236.666 -90 -351.999c0 -80.667 13.167 -152 39.5 -214s56.833 -93 91.5 -93z" />
    <glyph glyph-name="c177" unicode="&#xb1;" horiz-adv-x="1495" 
d="M1339 66h-1200v311h1200v-311zM557 1688h365v-431h417v-311h-417v-434h-365v434h-418v311h418v431z" />
    <glyph glyph-name="c178" unicode="&#xb2;" horiz-adv-x="1577" 
d="M1405 1835v-340l-868 -365l868 -368v-332l-1253 545v311zM152 254h1253v-311h-1253v311z" />
    <glyph glyph-name="c179" unicode="&#xb3;" horiz-adv-x="1536" 
d="M160 1495v340l1253 -549v-311l-1253 -545v332l868 368zM160 254h1253v-311h-1253v311z" />
    <glyph glyph-name="c180" unicode="&#xb4;" horiz-adv-x="1323" 
d="M725 2335c-69.333 -26 -118.332 -45.333 -146.999 -58c-74.667 -32.667 -120 -49 -136 -49c-13.333 0 -22.666 1.33301 -27.999 4c-41.333 19.333 -77 46.666 -107 82c-30 35.333 -45 66.666 -45 94c0 11.333 2.66699 25 8 41c14.667 23.333 68 50.666 160 82
c42 16 107.667 55.667 197 119c127.333 92.667 214.666 139 261.999 139c34.667 0 83.667 -30 147 -90c57.333 -52.667 86 -103 86 -151c0 -8.66699 -2.66699 -21 -8 -37c-12 -21.333 -23 -35 -33 -41c-10.667 -2.66699 -24.334 -8 -41.001 -16z" />
    <glyph glyph-name="c182" unicode="&#xb6;" 
d="M1937 2957l-0.000976562 -195.999h-233v-2761h-258v2761h-336v-2761h-262v1569c-121.333 10 -214.166 25.333 -278.499 46s-129.833 55.667 -196.5 105c-92.667 70.667 -159.5 148.167 -200.5 232.5s-61.5 187.166 -61.5 308.499c0 136.667 32.5 257.834 97.5 363.5
c65 105.667 157.167 187.5 276.5 245.5s255.333 87 408 87h1044z" />
    <glyph glyph-name="c183" unicode="&#xb7;" horiz-adv-x="1839" 
d="M492 2818l52.999 49l16 4h21c91.333 -6 172.166 -24.833 242.499 -56.5s105.5 -64.5 105.5 -98.5c0 -6 -2.66699 -19.667 -8 -41c-79.333 -208 -158.666 -399.5 -237.999 -574.5s-138 -288.167 -176 -339.5c-24 -35.333 -50 -53 -78 -53c-93.333 0 -168.333 22 -225 66
c-17.333 13.333 -36.666 35 -57.999 65c-10.667 16.667 -16 30.334 -16 41.001c0 16 8.33301 42 25 78c9.33301 27.333 28.333 98.333 57 212.999l119 442c21.333 76.667 37.5 125.334 48.5 146c11 20.667 28.833 35 53.5 43zM1262 2793l52.999 46l16 8l21 -4
c89.333 -4 169.666 -21.667 240.999 -53s107 -65.666 107 -102.999c0 -14 -2.66699 -26.333 -8 -37c-190 -500.667 -326.667 -806.334 -410 -917.001c-31.333 -36 -58.666 -54 -81.999 -54c-89.333 0 -163 22 -221 66c-23.333 14.667 -43.666 38 -60.999 70
c-9.33301 16.667 -15 26 -17 28v8c0 19.333 8.33301 45.333 25 78c2.66699 6 8.16699 24.333 16.5 55l44.5 158l119 447c21.333 77.333 37 125.333 47 144s28.333 32 55 40z" />
    <glyph glyph-name="c184" unicode="&#xb8;" horiz-adv-x="1589" 
d="M152 2425c0 10 3.99902 29 11.999 57l37 111c33.333 98 113.666 147 240.999 147c60.667 0 115.334 -20.333 164.001 -61c82 -77.333 123 -145.666 123 -205c0 -32.667 -15 -75 -45 -127c-30 -53.333 -61 -89.166 -93 -107.5c-32 -18.333 -78.667 -27.5 -140 -27.5
c-163.333 0 -257.666 54.667 -282.999 164zM1409 2519c19.333 -30.667 29 -55.334 29 -74c0 -65.333 -25.333 -119.833 -76 -163.5s-112.667 -65.5 -186 -65.5c-40 0 -74.5 7.33301 -103.5 22s-67.167 44.334 -114.5 89c-38 34 -57 66.667 -57 98
c0 87.333 25.667 161.666 77 223c51.333 61.333 113 92 185 92c79.333 0 131.333 -21.667 156 -65zM917.999 1851l159.001 -15.9971c41.333 -4 85.833 -22.5 133.5 -55.5s86.5 -71.833 116.5 -116.5c68.667 -108.667 103 -313.334 103 -614.001
c0 -104.667 -4.33301 -166.334 -13 -185.001c-10 -13.333 -56.333 -20 -139 -20h-78c-88.667 0 -215.667 -20.667 -381 -62c-32.667 -10.667 -83 -24.334 -151 -41.001c-6 -2.66699 -14.333 -6.66699 -25 -12c-22 -16.667 -33 -64.334 -33 -143.001
c0 -134 35.667 -201 107 -201c115.333 0 221.666 64.333 318.999 193l90 118c23.333 27.333 46.666 41 69.999 41c86.667 0 157.5 -13.667 212.5 -41s82.5 -62.666 82.5 -105.999v-4l-12 -33c0 -1.33301 -0.666992 -3.66602 -2 -6.99902s-2 -6.33301 -2 -9
c0 -2 0.666992 -5.33301 2 -10s2 -8.33398 2 -11.001c2.66699 -8 4 -16 4 -24c0 -24.667 -27.333 -83.667 -82 -177c-49.333 -70.667 -87.666 -122.334 -114.999 -155.001c-64.667 -74 -128.167 -125.333 -190.5 -154s-143.5 -43 -243.5 -43c-182.667 0 -367 67 -553 201
c-67.333 50 -115 106 -143 168c-36 96.667 -54 218 -54 364c0 112 18.5 255.5 55.5 430.5s82.833 331.833 137.5 470.5c60.667 152.667 127.667 244.334 201 275.001c36 16 98.667 24 188 24c21.333 0 46 -2.66699 74 -8zM700 1212c0 -4.66699 -0.666992 -9 -2 -13
s-2 -6.33301 -2 -7c0 2 -2.66699 -13 -8 -45v-12c0 -14 8.33301 -21 25 -21s63 11 139 33c36.667 8 58.834 16.5 66.501 25.5s11.5 29.167 11.5 60.5c0 221.333 -23.333 332 -70 332c-32.667 0 -65.334 -52 -98.001 -156z" />
    <glyph glyph-name="c185" unicode="&#xb9;" horiz-adv-x="4096" 
d="M250 2404l0.00195312 201.006c4 101.333 28.667 152 74 152c5.33301 0 13.333 -0.666992 24 -2s19 -2 25 -2l364 -50c137.333 -16 216.666 -29.667 237.999 -41c12.667 -4 30.334 -20.333 53.001 -49c47.333 -75.333 84.333 -153 111 -233l413 -1233l95 -287
c4 -12 13.333 -43.167 28 -93.5l37 -127.5l12 4l-12 164l-16 467l-58 1278v164c0 111.333 9.66699 176.666 29 196c3.33301 3.33301 14.333 7.66602 33 12.999c32 10.667 58 16 78 16c4 0 9 -0.666992 15 -2s10.333 -2 13 -2l172 -21c110 -14 182.333 -26.333 217 -37
c24.667 -9.33301 37 -31 37 -65v-61l4 -336l-16 -1643l4 -676c0 -46 -10.167 -78.667 -30.5 -98s-55.166 -29 -104.499 -29c-44 0 -83.667 4.33301 -119 13c-63.333 13.333 -105.666 20 -126.999 20l-106 -8c-11.333 -2.66699 -30.666 -4 -57.999 -4
c-104.667 0 -181.334 20.167 -230.001 60.5s-94.667 121.166 -138 242.499l-447 1290l-69 213l-33 98l-17 5c6 -84 9 -134.667 9 -152c21.333 -278.667 33.666 -433 36.999 -463l49 -1065l12 -155v-17c0 -31.333 -5.33301 -60 -16 -86
c-14.667 -36.667 -27 -58.334 -37 -65.001c-10 -10 -36 -19.667 -78 -29c-32.667 -8 -64 -12 -94 -12c-44.667 0 -105 16.333 -181 49c-14.667 7.33301 -31.334 14.666 -50.001 21.999s-32 12.333 -40 15c6 0 -13 2.66699 -57 8c-20.667 4 -34.334 9.33301 -41.001 16
c-14.667 11.333 -23.834 36.666 -27.501 75.999s-5.5 124.666 -5.5 255.999v98zM2839 2462.01c34 30 59.667 45 77 45c11.333 0 22.333 -2.66699 33 -8c94.667 -41.333 194.334 -62 299 -62h29h37c84.667 0 161.334 -26 230 -78c68.667 -52 122.5 -123.667 161.5 -215
s58.5 -193 58.5 -305c0 -143.333 -32 -277.166 -96 -401.499s-150.333 -223 -259 -296s-226.334 -109.5 -353 -109.5c-167.333 0 -308.166 63.667 -422.5 191c-114.333 127.333 -171.5 283.666 -171.5 468.999c0 66 12.333 142.5 37 229.5s56.834 169 96.5 246
c39.667 77 81.167 136.833 124.5 179.5zM3572 336.006l-74 -4c-5.33301 -0.666992 -110.333 -3.33398 -315 -8.00098c-106.667 -4.66699 -177.667 -7.66699 -213 -9s-101 -4 -197 -8c-10.667 0 -19 -1.33301 -25 -4h-28c-23.333 0 -42.666 5.33301 -58 16
c-32 36 -63.333 103 -94 201c-10.667 43.333 -16 79 -16 107s2 45.167 6 51.5s14.333 9.5 31 9.5l168 12l471 5c173.333 0 282.333 -4.33301 327 -13l41 -12c11.333 0 17 -2.66699 17 -8l12 -58l37 -73c0 0.666992 1.66699 -13.166 5 -41.499s5.66602 -55.5 7 -81.5
c2.66699 -5.33301 4 -11 4 -17c0 -51.333 -15 -77 -45 -77l-4 4zM3060 1348.01c22 0 45 12 69 36c48 50 88.667 126.667 122 230s50 204.333 50 303c0 68 -12.833 128 -38.5 180s-55.167 78 -88.5 78c-49.333 0 -102.333 -57.333 -159 -172
c-60 -122.667 -90 -238.667 -90 -348c0 -80.667 13.833 -152 41.5 -214s58.834 -93 93.5 -93z" />
    <glyph glyph-name="c186" unicode="&#xba;" horiz-adv-x="1622" 
d="M836 2454l98 -78c54.667 -38 82 -71 82 -99c0 -19.333 -7 -39.666 -21 -61c-47.333 -82 -102 -123 -164 -123c-16 0 -35 5.33301 -57 16l-69 50l-74 49l-86 57c-31.333 24 -106.666 71.667 -225.999 143c-73.333 48.667 -110 91 -110 127c0 28.667 12.333 54.667 37 78
c18 19.333 46.667 40 86 62c83.333 43.333 136.666 65 159.999 65c19.333 0 67 -38 143 -114c6.66699 -7.33301 34 -30.666 82 -70zM516 8l-134.997 33c-86.667 21.333 -152.334 96.333 -197.001 225c-32.667 98 -49 248.333 -49 451v78c2 6 7.66699 109.667 17 311
c1.33301 19.333 2.66602 49 3.99902 89s2.66602 70.333 3.99902 91c0 104.667 4 179.667 12 225c10.667 109.333 16 160 16 152v8c0 60 50.667 90 152 90c89.333 0 189 -24.333 299 -73c46.667 -18.667 70 -58.334 70 -119.001c0 -38.667 -8.33301 -129 -25 -271l-33 -323
c-13.333 -141.333 -20 -243.666 -20 -306.999c0 -104.667 5.5 -189 16.5 -253s25.833 -96 44.5 -96c21.333 0 47.5 16.333 78.5 49s56.833 71 77.5 115c34 74 58.667 208 74 402c16 196 24 353 24 471v33l-4 163c0 82 -1.33301 134 -4 156v45
c0 39.333 5.16699 65.5 15.5 78.5s29.833 19.5 58.5 19.5c44.667 0 81.334 -5.33301 110.001 -16c66 -22 115.333 -37 148 -45c109.333 -10.667 154.333 -16 135 -16c13.333 -8 23 -17.667 29 -29c13.333 -23.333 20 -49.333 20 -78c0 -35.333 -1.33301 -73.666 -4 -114.999
v-69l-4 -1131l4 -69v-86l8 -91v-16c0 -136.667 -21.667 -205 -65 -205c-14.667 0 -34 4.33301 -58 13c-13.333 5.33301 -68 14.666 -164 27.999c-65.333 9.33301 -109.5 25.166 -132.5 47.499s-34.5 61.166 -34.5 116.499v53c5.33301 30 8 58.667 8 86v29
c-14 -23.333 -26.333 -46.666 -37 -69.999c-36 -76 -61.333 -123.167 -76 -141.5s-42.667 -39.166 -84 -62.499c-36.667 -24.667 -76.334 -37 -119.001 -37c-23.333 0 -45 4 -65 12z" />
    <glyph glyph-name="c187" unicode="&#xbb;" horiz-adv-x="1778" 
d="M1184 754l44.999 81.998c32.667 54.667 49 90 49 106c0 5.33301 -1.33301 9.33301 -4 12l-160 291c-82 148.667 -135.333 239 -160 271c-46 64 -69 109 -69 135c0 59.333 61.333 93.333 184 102l131 12h37c19.333 0 36.333 -10.167 51 -30.5
s45.334 -78.166 92.001 -173.499c7.33301 -15.333 37.333 -68.666 90 -159.999c150.667 -252 226 -406.333 226 -463c0 -38 -56 -158 -168 -360c-8 -18 -31.333 -64.667 -70 -140c-70.667 -136 -128.167 -228 -172.5 -276s-94.5 -72 -150.5 -72
c-50 0 -99.333 12.333 -148 37c-70.667 39.333 -106 69.333 -106 90c0 12 10.667 36.667 32 74l107 184zM437.999 753.998l44.999 82.001c32.667 54.667 49 90 49 106c0 5.33301 -1.33301 9.33301 -4 12l-159 291c-79.333 142.667 -132.666 233 -159.999 271
c-46.667 64.667 -70 109.667 -70 135c0 59.333 61.667 93.333 185 102l131 12h37c18.667 0 36 -11 52 -33s46.333 -79 91 -171c9.33301 -20.667 39.333 -74 90 -160c150 -252.667 225 -407 225 -463c0 -38 -56 -158 -168 -360c-10 -22.667 -22 -47.5 -36 -74.5l-33 -65.5
c-72.667 -138.667 -130.667 -231.334 -174 -278.001s-93.333 -70 -150 -70c-49.333 0 -98.333 12.333 -147 37c-71.333 39.333 -107 69.333 -107 90c0 12 11 36.667 33 74l106 184z" />
    <glyph glyph-name="c191" unicode="&#xbf;" horiz-adv-x="1716" 
d="M561 2200l-254 303c-24.667 24.667 -37 56 -37 94s49.333 57 148 57c34 0 90 -4 168 -12c40.667 -4 70.334 -14 89.001 -30s40.667 -49.667 66 -101c37.333 -67.333 62.333 -110.166 75 -128.5c12.667 -18.333 26 -27.5 40 -27.5c16.667 0 32.167 9.83301 46.5 29.5
s39.833 64.5 76.5 134.5c30.667 56.667 58 90.667 82 102c37.333 19.333 108.333 29 213 29c114.667 0 172 -17.667 172 -53c0 -63.333 -97 -195.666 -291 -397l-78 -91c-11.333 -19.333 -19.333 -30 -24 -32c-18 -11.333 -71.333 -17 -160 -17h-74
c-86.667 5.33301 -126.334 8 -119.001 8c-27.333 0 -50.333 12.333 -69 37z" />
    <glyph glyph-name="c192" unicode="&#xc0;" horiz-adv-x="2032" 
d="M160 -168l-152.004 15.9961c-8 0 -12 19.333 -12 58c0 5.33301 0.666992 14.333 2 27s2 21.334 2 26.001c27.333 190.667 53.333 342.334 78 455.001l475 2093c29.333 121.333 51.5 201.166 66.5 239.5c15 38.333 37.833 74.5 68.5 108.5
c24.667 24.667 60.334 37 107.001 37c26.667 0 62 -2.66699 106 -8c128 -29.333 238.667 -48.666 332 -57.999c234.667 -20 356 -52.667 364 -98l17 -143l389 -2257l29 -140l16 -127l12 -61v-16c0 -30 -24.333 -45 -73 -45l-218 4l-94 -9l-102 -32
c-2.66699 0 -6.66699 -0.666992 -12 -2s-8.33301 -2 -9 -2c-16.667 0 -31.667 4 -45 12c-21.333 16 -37.166 40.833 -47.499 74.5s-31.166 127.5 -62.499 281.5l-37 193l-33 164c-8 51.333 -32.667 77 -74 77h-20c-148.667 -11.333 -300.334 -42.666 -455.001 -93.999
c-5.33301 -2 -10.166 -4.33301 -14.499 -7s-8.83301 -5.66699 -13.5 -9c-16 -8 -32.5 -43.167 -49.5 -105.5s-45.833 -192.5 -86.5 -390.5c-25.333 -117.333 -39 -180 -41 -188c-25.333 -96 -67.666 -144 -126.999 -144h-16zM1196 1143l40.999 3.99902
c10.667 0 16 13.667 16 41v20l-65 434c-55.333 365.333 -89.666 571.666 -102.999 618.999c0 -0.666992 -2.66699 7.66602 -8 25c-3.33301 13.333 -11.333 20 -24 20c-8.66699 0 -18.334 -5.33301 -29.001 -16c-2 -6 -3.5 -10.667 -4.5 -14s-2.16699 -5.66602 -3.5 -6.99902
c-11.333 -45.333 -70 -362 -176 -950c-9.33301 -53.333 -25.666 -132.666 -48.999 -237.999l81 9z" />
    <glyph glyph-name="c192" unicode="&#x410;" horiz-adv-x="2032" 
d="M160 -168l-152.004 15.9961c-8 0 -12 19.333 -12 58c0 5.33301 0.666992 14.333 2 27s2 21.334 2 26.001c27.333 190.667 53.333 342.334 78 455.001l475 2093c29.333 121.333 51.5 201.166 66.5 239.5c15 38.333 37.833 74.5 68.5 108.5
c24.667 24.667 60.334 37 107.001 37c26.667 0 62 -2.66699 106 -8c128 -29.333 238.667 -48.666 332 -57.999c234.667 -20 356 -52.667 364 -98l17 -143l389 -2257l29 -140l16 -127l12 -61v-16c0 -30 -24.333 -45 -73 -45l-218 4l-94 -9l-102 -32
c-2.66699 0 -6.66699 -0.666992 -12 -2s-8.33301 -2 -9 -2c-16.667 0 -31.667 4 -45 12c-21.333 16 -37.166 40.833 -47.499 74.5s-31.166 127.5 -62.499 281.5l-37 193l-33 164c-8 51.333 -32.667 77 -74 77h-20c-148.667 -11.333 -300.334 -42.666 -455.001 -93.999
c-5.33301 -2 -10.166 -4.33301 -14.499 -7s-8.83301 -5.66699 -13.5 -9c-16 -8 -32.5 -43.167 -49.5 -105.5s-45.833 -192.5 -86.5 -390.5c-25.333 -117.333 -39 -180 -41 -188c-25.333 -96 -67.666 -144 -126.999 -144h-16zM1196 1143l40.999 3.99902
c10.667 0 16 13.667 16 41v20l-65 434c-55.333 365.333 -89.666 571.666 -102.999 618.999c0 -0.666992 -2.66699 7.66602 -8 25c-3.33301 13.333 -11.333 20 -24 20c-8.66699 0 -18.334 -5.33301 -29.001 -16c-2 -6 -3.5 -10.667 -4.5 -14s-2.16699 -5.66602 -3.5 -6.99902
c-11.333 -45.333 -70 -362 -176 -950c-9.33301 -53.333 -25.666 -132.666 -48.999 -237.999l81 9z" />
    <glyph glyph-name="c193" unicode="&#xc1;" horiz-adv-x="2122" 
d="M852 1651l44.9961 0.000976562c54.667 0 119 -1.33301 193 -4c146 -6 255.833 -15.833 329.5 -29.5s146.5 -38.167 218.5 -73.5c68.667 -32 126.834 -78.167 174.501 -138.5s94.834 -146.5 141.501 -258.5c84.667 -202 127 -363 127 -483
c0 -58.667 -13.667 -118.167 -41 -178.5s-63 -111.5 -107 -153.5c-82 -73.333 -179 -132 -291 -176c-128 -52.667 -266 -97.334 -414 -134.001s-261 -55 -339 -55c-24.667 0 -44 1.33301 -58 4c-76 0 -118 -4 -126 -12l-25 -33c-17.333 -21.333 -38 -32 -62 -32
c-8 0 -13.333 1.33301 -16 4l-82 49l-246 78c-6.66699 0 -16 8 -28 24c-11.333 11.333 -17 40 -17 86l-4 205l8 1970c0 84.667 -2.66699 146 -8 184c0 12 -0.666992 27.667 -2 47s-2 32.333 -2 39c0 61.333 17.833 104 53.5 128s98.5 36 188.5 36
c30 0 51.667 -1.33301 65 -4c174.667 -10.667 266.334 -16 275.001 -16c-40.667 0 89 2.66699 389 8l324 8h73c125.333 0 204.666 -12.333 237.999 -37c22.667 -15.333 36.334 -38.333 41.001 -69c0 21.333 2.66699 -30.667 8 -156v-37c0 -88 -7.66699 -147.5 -23 -178.5
s-44.666 -46.5 -87.999 -46.5c-26 0 -99.667 11 -221 33c-16 3.33301 -145.667 15.666 -389 37c-49.333 5.33301 -120.333 10.666 -213 16h-8c-32.667 0 -54.5 -9.66699 -65.5 -29s-16.5 -59 -16.5 -119v-131v-327v-45zM855.996 1159c0 -46 -1.33301 -89.6689 -4 -131.002
c-10.667 -289.333 -16 -443.666 -16 -462.999c0 -57.333 3.66699 -92.166 11 -104.499s29.333 -18.5 66 -18.5c101.333 0 216 46.667 344 140c123.333 89.333 185 180.666 185 273.999c0 96.667 -45 171.334 -135 224.001s-218.333 79 -385 79h-66z" />
    <glyph glyph-name="c193" unicode="&#x411;" horiz-adv-x="2122" 
d="M852 1651l44.9961 0.000976562c54.667 0 119 -1.33301 193 -4c146 -6 255.833 -15.833 329.5 -29.5s146.5 -38.167 218.5 -73.5c68.667 -32 126.834 -78.167 174.501 -138.5s94.834 -146.5 141.501 -258.5c84.667 -202 127 -363 127 -483
c0 -58.667 -13.667 -118.167 -41 -178.5s-63 -111.5 -107 -153.5c-82 -73.333 -179 -132 -291 -176c-128 -52.667 -266 -97.334 -414 -134.001s-261 -55 -339 -55c-24.667 0 -44 1.33301 -58 4c-76 0 -118 -4 -126 -12l-25 -33c-17.333 -21.333 -38 -32 -62 -32
c-8 0 -13.333 1.33301 -16 4l-82 49l-246 78c-6.66699 0 -16 8 -28 24c-11.333 11.333 -17 40 -17 86l-4 205l8 1970c0 84.667 -2.66699 146 -8 184c0 12 -0.666992 27.667 -2 47s-2 32.333 -2 39c0 61.333 17.833 104 53.5 128s98.5 36 188.5 36
c30 0 51.667 -1.33301 65 -4c174.667 -10.667 266.334 -16 275.001 -16c-40.667 0 89 2.66699 389 8l324 8h73c125.333 0 204.666 -12.333 237.999 -37c22.667 -15.333 36.334 -38.333 41.001 -69c0 21.333 2.66699 -30.667 8 -156v-37c0 -88 -7.66699 -147.5 -23 -178.5
s-44.666 -46.5 -87.999 -46.5c-26 0 -99.667 11 -221 33c-16 3.33301 -145.667 15.666 -389 37c-49.333 5.33301 -120.333 10.666 -213 16h-8c-32.667 0 -54.5 -9.66699 -65.5 -29s-16.5 -59 -16.5 -119v-131v-327v-45zM855.996 1159c0 -46 -1.33301 -89.6689 -4 -131.002
c-10.667 -289.333 -16 -443.666 -16 -462.999c0 -57.333 3.66699 -92.166 11 -104.499s29.333 -18.5 66 -18.5c101.333 0 216 46.667 344 140c123.333 89.333 185 180.666 185 273.999c0 96.667 -45 171.334 -135 224.001s-218.333 79 -385 79h-66z" />
    <glyph glyph-name="c194" unicode="&#xc2;" horiz-adv-x="2277" 
d="M225 340l8.00098 1970c0 84.667 -2.66699 146 -8 184c0 12 -0.666992 27.667 -2 47s-2 32.333 -2 39c0 49.333 12.333 86.333 37 111c62.667 58.667 234.667 94.334 516 107c25.333 0 58.333 0.666992 99 2s69 2 85 2c27.333 2.66699 68.333 4 123 4
c154 0 267.333 -9 340 -27s139.667 -52.667 201 -104c112.667 -94 203 -201 271 -321s102 -233 102 -339c0 -84.667 -23.833 -164.834 -71.5 -240.501s-111.167 -134.834 -190.5 -177.501c-94.667 -42 -152 -66.333 -172 -73c-48.667 -14 -77.334 -21 -86.001 -21
c-33.333 -4 -50 -13.333 -50 -28c0 -12.667 19.333 -21 58 -25c145.333 -20 264 -65 356 -135c82 -58.667 148.333 -144.5 199 -257.5s76 -230.5 76 -352.5c0 -142 -52 -265 -156 -369c-72.667 -72.667 -168.334 -135.667 -287.001 -189
c-117.333 -48.667 -250.5 -91.5 -399.5 -128.5s-262.833 -55.5 -341.5 -55.5c-20 0 -51.333 2.66699 -94 8c-79.333 0 -121.666 -4 -126.999 -12l-29 -33c-4.66699 -10 -13 -16.667 -25 -20c-12 -8 -20 -12 -24 -12l-29 4c-77.333 4 -133 12.667 -167 26
s-87.667 47 -161 101c-8 5.33301 -17.333 13.333 -28 24c-11.333 11.333 -17 40 -17 86zM831.001 627.002l-0.000976562 -85.999c0 -30 24.667 -45 74 -45c56 0 146.333 23 271 69c84 33.333 152 78.5 204 135.5s78 115.833 78 176.5c0 63.333 -26 124.666 -78 183.999
c-74.667 95.333 -207 143 -397 143c-61.333 0 -102.666 -10 -123.999 -30s-32 -60.333 -32 -121zM860 1683c146 8.66699 272.667 50.832 380 126.499s161 160.5 161 254.5c0 76.667 -30.5 136.834 -91.5 180.501s-145.167 65.5 -252.5 65.5c-74 0 -124.667 -7 -152 -21
s-41 -41 -41 -81v-49l-4 -320v-119v-37z" />
    <glyph glyph-name="c194" unicode="&#x412;" horiz-adv-x="2277" 
d="M225 340l8.00098 1970c0 84.667 -2.66699 146 -8 184c0 12 -0.666992 27.667 -2 47s-2 32.333 -2 39c0 49.333 12.333 86.333 37 111c62.667 58.667 234.667 94.334 516 107c25.333 0 58.333 0.666992 99 2s69 2 85 2c27.333 2.66699 68.333 4 123 4
c154 0 267.333 -9 340 -27s139.667 -52.667 201 -104c112.667 -94 203 -201 271 -321s102 -233 102 -339c0 -84.667 -23.833 -164.834 -71.5 -240.501s-111.167 -134.834 -190.5 -177.501c-94.667 -42 -152 -66.333 -172 -73c-48.667 -14 -77.334 -21 -86.001 -21
c-33.333 -4 -50 -13.333 -50 -28c0 -12.667 19.333 -21 58 -25c145.333 -20 264 -65 356 -135c82 -58.667 148.333 -144.5 199 -257.5s76 -230.5 76 -352.5c0 -142 -52 -265 -156 -369c-72.667 -72.667 -168.334 -135.667 -287.001 -189
c-117.333 -48.667 -250.5 -91.5 -399.5 -128.5s-262.833 -55.5 -341.5 -55.5c-20 0 -51.333 2.66699 -94 8c-79.333 0 -121.666 -4 -126.999 -12l-29 -33c-4.66699 -10 -13 -16.667 -25 -20c-12 -8 -20 -12 -24 -12l-29 4c-77.333 4 -133 12.667 -167 26
s-87.667 47 -161 101c-8 5.33301 -17.333 13.333 -28 24c-11.333 11.333 -17 40 -17 86zM831.001 627.002l-0.000976562 -85.999c0 -30 24.667 -45 74 -45c56 0 146.333 23 271 69c84 33.333 152 78.5 204 135.5s78 115.833 78 176.5c0 63.333 -26 124.666 -78 183.999
c-74.667 95.333 -207 143 -397 143c-61.333 0 -102.666 -10 -123.999 -30s-32 -60.333 -32 -121zM860 1683c146 8.66699 272.667 50.832 380 126.499s161 160.5 161 254.5c0 76.667 -30.5 136.834 -91.5 180.501s-145.167 65.5 -252.5 65.5c-74 0 -124.667 -7 -152 -21
s-41 -41 -41 -81v-49l-4 -320v-119v-37z" />
    <glyph glyph-name="c195" unicode="&#xc3;" horiz-adv-x="1618" 
d="M250 401l0.00195312 1713l-8 127l-17 294c-5.33301 77.333 -8 111.666 -8 103c0 28.667 4 49 12 61l29 33c8 10.667 13.333 19 16 25c12.667 8 33.334 12 62.001 12c19.333 0 33 -1.33301 41 -4c104.667 -11.333 201.667 -17 291 -17c13.333 0 32.833 0.833008 58.5 2.5
s49.834 2.5 72.501 2.5c163.333 3.33301 299.666 10 408.999 20c32.667 2.66699 73.667 4 123 4c53.333 0 89.666 -4.66699 108.999 -14s44.666 -36 75.999 -80c57.333 -84.667 86 -179 86 -283c0 -90 -11.167 -154.833 -33.5 -194.5s-59.166 -59.5 -110.499 -59.5
c-1.33301 0 -86 9.66699 -254 29c-84.667 11.333 -177.334 19.666 -278.001 25h-13c-34.667 0 -56.334 -4.33301 -65.001 -13c-2.66699 -5.33301 -4 -14.666 -4 -28l-4 -37c0 -8.66699 0.666992 -20.334 2 -35c1.33301 -14.667 2 -26.334 2 -35.001l8 -360l12 -693l29 -860
v-16c0 -139.333 -56 -209 -168 -209c-33.333 0 -66 4 -98 12c-242 49.333 -355.333 74 -340 74c-27.333 13.333 -41 70.666 -41 171.999v53z" />
    <glyph glyph-name="c195" unicode="&#x413;" horiz-adv-x="1618" 
d="M250 401l0.00195312 1713l-8 127l-17 294c-5.33301 77.333 -8 111.666 -8 103c0 28.667 4 49 12 61l29 33c8 10.667 13.333 19 16 25c12.667 8 33.334 12 62.001 12c19.333 0 33 -1.33301 41 -4c104.667 -11.333 201.667 -17 291 -17c13.333 0 32.833 0.833008 58.5 2.5
s49.834 2.5 72.501 2.5c163.333 3.33301 299.666 10 408.999 20c32.667 2.66699 73.667 4 123 4c53.333 0 89.666 -4.66699 108.999 -14s44.666 -36 75.999 -80c57.333 -84.667 86 -179 86 -283c0 -90 -11.167 -154.833 -33.5 -194.5s-59.166 -59.5 -110.499 -59.5
c-1.33301 0 -86 9.66699 -254 29c-84.667 11.333 -177.334 19.666 -278.001 25h-13c-34.667 0 -56.334 -4.33301 -65.001 -13c-2.66699 -5.33301 -4 -14.666 -4 -28l-4 -37c0 -8.66699 0.666992 -20.334 2 -35c1.33301 -14.667 2 -26.334 2 -35.001l8 -360l12 -693l29 -860
v-16c0 -139.333 -56 -209 -168 -209c-33.333 0 -66 4 -98 12c-242 49.333 -355.333 74 -340 74c-27.333 13.333 -41 70.666 -41 171.999v53z" />
    <glyph glyph-name="c196" unicode="&#xc4;" horiz-adv-x="2732" 
d="M2367 -709l-363.995 0.000976562c-24.667 0 -37 20.667 -37 62c0 44 15 104 45 180l82 225c14 38.667 21 71.667 21 99c0 47.333 -10.667 81 -32 101s-61.333 34 -120 42c-102.667 13.333 -251.334 20 -446.001 20c-328 0 -587.667 -6.66699 -779 -20
c-95.333 -4 -143 -41 -143 -111c0 -28 9.66699 -70.333 29 -127c84.667 -213.333 127 -348.333 127 -405c0 -28.667 -11 -48.167 -33 -58.5s-67 -15.5 -135 -15.5c-27.333 0 -48 1.33301 -62 4c-80.667 0 -166.667 -12.333 -258 -37c-10.667 -2.66699 -23 -4 -37 -4
c-16.667 0 -31.667 8.33301 -45 25c-20.667 28 -42.334 84.167 -65.001 168.5s-42 178.166 -58 281.499l-20 123c-12.667 84 -19.667 127.667 -21 131c-2.66699 24.667 -4 61.667 -4 111c0 180 49.333 270 148 270c8 0 13.333 -1.33301 16 -4l41 -12
c5.33301 -2.66699 10.666 -4 15.999 -4c42.667 0 81 12.333 115 37c38 26 69.333 107.667 94 245c3.33301 32.667 11.666 73.667 24.999 123l381 1766c25.333 113.333 45.833 190 61.5 230s40.167 79.333 73.5 118c16.667 19.333 35.667 29 57 29h21l467 -58
c127.333 -15.333 214.166 -28.5 260.499 -39.5s78.166 -26.5 95.499 -46.5c2.66699 -2.66699 5.33398 -6.66699 8.00098 -12c6 -18 9 -27.667 9 -29l-9 -37l29 -94l352 -1982c5.33301 -38.667 9.66602 -66 13 -82c18.667 -123.333 62.334 -185 131 -185c10 0 33 3 69 9
c54.667 13.333 87.667 20 99 20c90 0 135 -54.667 135 -164c0 -59.333 -5.66699 -130.333 -17 -213c-14.667 -179.333 -40.334 -362.333 -77 -549c-13.333 -65.333 -28.166 -110.333 -44.5 -135c-16.333 -24.667 -39.833 -37 -70.5 -37c-22 0 -37 3 -45 9zM1667 496.001
c-6.66699 27.333 -12.834 56.832 -18.501 88.499s-10.5 56.5 -14.5 74.5l-172 947l-90 557c-2.66699 8 -6.66699 18.667 -12 32c-25.333 -7.33301 -41.666 -23.666 -48.999 -48.999l-332 -1593l-21 -90l78 4l570 25z" />
    <glyph glyph-name="c196" unicode="&#x414;" horiz-adv-x="2732" 
d="M2367 -709l-363.995 0.000976562c-24.667 0 -37 20.667 -37 62c0 44 15 104 45 180l82 225c14 38.667 21 71.667 21 99c0 47.333 -10.667 81 -32 101s-61.333 34 -120 42c-102.667 13.333 -251.334 20 -446.001 20c-328 0 -587.667 -6.66699 -779 -20
c-95.333 -4 -143 -41 -143 -111c0 -28 9.66699 -70.333 29 -127c84.667 -213.333 127 -348.333 127 -405c0 -28.667 -11 -48.167 -33 -58.5s-67 -15.5 -135 -15.5c-27.333 0 -48 1.33301 -62 4c-80.667 0 -166.667 -12.333 -258 -37c-10.667 -2.66699 -23 -4 -37 -4
c-16.667 0 -31.667 8.33301 -45 25c-20.667 28 -42.334 84.167 -65.001 168.5s-42 178.166 -58 281.499l-20 123c-12.667 84 -19.667 127.667 -21 131c-2.66699 24.667 -4 61.667 -4 111c0 180 49.333 270 148 270c8 0 13.333 -1.33301 16 -4l41 -12
c5.33301 -2.66699 10.666 -4 15.999 -4c42.667 0 81 12.333 115 37c38 26 69.333 107.667 94 245c3.33301 32.667 11.666 73.667 24.999 123l381 1766c25.333 113.333 45.833 190 61.5 230s40.167 79.333 73.5 118c16.667 19.333 35.667 29 57 29h21l467 -58
c127.333 -15.333 214.166 -28.5 260.499 -39.5s78.166 -26.5 95.499 -46.5c2.66699 -2.66699 5.33398 -6.66699 8.00098 -12c6 -18 9 -27.667 9 -29l-9 -37l29 -94l352 -1982c5.33301 -38.667 9.66602 -66 13 -82c18.667 -123.333 62.334 -185 131 -185c10 0 33 3 69 9
c54.667 13.333 87.667 20 99 20c90 0 135 -54.667 135 -164c0 -59.333 -5.66699 -130.333 -17 -213c-14.667 -179.333 -40.334 -362.333 -77 -549c-13.333 -65.333 -28.166 -110.333 -44.5 -135c-16.333 -24.667 -39.833 -37 -70.5 -37c-22 0 -37 3 -45 9zM1667 496.001
c-6.66699 27.333 -12.834 56.832 -18.501 88.499s-10.5 56.5 -14.5 74.5l-172 947l-90 557c-2.66699 8 -6.66699 18.667 -12 32c-25.333 -7.33301 -41.666 -23.666 -48.999 -48.999l-332 -1593l-21 -90l78 4l570 25z" />
    <glyph glyph-name="c197" unicode="&#xc5;" horiz-adv-x="1790" 
d="M479 -41l-191.997 89.999c-41.333 18.667 -62 124 -62 316c0 64.667 2.66699 198.334 8 401.001c27.333 748 41 1249 41 1503c0 106.667 -1.33301 181.667 -4 225c-2.66699 30.667 -4 67.667 -4 111c0 54.667 10.833 99.667 32.5 135s49.167 53 82.5 53
c2 0 6.66699 -0.666992 14 -2s13.666 -2 18.999 -2l118 -24c24.667 -5.33301 59 -8 103 -8c42 0 98 4 168 12l532 65h13c34.667 0 70 -21.667 106 -65c79.333 -91.333 119 -206 119 -344c0 -29.333 -5.66699 -51.333 -17 -66
c-2.66699 -5.33301 -9.33398 -10.666 -20.001 -15.999c-14 -10.667 -29 -16 -45 -16c-9.33301 -4 -121.333 -19.333 -336 -46l-205 -24l-53 -8c-4.66699 -82 -8.66699 -139.333 -12 -172c-8.66699 -97.333 -13 -179.333 -13 -246c0 -53.333 2.83301 -85.833 8.5 -97.5
s20.834 -17.5 45.501 -17.5c17.333 0 59.666 4.33301 126.999 13l221 24c54.667 5.33301 88.667 8 102 8c124.667 0 193 -90 205 -270c5.33301 -88 8 -126.333 8 -115c2.66699 -13.333 4 -32.333 4 -57c0 -34.667 -4.33301 -58 -13 -70s-27.334 -20 -56.001 -24l-172 -17
c-18 0 -147.667 -15 -389 -45c-22 0 -57.667 -4 -107 -12v-111l-4 -446c0 -57.333 17.667 -86 53 -86c10.667 0 38 2.66699 82 8c168 30.667 306 49.667 414 57h16c29.333 0 55.333 -9.33301 78 -28c38 -26.667 69.333 -58.167 94 -94.5s37 -69.166 37 -98.499
c0 -16 -1.33301 -33.667 -4 -53c-2.66699 -16.667 -4 -45.334 -4 -86.001c0 -44 1.33301 -71.333 4 -82c5.33301 -26.667 8 -44.334 8 -53.001c0 -14 -12.333 -27.667 -37 -41l-278 -33l-344 -49l-135 -12c-153.333 -16.667 -241 -25 -263 -25c-16.667 0 -31.667 4 -45 12z
" />
    <glyph glyph-name="c197" unicode="&#x415;" horiz-adv-x="1790" 
d="M479 -41l-191.997 89.999c-41.333 18.667 -62 124 -62 316c0 64.667 2.66699 198.334 8 401.001c27.333 748 41 1249 41 1503c0 106.667 -1.33301 181.667 -4 225c-2.66699 30.667 -4 67.667 -4 111c0 54.667 10.833 99.667 32.5 135s49.167 53 82.5 53
c2 0 6.66699 -0.666992 14 -2s13.666 -2 18.999 -2l118 -24c24.667 -5.33301 59 -8 103 -8c42 0 98 4 168 12l532 65h13c34.667 0 70 -21.667 106 -65c79.333 -91.333 119 -206 119 -344c0 -29.333 -5.66699 -51.333 -17 -66
c-2.66699 -5.33301 -9.33398 -10.666 -20.001 -15.999c-14 -10.667 -29 -16 -45 -16c-9.33301 -4 -121.333 -19.333 -336 -46l-205 -24l-53 -8c-4.66699 -82 -8.66699 -139.333 -12 -172c-8.66699 -97.333 -13 -179.333 -13 -246c0 -53.333 2.83301 -85.833 8.5 -97.5
s20.834 -17.5 45.501 -17.5c17.333 0 59.666 4.33301 126.999 13l221 24c54.667 5.33301 88.667 8 102 8c124.667 0 193 -90 205 -270c5.33301 -88 8 -126.333 8 -115c2.66699 -13.333 4 -32.333 4 -57c0 -34.667 -4.33301 -58 -13 -70s-27.334 -20 -56.001 -24l-172 -17
c-18 0 -147.667 -15 -389 -45c-22 0 -57.667 -4 -107 -12v-111l-4 -446c0 -57.333 17.667 -86 53 -86c10.667 0 38 2.66699 82 8c168 30.667 306 49.667 414 57h16c29.333 0 55.333 -9.33301 78 -28c38 -26.667 69.333 -58.167 94 -94.5s37 -69.166 37 -98.499
c0 -16 -1.33301 -33.667 -4 -53c-2.66699 -16.667 -4 -45.334 -4 -86.001c0 -44 1.33301 -71.333 4 -82c5.33301 -26.667 8 -44.334 8 -53.001c0 -14 -12.333 -27.667 -37 -41l-278 -33l-344 -49l-135 -12c-153.333 -16.667 -241 -25 -263 -25c-16.667 0 -31.667 4 -45 12z
" />
    <glyph glyph-name="c198" unicode="&#xc6;" horiz-adv-x="3215" 
d="M1892 1577l324 508.002c169.333 278 275.833 450.5 319.5 517.5s90.167 129.167 139.5 186.5c26 33.333 58.667 50 98 50c102 0 207 -42.333 315 -127c41.333 -32.667 62 -61.334 62 -86c0 -12 -4 -28.667 -12 -50c-34 -78.667 -144.667 -254.667 -332 -528
c-109.333 -164 -188.666 -287 -238 -369l-61 -98c-24.667 -30.667 -37 -55.334 -37 -74.001c0 -30.667 13.667 -67.334 41 -110.001l102 -164l156 -250l246 -398.5c48.667 -82.333 85.334 -151.333 110 -207c24.667 -55.667 46.667 -117.167 66 -184.5
c8 -24.667 12 -46.667 12 -66c0 -36.667 -14.5 -71.334 -43.5 -104.001s-67 -59 -114 -79s-96.833 -30 -149.5 -30c-70.667 0 -128.667 17.167 -174 51.5s-98 101.833 -158 202.5l-156 250c-80.667 131.333 -180.334 304.666 -299 519.999
c-74 132 -146.333 250.667 -217 356c2.66699 -43.333 4 -95 4 -155c3.33301 -49.333 5 -227 5 -533v-377c-3.33301 -32.667 -5 -64 -5 -94c0 -120 -30 -180 -90 -180h-4l-168 25l-200 -9c-63.333 0 -95 60.333 -95 181v98l-20 680v65c0 31.333 0.5 58.833 1.5 82.5
s1.83301 50.667 2.5 81s2 82.5 4 156.5l-74 -127l-139 -238l-168.5 -283.5l-134.5 -228.5c-84.667 -147.333 -146 -247 -184 -299s-84.667 -98.333 -140 -139c-54 -40.667 -115.333 -61 -184 -61c-59.333 0 -114 19 -164 57c-32 20.667 -63.333 50.667 -94 90
c-22 32 -33 52.333 -33 61c0 1.33301 0.666992 4 2 8s2 8.33301 2 13c1.33301 6.66699 3.33301 14.334 6 23.001s5 17.334 7 26.001c33.333 96 100 231.333 200 406l389 622c90.667 132 136 219.333 136 262c0 18 -12.333 46.667 -37 86l-62 99l-22.5 32.5l-22 33l-19.5 29
l-22 32.5l-405 626c-62.667 97.333 -94 160.333 -94 189c0 28 20.333 58 61 90c40 30 95 57.333 165 82s131 37 183 37c22 0 45.333 -13.667 70 -41c66 -86.667 219 -321.667 459 -705l109 -171.5l218 -340.5c-18.667 321.333 -28 548 -28 680v45l4 316
c0 75.333 9.33301 124.333 28 147c38 38 118.667 57 242 57c64 0 125 -6.5 183 -19.5s96.667 -29.5 116 -49.5c22 -22 33 -70 33 -144v-127c2.66699 -32.667 4 -80.334 4 -143c0 -116 -8.33301 -372.667 -25 -770z" />
    <glyph glyph-name="c198" unicode="&#x416;" horiz-adv-x="3215" 
d="M1892 1577l324 508.002c169.333 278 275.833 450.5 319.5 517.5s90.167 129.167 139.5 186.5c26 33.333 58.667 50 98 50c102 0 207 -42.333 315 -127c41.333 -32.667 62 -61.334 62 -86c0 -12 -4 -28.667 -12 -50c-34 -78.667 -144.667 -254.667 -332 -528
c-109.333 -164 -188.666 -287 -238 -369l-61 -98c-24.667 -30.667 -37 -55.334 -37 -74.001c0 -30.667 13.667 -67.334 41 -110.001l102 -164l156 -250l246 -398.5c48.667 -82.333 85.334 -151.333 110 -207c24.667 -55.667 46.667 -117.167 66 -184.5
c8 -24.667 12 -46.667 12 -66c0 -36.667 -14.5 -71.334 -43.5 -104.001s-67 -59 -114 -79s-96.833 -30 -149.5 -30c-70.667 0 -128.667 17.167 -174 51.5s-98 101.833 -158 202.5l-156 250c-80.667 131.333 -180.334 304.666 -299 519.999
c-74 132 -146.333 250.667 -217 356c2.66699 -43.333 4 -95 4 -155c3.33301 -49.333 5 -227 5 -533v-377c-3.33301 -32.667 -5 -64 -5 -94c0 -120 -30 -180 -90 -180h-4l-168 25l-200 -9c-63.333 0 -95 60.333 -95 181v98l-20 680v65c0 31.333 0.5 58.833 1.5 82.5
s1.83301 50.667 2.5 81s2 82.5 4 156.5l-74 -127l-139 -238l-168.5 -283.5l-134.5 -228.5c-84.667 -147.333 -146 -247 -184 -299s-84.667 -98.333 -140 -139c-54 -40.667 -115.333 -61 -184 -61c-59.333 0 -114 19 -164 57c-32 20.667 -63.333 50.667 -94 90
c-22 32 -33 52.333 -33 61c0 1.33301 0.666992 4 2 8s2 8.33301 2 13c1.33301 6.66699 3.33301 14.334 6 23.001s5 17.334 7 26.001c33.333 96 100 231.333 200 406l389 622c90.667 132 136 219.333 136 262c0 18 -12.333 46.667 -37 86l-62 99l-22.5 32.5l-22 33l-19.5 29
l-22 32.5l-405 626c-62.667 97.333 -94 160.333 -94 189c0 28 20.333 58 61 90c40 30 95 57.333 165 82s131 37 183 37c22 0 45.333 -13.667 70 -41c66 -86.667 219 -321.667 459 -705l109 -171.5l218 -340.5c-18.667 321.333 -28 548 -28 680v45l4 316
c0 75.333 9.33301 124.333 28 147c38 38 118.667 57 242 57c64 0 125 -6.5 183 -19.5s96.667 -29.5 116 -49.5c22 -22 33 -70 33 -144v-127c2.66699 -32.667 4 -80.334 4 -143c0 -116 -8.33301 -372.667 -25 -770z" />
    <glyph glyph-name="c199" unicode="&#xc7;" horiz-adv-x="1892" 
d="M115 274l-45.002 107c-2.66699 8 -4 20.333 -4 37c0 35.333 9.33301 66.666 28 93.999c16 19.333 32.333 33 49 41c6 2.66699 40.333 11 103 25l246 45c5.33301 2.66699 13.333 4 24 4c32 0 55 -6.5 69 -19.5s25 -38.167 33 -75.5l25 -106
c0 -6.66699 12.333 -17.667 37 -33c26 -10.667 54.667 -16 86 -16c64.667 0 130.334 17.667 197.001 53c69.333 38.667 124.833 86.334 166.5 143.001s62.5 112.667 62.5 168c0 66.667 -24.667 127 -74 181c-48 56 -103.833 103.333 -167.5 142s-118.5 58 -164.5 58l-147 4
c-65.333 0 -98 41 -98 123c0 2.66699 0.666992 7.66699 2 15s2 12 2 14l16 90l-16 119v12c0 19.333 4 37 12 53c24.667 29.333 46.667 46 66 50c8 2.66699 46 4 114 4c123.333 0 234 64 332 192c52 64.667 78 129 78 193c0 64.667 -11.833 125.667 -35.5 183
s-54.834 103.166 -93.501 137.5c-38.667 34.333 -80.334 51.5 -125.001 51.5c-64 0 -119.167 -15.833 -165.5 -47.5s-70.5 -70.167 -72.5 -115.5l-4 -115c-4 -41.333 -27 -62 -69 -62c-13.333 0 -32.666 3 -57.999 9c-57.333 10.667 -143.333 16 -258 16
c-8 -2.66699 -20.333 -4 -37 -4c-103.333 0 -155 27.333 -155 82c0 13.333 4 40.666 12 82l49 180c18 71.333 57.667 133.5 119 186.5s140.833 93.833 238.5 122.5s206.5 43 326.5 43c80.667 0 168 -4 262 -12c94.667 -8 164.5 -19.667 209.5 -35s88.5 -42 130.5 -80
c64.667 -58.667 122.5 -125 173.5 -199s90.833 -147.667 119.5 -221s43 -139.333 43 -198c0 -92 -28.5 -180.5 -85.5 -265.5s-133.667 -154.333 -230 -208s-198.5 -82.834 -306.5 -87.501c-24.667 0 -37 -7 -37 -21c0 -9.33301 10.667 -16 32 -20l119 -17
c106.667 -15.333 203 -56.166 289 -122.499s152.833 -150.333 200.5 -252s71.5 -211.5 71.5 -329.5c0 -105.333 -13.667 -188.666 -41 -249.999c-30 -69.333 -82.667 -137.333 -158 -204s-153.666 -113.334 -234.999 -140.001c-102 -36 -231.667 -67.333 -389 -94
c-223.333 -38.667 -373.333 -58 -450 -58c-81.333 0 -160.666 15.333 -237.999 46s-121 64.667 -131 102z" />
    <glyph glyph-name="c199" unicode="&#x417;" horiz-adv-x="1892" 
d="M115 274l-45.002 107c-2.66699 8 -4 20.333 -4 37c0 35.333 9.33301 66.666 28 93.999c16 19.333 32.333 33 49 41c6 2.66699 40.333 11 103 25l246 45c5.33301 2.66699 13.333 4 24 4c32 0 55 -6.5 69 -19.5s25 -38.167 33 -75.5l25 -106
c0 -6.66699 12.333 -17.667 37 -33c26 -10.667 54.667 -16 86 -16c64.667 0 130.334 17.667 197.001 53c69.333 38.667 124.833 86.334 166.5 143.001s62.5 112.667 62.5 168c0 66.667 -24.667 127 -74 181c-48 56 -103.833 103.333 -167.5 142s-118.5 58 -164.5 58l-147 4
c-65.333 0 -98 41 -98 123c0 2.66699 0.666992 7.66699 2 15s2 12 2 14l16 90l-16 119v12c0 19.333 4 37 12 53c24.667 29.333 46.667 46 66 50c8 2.66699 46 4 114 4c123.333 0 234 64 332 192c52 64.667 78 129 78 193c0 64.667 -11.833 125.667 -35.5 183
s-54.834 103.166 -93.501 137.5c-38.667 34.333 -80.334 51.5 -125.001 51.5c-64 0 -119.167 -15.833 -165.5 -47.5s-70.5 -70.167 -72.5 -115.5l-4 -115c-4 -41.333 -27 -62 -69 -62c-13.333 0 -32.666 3 -57.999 9c-57.333 10.667 -143.333 16 -258 16
c-8 -2.66699 -20.333 -4 -37 -4c-103.333 0 -155 27.333 -155 82c0 13.333 4 40.666 12 82l49 180c18 71.333 57.667 133.5 119 186.5s140.833 93.833 238.5 122.5s206.5 43 326.5 43c80.667 0 168 -4 262 -12c94.667 -8 164.5 -19.667 209.5 -35s88.5 -42 130.5 -80
c64.667 -58.667 122.5 -125 173.5 -199s90.833 -147.667 119.5 -221s43 -139.333 43 -198c0 -92 -28.5 -180.5 -85.5 -265.5s-133.667 -154.333 -230 -208s-198.5 -82.834 -306.5 -87.501c-24.667 0 -37 -7 -37 -21c0 -9.33301 10.667 -16 32 -20l119 -17
c106.667 -15.333 203 -56.166 289 -122.499s152.833 -150.333 200.5 -252s71.5 -211.5 71.5 -329.5c0 -105.333 -13.667 -188.666 -41 -249.999c-30 -69.333 -82.667 -137.333 -158 -204s-153.666 -113.334 -234.999 -140.001c-102 -36 -231.667 -67.333 -389 -94
c-223.333 -38.667 -373.333 -58 -450 -58c-81.333 0 -160.666 15.333 -237.999 46s-121 64.667 -131 102z" />
    <glyph glyph-name="c200" unicode="&#xc8;" horiz-adv-x="2241" 
d="M676 2626l90 -13.002c37.333 -6 62.333 -16.5 75 -31.5s19 -39.833 19 -74.5v-291c0 -71.333 -4 -156 -12 -254c-27.333 -416.667 -41 -721 -41 -913c0 -442.667 82 -664 246 -664c61.333 0 120 37 176 111c38 50.667 61 106.667 69 168c12.667 54.667 21 131 25 229
c13.333 204.667 20 309.667 20 315l-8 992c0 13.333 -2.66699 107.333 -8 282c-2.66699 35.333 -4 86 -4 152c0 100.667 8.16699 159.167 24.5 175.5s61.5 24.5 135.5 24.5c140.667 0 264.667 -16.333 372 -49c54 -16 87.333 -35.667 100 -59s19 -77.333 19 -162
c0 -9.33301 -0.666992 -23.666 -2 -42.999s-2 -35 -2 -47c-10.667 -336 -16 -826 -16 -1470l8 -455l20 -332l37 -164c6 -13.333 9 -35 9 -65c0 -24.667 -5.33301 -40.5 -16 -47.5s-35.667 -10.5 -75 -10.5h-32c-60 0 -139.333 -5.33301 -238 -16
c-38.667 -5.33301 -64.667 -8 -78 -8c-53.333 0 -91.166 15.833 -113.499 47.5s-43.166 99.167 -62.499 202.5c-2 12 -4.5 25.333 -7.5 40l-12.5 62c-109.333 -127.333 -209 -205 -299 -233c-80.667 -27.333 -176.334 -41 -287.001 -41c-118 0 -209.833 14.167 -275.5 42.5
s-119.834 76.833 -162.501 145.5c-54.667 85.333 -97.667 196.5 -129 333.5s-47 283.833 -47 440.5c0 -13.333 2.66699 187.334 8 602.001l12 504c3.33301 228.667 14.333 413 33 553c6 41.333 21.333 70.833 46 88.5s62.667 26.5 114 26.5c16 0 28 -1.33301 36 -4
c84 -8.66699 140 -22.334 168 -41z" />
    <glyph glyph-name="c200" unicode="&#x418;" horiz-adv-x="2241" 
d="M676 2626l90 -13.002c37.333 -6 62.333 -16.5 75 -31.5s19 -39.833 19 -74.5v-291c0 -71.333 -4 -156 -12 -254c-27.333 -416.667 -41 -721 -41 -913c0 -442.667 82 -664 246 -664c61.333 0 120 37 176 111c38 50.667 61 106.667 69 168c12.667 54.667 21 131 25 229
c13.333 204.667 20 309.667 20 315l-8 992c0 13.333 -2.66699 107.333 -8 282c-2.66699 35.333 -4 86 -4 152c0 100.667 8.16699 159.167 24.5 175.5s61.5 24.5 135.5 24.5c140.667 0 264.667 -16.333 372 -49c54 -16 87.333 -35.667 100 -59s19 -77.333 19 -162
c0 -9.33301 -0.666992 -23.666 -2 -42.999s-2 -35 -2 -47c-10.667 -336 -16 -826 -16 -1470l8 -455l20 -332l37 -164c6 -13.333 9 -35 9 -65c0 -24.667 -5.33301 -40.5 -16 -47.5s-35.667 -10.5 -75 -10.5h-32c-60 0 -139.333 -5.33301 -238 -16
c-38.667 -5.33301 -64.667 -8 -78 -8c-53.333 0 -91.166 15.833 -113.499 47.5s-43.166 99.167 -62.499 202.5c-2 12 -4.5 25.333 -7.5 40l-12.5 62c-109.333 -127.333 -209 -205 -299 -233c-80.667 -27.333 -176.334 -41 -287.001 -41c-118 0 -209.833 14.167 -275.5 42.5
s-119.834 76.833 -162.501 145.5c-54.667 85.333 -97.667 196.5 -129 333.5s-47 283.833 -47 440.5c0 -13.333 2.66699 187.334 8 602.001l12 504c3.33301 228.667 14.333 413 33 553c6 41.333 21.333 70.833 46 88.5s62.667 26.5 114 26.5c16 0 28 -1.33301 36 -4
c84 -8.66699 140 -22.334 168 -41z" />
    <glyph glyph-name="c201" unicode="&#xc9;" horiz-adv-x="2241" 
d="M713 3391l113.997 5c27.333 0 45.333 -18 54 -54c28.667 -117.333 106.334 -176 233.001 -176c102 0 159.333 42.333 172 127c8 32.667 12 52 12 58c2 2.66699 4.33301 6 7 10s4.66699 7.33301 6 10c20.667 16.667 64.334 25 131.001 25
c37.333 0 78.333 -4.33301 123 -13l31.5 -3.5c15 -1.66699 24.833 -3.16699 29.5 -4.5c39.333 -2 64.833 -6 76.5 -12s17.5 -18.333 17.5 -37c0 -48.667 -15 -104.667 -45 -168c-32 -77.333 -103.833 -138.333 -215.5 -183s-247.167 -67 -406.5 -67
c-101.333 0 -199.666 13.333 -294.999 40s-166.333 61.334 -213 104c-33.333 29.333 -60.833 70.833 -82.5 124.5s-32.5 107.5 -32.5 161.5c0 6.66699 0.666992 12.667 2 18s2 9 2 11c8 16 50.333 24 127 24h152zM675.997 2626l90 -13.001c37.333 -6 62.333 -16.5 75 -31.5
s19 -39.833 19 -74.5v-291c0 -71.333 -4 -156 -12 -254c-27.333 -416.667 -41 -721 -41 -913c0 -442.667 82 -664 246 -664c61.333 0 120 37 176 111c38 50.667 61 106.667 69 168c12.667 54.667 21 131 25 229c13.333 204.667 20 309.667 20 315l-8 992
c0 8 -4 85.667 -12 233c-2.66699 24.667 -4 63 -4 115c0 59.333 2.33301 101.333 7 126s13.667 41.167 27 49.5s36 12.5 68 12.5h221c170 0 271.333 -20.333 304 -61c18.667 -19.333 28 -55 28 -107c0 -19.333 -2.66699 -67 -8 -143c-16 -148 -24 -372 -24 -672
c0 -213.333 4 -463 12 -749c5.33301 -236 8 -387.667 8 -455c0 -166 6.66699 -276.667 20 -332l37 -164c6 -13.333 9 -35 9 -65c0 -24.667 -5.33301 -40.5 -16 -47.5s-35.667 -10.5 -75 -10.5h-32c-60 0 -139.333 -5.33301 -238 -16c-38.667 -5.33301 -64.667 -8 -78 -8
c-53.333 0 -91.166 15.833 -113.499 47.5s-43.166 99.167 -62.499 202.5c-2 12 -4.5 25.333 -7.5 40l-12.5 62c-109.333 -127.333 -209 -205 -299 -233c-80.667 -27.333 -176.334 -41 -287.001 -41c-118 0 -209.833 14.167 -275.5 42.5s-119.834 76.833 -162.501 145.5
c-54.667 85.333 -97.667 196.5 -129 333.5s-47 283.833 -47 440.5c0 -13.333 2.66699 187.334 8 602.001l12 504c3.33301 228.667 14.333 413 33 553c6 41.333 21.333 70.833 46 88.5s62.667 26.5 114 26.5c16 0 28 -1.33301 36 -4c84 -8.66699 140 -22.334 168 -41z" />
    <glyph glyph-name="c201" unicode="&#x419;" horiz-adv-x="2241" 
d="M713 3391l113.997 5c27.333 0 45.333 -18 54 -54c28.667 -117.333 106.334 -176 233.001 -176c102 0 159.333 42.333 172 127c8 32.667 12 52 12 58c2 2.66699 4.33301 6 7 10s4.66699 7.33301 6 10c20.667 16.667 64.334 25 131.001 25
c37.333 0 78.333 -4.33301 123 -13l31.5 -3.5c15 -1.66699 24.833 -3.16699 29.5 -4.5c39.333 -2 64.833 -6 76.5 -12s17.5 -18.333 17.5 -37c0 -48.667 -15 -104.667 -45 -168c-32 -77.333 -103.833 -138.333 -215.5 -183s-247.167 -67 -406.5 -67
c-101.333 0 -199.666 13.333 -294.999 40s-166.333 61.334 -213 104c-33.333 29.333 -60.833 70.833 -82.5 124.5s-32.5 107.5 -32.5 161.5c0 6.66699 0.666992 12.667 2 18s2 9 2 11c8 16 50.333 24 127 24h152zM675.997 2626l90 -13.001c37.333 -6 62.333 -16.5 75 -31.5
s19 -39.833 19 -74.5v-291c0 -71.333 -4 -156 -12 -254c-27.333 -416.667 -41 -721 -41 -913c0 -442.667 82 -664 246 -664c61.333 0 120 37 176 111c38 50.667 61 106.667 69 168c12.667 54.667 21 131 25 229c13.333 204.667 20 309.667 20 315l-8 992
c0 8 -4 85.667 -12 233c-2.66699 24.667 -4 63 -4 115c0 59.333 2.33301 101.333 7 126s13.667 41.167 27 49.5s36 12.5 68 12.5h221c170 0 271.333 -20.333 304 -61c18.667 -19.333 28 -55 28 -107c0 -19.333 -2.66699 -67 -8 -143c-16 -148 -24 -372 -24 -672
c0 -213.333 4 -463 12 -749c5.33301 -236 8 -387.667 8 -455c0 -166 6.66699 -276.667 20 -332l37 -164c6 -13.333 9 -35 9 -65c0 -24.667 -5.33301 -40.5 -16 -47.5s-35.667 -10.5 -75 -10.5h-32c-60 0 -139.333 -5.33301 -238 -16c-38.667 -5.33301 -64.667 -8 -78 -8
c-53.333 0 -91.166 15.833 -113.499 47.5s-43.166 99.167 -62.499 202.5c-2 12 -4.5 25.333 -7.5 40l-12.5 62c-109.333 -127.333 -209 -205 -299 -233c-80.667 -27.333 -176.334 -41 -287.001 -41c-118 0 -209.833 14.167 -275.5 42.5s-119.834 76.833 -162.501 145.5
c-54.667 85.333 -97.667 196.5 -129 333.5s-47 283.833 -47 440.5c0 -13.333 2.66699 187.334 8 602.001l12 504c3.33301 228.667 14.333 413 33 553c6 41.333 21.333 70.833 46 88.5s62.667 26.5 114 26.5c16 0 28 -1.33301 36 -4c84 -8.66699 140 -22.334 168 -41z" />
    <glyph glyph-name="c202" unicode="&#xca;" horiz-adv-x="2122" 
d="M852 1573l283.004 504l241 377c71.333 108 123.833 184 157.5 228s62 72.167 85 84.5s54.167 18.5 93.5 18.5c118.667 0 221 -34 307 -102c44 -34.667 66 -64.667 66 -90c0 -27.333 -46.333 -102.666 -139 -226c-8 -10.667 -127 -184 -357 -520
c-56.667 -84.667 -96.334 -140.667 -119.001 -168c-51.333 -74.667 -77 -126.334 -77 -155.001c0 -24.667 6.5 -50.167 19.5 -76.5s48.833 -85.5 107.5 -177.5l168 -271c56 -88.667 128.333 -214 217 -376c84 -146 144 -256.667 180 -332
c24.667 -55.333 37 -97.666 37 -126.999c0 -39.333 -14.667 -76 -44 -110s-64 -56 -104 -66l-90 -25l-106 -33c-6 -2.66699 -14.333 -4 -25 -4c-81.333 0 -178.333 91.667 -291 275l-135 225c-2.66699 5.33301 -18.834 35 -48.501 89l-102.5 194
c-68 121.333 -107.667 191 -119 209l-139 245l-70 127l-4 -155l-8 -291c-4.66699 -72.667 -9 -281.667 -13 -627v-94c-2 -70 -11.333 -117.5 -28 -142.5s-48.334 -37.5 -95.001 -37.5c-52 0 -105 10.667 -159 32c-80.667 30 -125.667 45 -135 45
c-60.667 14 -106 23.667 -136 29c-32.667 7.33301 -49 34.666 -49 81.999v8c0 -3.33301 0.666992 18.334 2 65.001s2 94.667 2 144l4 242l9 1614c0 16.667 2.66699 68.334 8 155c5.33301 122 14.666 245 27.999 369c4.66699 43.333 37.667 65 99 65
c40.667 0 81.667 -4 123 -12c58 -14 120.667 -25 188 -33c72 -10 118 -26.333 138 -49s30 -69 30 -139v-8v-127l-4 -193l-8 -426l4 -135z" />
    <glyph glyph-name="c202" unicode="&#x41a;" horiz-adv-x="2122" 
d="M852 1573l283.004 504l241 377c71.333 108 123.833 184 157.5 228s62 72.167 85 84.5s54.167 18.5 93.5 18.5c118.667 0 221 -34 307 -102c44 -34.667 66 -64.667 66 -90c0 -27.333 -46.333 -102.666 -139 -226c-8 -10.667 -127 -184 -357 -520
c-56.667 -84.667 -96.334 -140.667 -119.001 -168c-51.333 -74.667 -77 -126.334 -77 -155.001c0 -24.667 6.5 -50.167 19.5 -76.5s48.833 -85.5 107.5 -177.5l168 -271c56 -88.667 128.333 -214 217 -376c84 -146 144 -256.667 180 -332
c24.667 -55.333 37 -97.666 37 -126.999c0 -39.333 -14.667 -76 -44 -110s-64 -56 -104 -66l-90 -25l-106 -33c-6 -2.66699 -14.333 -4 -25 -4c-81.333 0 -178.333 91.667 -291 275l-135 225c-2.66699 5.33301 -18.834 35 -48.501 89l-102.5 194
c-68 121.333 -107.667 191 -119 209l-139 245l-70 127l-4 -155l-8 -291c-4.66699 -72.667 -9 -281.667 -13 -627v-94c-2 -70 -11.333 -117.5 -28 -142.5s-48.334 -37.5 -95.001 -37.5c-52 0 -105 10.667 -159 32c-80.667 30 -125.667 45 -135 45
c-60.667 14 -106 23.667 -136 29c-32.667 7.33301 -49 34.666 -49 81.999v8c0 -3.33301 0.666992 18.334 2 65.001s2 94.667 2 144l4 242l9 1614c0 16.667 2.66699 68.334 8 155c5.33301 122 14.666 245 27.999 369c4.66699 43.333 37.667 65 99 65
c40.667 0 81.667 -4 123 -12c58 -14 120.667 -25 188 -33c72 -10 118 -26.333 138 -49s30 -69 30 -139v-8v-127l-4 -193l-8 -426l4 -135z" />
    <glyph glyph-name="c203" unicode="&#xcb;" horiz-adv-x="2019" 
d="M1004 1880c-5.33301 -54.667 -9.66992 -91.6641 -13.0029 -110.997c-3.33301 -44 -7.33301 -75.333 -12 -94c-13.333 -128.667 -50.333 -333.334 -111 -614.001c-136 -642.667 -209.667 -1007.33 -221 -1094c-21.333 -174.667 -71.666 -262 -150.999 -262
c-22.667 0 -80 17.667 -172 53c-47.333 22 -77.666 33 -90.999 33l-90 12c-23.333 3.33301 -49 14.333 -77 33c-41.333 36.667 -62 72.334 -62 107.001c0 10 2.66699 23.667 8 41l45 143l41 180l459 1925c5.33301 24 10.833 46.667 16.5 68l20.5 80
c24.667 80 37 137.333 37 172l4 123c4 98 35.333 147 94 147c8.66699 0 26.334 -2.66699 53.001 -8l172 -41h394c45.333 0 74 -9.66699 86 -29c13.333 -18 20 -39.667 20 -65c4 -12 8 -53 12 -123c1.33301 -16.667 5 -43.834 11 -81.501s12 -80.167 18 -127.5
c4 -31.333 8 -56 12 -74l398 -1671c6.66699 -30 12.5 -54.833 17.5 -74.5s9.83301 -39.834 14.5 -60.501c49.333 -160 74 -258.333 74 -295c0 -42 -6.66699 -68 -20 -78c-32 -36 -86.667 -56.333 -164 -61l-180 -8l-115 -17h-8c-57.333 0 -104 38.333 -140 115
c-74 170 -147.667 482.667 -221 938l-78 463l-24 135l-21 98l-24 127z" />
    <glyph glyph-name="c203" unicode="&#x41b;" horiz-adv-x="2019" 
d="M1004 1880c-5.33301 -54.667 -9.66992 -91.6641 -13.0029 -110.997c-3.33301 -44 -7.33301 -75.333 -12 -94c-13.333 -128.667 -50.333 -333.334 -111 -614.001c-136 -642.667 -209.667 -1007.33 -221 -1094c-21.333 -174.667 -71.666 -262 -150.999 -262
c-22.667 0 -80 17.667 -172 53c-47.333 22 -77.666 33 -90.999 33l-90 12c-23.333 3.33301 -49 14.333 -77 33c-41.333 36.667 -62 72.334 -62 107.001c0 10 2.66699 23.667 8 41l45 143l41 180l459 1925c5.33301 24 10.833 46.667 16.5 68l20.5 80
c24.667 80 37 137.333 37 172l4 123c4 98 35.333 147 94 147c8.66699 0 26.334 -2.66699 53.001 -8l172 -41h394c45.333 0 74 -9.66699 86 -29c13.333 -18 20 -39.667 20 -65c4 -12 8 -53 12 -123c1.33301 -16.667 5 -43.834 11 -81.501s12 -80.167 18 -127.5
c4 -31.333 8 -56 12 -74l398 -1671c6.66699 -30 12.5 -54.833 17.5 -74.5s9.83301 -39.834 14.5 -60.501c49.333 -160 74 -258.333 74 -295c0 -42 -6.66699 -68 -20 -78c-32 -36 -86.667 -56.333 -164 -61l-180 -8l-115 -17h-8c-57.333 0 -104 38.333 -140 115
c-74 170 -147.667 482.667 -221 938l-78 463l-24 135l-21 98l-24 127z" />
    <glyph glyph-name="c204" unicode="&#xcc;" horiz-adv-x="3052" 
d="M1495 922c26 148 46.3301 254.338 60.9971 319.005c0.666992 2 4.83398 20.167 12.501 54.5s18.834 79.166 33.501 134.499c46 196 103.333 481.333 172 856c30.667 162 52.334 268.333 65.001 319c4.66699 17.333 8.66699 34.666 12 52c3.33301 17.333 6.33301 30 9 38
c13.333 76 25.5 127.667 36.5 155s28 45.166 51 53.5c23 8.33301 63.167 12.5 120.5 12.5c8.66699 0 22 -0.666992 40 -2s30.667 -2 38 -2l90 -4l250 -82l213 -20c31.333 -2 57.666 -15.333 79 -40c21.333 -24.667 32 -52.334 32 -83v-12c-2.66699 -24.667 -4 -44 -4 -58
l16 -2314c0 -30 -1.33301 -61.333 -4 -94c-1.33301 -13.333 -2.66602 -37.833 -4 -73.5c-1.33301 -35.667 -2.66602 -61.834 -4 -78.501c0 -40.667 -4.16699 -67.834 -12.5 -81.501s-26.166 -20.5 -53.5 -20.5c-8.66699 0 -29 2.66699 -61 8
c-10 1.33301 -27 2.66602 -51 3.99902s-42.667 2.66602 -56 3.99902c-246.667 7.33301 -376.334 59.333 -389.001 156l4 119l4 94l41 1421l5 156l16 254l4 57c-22 -13.333 -34.333 -23 -37 -29l-78 -311l-106 -430l-246 -1122c-14.667 -71.333 -66.667 -107 -156 -107
c-38 0 -74.667 7 -110 21l-66 28l-209 54c-24 8 -40.333 18.667 -49 32c-7.33301 16 -16.666 57 -27.999 123l-238 1069l-45 230l-41 196l-8 54l-29 -4v-66v-266v-422l25 -1077l8 -136v-20c0 -76.667 -20.667 -115 -62 -115c-5.33301 0 -9.33301 1.33301 -12 4l-98 29
l-209 4c-99.333 4 -171.666 47.667 -216.999 131l-17 29l-12 258l-4 315l37 1868c0 13.333 2.66699 42 8 86c0 22 2.66699 35.667 8 41c16 19.333 59.667 29 131 29c38 0 71 -4.33301 99 -13l65 -16c9.33301 0 29.333 -2 60 -6s55.667 -6 75 -6c49.333 0 89 1.33301 119 4
c24.667 2.66699 63 4 115 4c115.333 0 193.666 -13 234.999 -39s68 -80 80 -162l107 -622l78 -471z" />
    <glyph glyph-name="c204" unicode="&#x41c;" horiz-adv-x="3052" 
d="M1495 922c26 148 46.3301 254.338 60.9971 319.005c0.666992 2 4.83398 20.167 12.501 54.5s18.834 79.166 33.501 134.499c46 196 103.333 481.333 172 856c30.667 162 52.334 268.333 65.001 319c4.66699 17.333 8.66699 34.666 12 52c3.33301 17.333 6.33301 30 9 38
c13.333 76 25.5 127.667 36.5 155s28 45.166 51 53.5c23 8.33301 63.167 12.5 120.5 12.5c8.66699 0 22 -0.666992 40 -2s30.667 -2 38 -2l90 -4l250 -82l213 -20c31.333 -2 57.666 -15.333 79 -40c21.333 -24.667 32 -52.334 32 -83v-12c-2.66699 -24.667 -4 -44 -4 -58
l16 -2314c0 -30 -1.33301 -61.333 -4 -94c-1.33301 -13.333 -2.66602 -37.833 -4 -73.5c-1.33301 -35.667 -2.66602 -61.834 -4 -78.501c0 -40.667 -4.16699 -67.834 -12.5 -81.501s-26.166 -20.5 -53.5 -20.5c-8.66699 0 -29 2.66699 -61 8
c-10 1.33301 -27 2.66602 -51 3.99902s-42.667 2.66602 -56 3.99902c-246.667 7.33301 -376.334 59.333 -389.001 156l4 119l4 94l41 1421l5 156l16 254l4 57c-22 -13.333 -34.333 -23 -37 -29l-78 -311l-106 -430l-246 -1122c-14.667 -71.333 -66.667 -107 -156 -107
c-38 0 -74.667 7 -110 21l-66 28l-209 54c-24 8 -40.333 18.667 -49 32c-7.33301 16 -16.666 57 -27.999 123l-238 1069l-45 230l-41 196l-8 54l-29 -4v-66v-266v-422l25 -1077l8 -136v-20c0 -76.667 -20.667 -115 -62 -115c-5.33301 0 -9.33301 1.33301 -12 4l-98 29
l-209 4c-99.333 4 -171.666 47.667 -216.999 131l-17 29l-12 258l-4 315l37 1868c0 13.333 2.66699 42 8 86c0 22 2.66699 35.667 8 41c16 19.333 59.667 29 131 29c38 0 71 -4.33301 99 -13l65 -16c9.33301 0 29.333 -2 60 -6s55.667 -6 75 -6c49.333 0 89 1.33301 119 4
c24.667 2.66699 63 4 115 4c115.333 0 193.666 -13 234.999 -39s68 -80 80 -162l107 -622l78 -471z" />
    <glyph glyph-name="c205" unicode="&#xcd;" horiz-adv-x="2216" 
d="M1348 1741c5.33301 43.333 8 91 8 143l4 598v422c0 48 11.167 82.5 33.5 103.5s60.166 31.5 113.499 31.5c11.333 0 25 -2.66699 41 -8l140 -33l249 -49c32.667 -3.33301 50.667 -45.666 54 -127l8 -205v-57l-17 -2003l-12 -258v-86c-2.66699 -19.333 -4 -38.333 -4 -57
v-13c0 -68.667 -9.66699 -111.667 -29 -129s-67 -26 -143 -26h-74l-82 8l-77 8c-51.333 6 -86 13.333 -104 22s-34 24.667 -48 48c0 -2.66699 -9.66699 35.333 -29 114c-5.33301 33.333 -8 55.333 -8 66l-8 786c0 82 -2.66699 132.667 -8 152s-20.333 29 -45 29
c-52 0 -199.667 -23.333 -443 -70v-197l-16 -884v-54v-12c0 -43.333 -26 -65 -78 -65c-22 0 -39.667 1.33301 -53 4c-94 16 -177.333 24 -250 24c-104 3.33301 -169.667 14.333 -197 33c-16 10 -27 30.833 -33 62.5s-10 98.167 -12 199.5l-4 107v200l45 1909
c2 92.667 7.66699 157.5 17 194.5s28.333 71.833 57 104.5l8 12c6 6 56.667 9 152 9c13.333 0 28.333 1.33301 45 4h33c128.667 0 214.667 -19.333 258 -58c32.667 -37.333 49 -93.333 49 -168l-8 -774l4 -69c0 -30 13.667 -45 41 -45c36.667 0 177.334 17.667 422.001 53z
" />
    <glyph glyph-name="c205" unicode="&#x41d;" horiz-adv-x="2216" 
d="M1348 1741c5.33301 43.333 8 91 8 143l4 598v422c0 48 11.167 82.5 33.5 103.5s60.166 31.5 113.499 31.5c11.333 0 25 -2.66699 41 -8l140 -33l249 -49c32.667 -3.33301 50.667 -45.666 54 -127l8 -205v-57l-17 -2003l-12 -258v-86c-2.66699 -19.333 -4 -38.333 -4 -57
v-13c0 -68.667 -9.66699 -111.667 -29 -129s-67 -26 -143 -26h-74l-82 8l-77 8c-51.333 6 -86 13.333 -104 22s-34 24.667 -48 48c0 -2.66699 -9.66699 35.333 -29 114c-5.33301 33.333 -8 55.333 -8 66l-8 786c0 82 -2.66699 132.667 -8 152s-20.333 29 -45 29
c-52 0 -199.667 -23.333 -443 -70v-197l-16 -884v-54v-12c0 -43.333 -26 -65 -78 -65c-22 0 -39.667 1.33301 -53 4c-94 16 -177.333 24 -250 24c-104 3.33301 -169.667 14.333 -197 33c-16 10 -27 30.833 -33 62.5s-10 98.167 -12 199.5l-4 107v200l45 1909
c2 92.667 7.66699 157.5 17 194.5s28.333 71.833 57 104.5l8 12c6 6 56.667 9 152 9c13.333 0 28.333 1.33301 45 4h33c128.667 0 214.667 -19.333 258 -58c32.667 -37.333 49 -93.333 49 -168l-8 -774l4 -69c0 -30 13.667 -45 41 -45c36.667 0 177.334 17.667 422.001 53z
" />
    <glyph glyph-name="c206" unicode="&#xce;" horiz-adv-x="2302" 
d="M1548 2740c-2 0 13.001 -2.66699 45.001 -8c104 -14.667 202.667 -83.834 296 -207.501s167.666 -281.167 222.999 -472.5s83 -390.666 83 -597.999c0 -514.667 -146 -948.667 -438 -1302c-146 -178 -294.667 -267 -446 -267c-52 0 -93 1.33301 -123 4
c-172.667 13.333 -305 36.5 -397 69.5s-178.333 89.167 -259 168.5c-275.333 271.333 -413 637.333 -413 1098c0 200 21 406.833 63 620.5s100 406.834 174 579.5c64.667 136.667 142.667 248.667 234 336c83.333 76 213 114 389 114c174 0 298.333 -16.333 373 -49z
M1081 344c40.667 0 85.668 25.332 135.001 75.999s90.333 114 123 190c120.667 270.667 181 563 181 877c0 268.667 -49.333 518.334 -148 749.001c-50.667 120.667 -105.334 181 -164.001 181c-41.333 0 -89 -34.667 -143 -104s-100.333 -156.333 -139 -261
c-104 -280.667 -156 -581 -156 -901c0 -134 15 -263.167 45 -387.5s69.333 -225.333 118 -303s98 -116.5 148 -116.5z" />
    <glyph glyph-name="c206" unicode="&#x41e;" horiz-adv-x="2302" 
d="M1548 2740c-2 0 13.001 -2.66699 45.001 -8c104 -14.667 202.667 -83.834 296 -207.501s167.666 -281.167 222.999 -472.5s83 -390.666 83 -597.999c0 -514.667 -146 -948.667 -438 -1302c-146 -178 -294.667 -267 -446 -267c-52 0 -93 1.33301 -123 4
c-172.667 13.333 -305 36.5 -397 69.5s-178.333 89.167 -259 168.5c-275.333 271.333 -413 637.333 -413 1098c0 200 21 406.833 63 620.5s100 406.834 174 579.5c64.667 136.667 142.667 248.667 234 336c83.333 76 213 114 389 114c174 0 298.333 -16.333 373 -49z
M1081 344c40.667 0 85.668 25.332 135.001 75.999s90.333 114 123 190c120.667 270.667 181 563 181 877c0 268.667 -49.333 518.334 -148 749.001c-50.667 120.667 -105.334 181 -164.001 181c-41.333 0 -89 -34.667 -143 -104s-100.333 -156.333 -139 -261
c-104 -280.667 -156 -581 -156 -901c0 -134 15 -263.167 45 -387.5s69.333 -225.333 118 -303s98 -116.5 148 -116.5z" />
    <glyph glyph-name="c207" unicode="&#xcf;" horiz-adv-x="2183" 
d="M852 2359l0.00195312 -65.001l-4 -123v-1815c0 -4.66699 0.666992 -22.334 2 -53.001s2 -58 2 -82c0 -7.33301 0.666992 -20 2 -38s2 -31.333 2 -40c0 -81.333 -9.83301 -135 -29.5 -161s-60.167 -39 -121.5 -39c-50 0 -96.667 5.33301 -140 16
c-48.667 8 -81.334 12 -98.001 12c-112.667 9.33301 -175.334 20.333 -188.001 33c-11.333 7.33301 -21 26.333 -29 57c-16.667 56.667 -25 137.334 -25 242.001v66l4 204l13 1905c2 26 3.66699 52.5 5 79.5s3.66602 52.5 6.99902 76.5c4.66699 36.667 10 59.667 16 69
c2 6 17 30.667 45 74c11.333 16.667 53.666 25 126.999 25h82c28.667 0 86 4 172 12c10.667 1.33301 45 4 103 8s108.333 8 151 12c232.667 18 372 60.333 418 127l33 50c8 16 38 24 90 24c62.667 0 120 -12.333 172 -37l75 -36l27 -13c122 -24.667 185 -41 189 -49
c8 -4 12 -26 12 -66v-12l-4 -205v-57l-4 -2003l4 -270l-4 -144v-82c-3.33301 -18 -11.666 -35.667 -24.999 -53c-14.667 -22 -55.667 -33 -123 -33c-17.333 0 -56.666 3 -117.999 9c-64.667 13.333 -118 20 -160 20c-56.667 0 -94.667 4.5 -114 13.5
s-33.333 27.833 -42 56.5c-10 34.667 -16.667 71.334 -20 110.001c-5.33301 32.667 -8 65.667 -8 99l4 1990v111c0 35.333 -13.667 53 -41 53c-14 0 -25 -1.33301 -33 -4l-385 -66z" />
    <glyph glyph-name="c207" unicode="&#x41f;" horiz-adv-x="2183" 
d="M852 2359l0.00195312 -65.001l-4 -123v-1815c0 -4.66699 0.666992 -22.334 2 -53.001s2 -58 2 -82c0 -7.33301 0.666992 -20 2 -38s2 -31.333 2 -40c0 -81.333 -9.83301 -135 -29.5 -161s-60.167 -39 -121.5 -39c-50 0 -96.667 5.33301 -140 16
c-48.667 8 -81.334 12 -98.001 12c-112.667 9.33301 -175.334 20.333 -188.001 33c-11.333 7.33301 -21 26.333 -29 57c-16.667 56.667 -25 137.334 -25 242.001v66l4 204l13 1905c2 26 3.66699 52.5 5 79.5s3.66602 52.5 6.99902 76.5c4.66699 36.667 10 59.667 16 69
c2 6 17 30.667 45 74c11.333 16.667 53.666 25 126.999 25h82c28.667 0 86 4 172 12c10.667 1.33301 45 4 103 8s108.333 8 151 12c232.667 18 372 60.333 418 127l33 50c8 16 38 24 90 24c62.667 0 120 -12.333 172 -37l75 -36l27 -13c122 -24.667 185 -41 189 -49
c8 -4 12 -26 12 -66v-12l-4 -205v-57l-4 -2003l4 -270l-4 -144v-82c-3.33301 -18 -11.666 -35.667 -24.999 -53c-14.667 -22 -55.667 -33 -123 -33c-17.333 0 -56.666 3 -117.999 9c-64.667 13.333 -118 20 -160 20c-56.667 0 -94.667 4.5 -114 13.5
s-33.333 27.833 -42 56.5c-10 34.667 -16.667 71.334 -20 110.001c-5.33301 32.667 -8 65.667 -8 99l4 1990v111c0 35.333 -13.667 53 -41 53c-14 0 -25 -1.33301 -33 -4l-385 -66z" />
    <glyph glyph-name="c208" unicode="&#xd0;" horiz-adv-x="2023" 
d="M881 926l3.99805 -85.999l24 -840c0 -30.667 -9.33301 -59.334 -28 -86.001s-40.667 -43 -66 -49c-10.667 -2.66699 -42 -4 -94 -4c-175.333 0 -314.666 23 -417.999 69c-34.667 16.667 -57 37.167 -67 61.5s-15 69.5 -15 135.5c0 44 1.33301 76.667 4 98
c8.66699 66 13 133 13 201v4l-13 1962v225v9c0 78.667 12.333 130.334 37 155c36.667 41.333 128.334 62 275.001 62c52 0 99.667 -4.33301 143 -13c78 -13.333 116.333 -20 115 -20h28c38.667 0 70.334 1.33301 95.001 4c116.667 10.667 198.334 16 245.001 16
c158.667 0 292.667 -39.333 402 -118c81.333 -61.333 153.666 -131.166 216.999 -209.5c63.333 -78.333 112.5 -158.166 147.5 -239.499s52.5 -158.333 52.5 -231c0 -120 -28.333 -253.333 -85 -400s-130.667 -278.334 -222 -395.001
c-58.667 -76.667 -116 -132.667 -172 -168c-102 -64 -242.667 -111.667 -422 -143c-24.667 -5.33301 -57.334 -8 -98.001 -8c-35.333 0 -69.333 2.66699 -102 8zM880.998 1495c0 -74 10.668 -111.001 32.001 -111.001c26 0 61.833 14.833 107.5 44.5
s85.167 64.167 118.5 103.5c46.667 52.667 85.667 120 117 202s47 159.333 47 232c0 108.667 -24.833 193.834 -74.5 255.501s-117.834 92.5 -204.501 92.5c-57.333 0 -94.833 -4.16699 -112.5 -12.5s-26.5 -25.833 -26.5 -52.5v-13l-4 -69v-672z" />
    <glyph glyph-name="c208" unicode="&#x420;" horiz-adv-x="2023" 
d="M881 926l3.99805 -85.999l24 -840c0 -30.667 -9.33301 -59.334 -28 -86.001s-40.667 -43 -66 -49c-10.667 -2.66699 -42 -4 -94 -4c-175.333 0 -314.666 23 -417.999 69c-34.667 16.667 -57 37.167 -67 61.5s-15 69.5 -15 135.5c0 44 1.33301 76.667 4 98
c8.66699 66 13 133 13 201v4l-13 1962v225v9c0 78.667 12.333 130.334 37 155c36.667 41.333 128.334 62 275.001 62c52 0 99.667 -4.33301 143 -13c78 -13.333 116.333 -20 115 -20h28c38.667 0 70.334 1.33301 95.001 4c116.667 10.667 198.334 16 245.001 16
c158.667 0 292.667 -39.333 402 -118c81.333 -61.333 153.666 -131.166 216.999 -209.5c63.333 -78.333 112.5 -158.166 147.5 -239.499s52.5 -158.333 52.5 -231c0 -120 -28.333 -253.333 -85 -400s-130.667 -278.334 -222 -395.001
c-58.667 -76.667 -116 -132.667 -172 -168c-102 -64 -242.667 -111.667 -422 -143c-24.667 -5.33301 -57.334 -8 -98.001 -8c-35.333 0 -69.333 2.66699 -102 8zM880.998 1495c0 -74 10.668 -111.001 32.001 -111.001c26 0 61.833 14.833 107.5 44.5
s85.167 64.167 118.5 103.5c46.667 52.667 85.667 120 117 202s47 159.333 47 232c0 108.667 -24.833 193.834 -74.5 255.501s-117.834 92.5 -204.501 92.5c-57.333 0 -94.833 -4.16699 -112.5 -12.5s-26.5 -25.833 -26.5 -52.5v-13l-4 -69v-672z" />
    <glyph glyph-name="c209" unicode="&#xd1;" horiz-adv-x="1987" 
d="M1286 811l41.0029 176.003c8 37.333 38.5 69.833 91.5 97.5s112.5 41.5 178.5 41.5c94.667 0 167.5 -24 218.5 -72s76.5 -116.667 76.5 -206c0 -183.333 -31.833 -348.333 -95.5 -495s-152.334 -261.334 -266.001 -344.001s-241.5 -124 -383.5 -124
c-9.33301 0 -24.666 0.666992 -45.999 2s-37.333 2 -48 2c-120 16 -242.333 41.5 -367 76.5s-214 69.833 -268 104.5c-43.333 27.333 -85.166 73.666 -125.499 138.999s-73.5 141.666 -99.5 228.999c-49.333 170 -74 373.667 -74 611c0 384 54.667 749.667 164 1097
c50.667 165.333 113 309 187 431s148 203.667 222 245c32 18 80.333 34.167 145 48.5s124.334 21.5 179.001 21.5c5.33301 0 13.666 -0.666992 24.999 -2s19.333 -2 24 -2c12 -2.66699 50.333 -15 115 -37c219.333 -80 358.333 -136 417 -168c32 -26 60.667 -52 86 -78
c40.667 -48.667 73.667 -97.667 99 -147c40.667 -94 61 -219.667 61 -377c0 -111.333 -7.83301 -192.333 -23.5 -243s-45.834 -85 -90.501 -103s-115.667 -27 -213 -27c-33.333 0 -80 2.66699 -140 8c-53.333 7.33301 -96.833 29.5 -130.5 66.5s-51.5 81.833 -53.5 134.5
l-8 233c-8 180.667 -45 271 -111 271c-27.333 0 -52.833 -19 -76.5 -57s-41.834 -90 -54.501 -156l-57 -299c-16.667 -74.667 -33 -212.667 -49 -414c-22 -237.333 -33 -419 -33 -545c0 -284 19 -491.333 57 -622c22 -68.667 60.333 -103 115 -103c28 0 58 11 90 33
c38 28 65.667 53 83 75s32.166 52.333 44.499 91s31.166 111.667 56.499 219z" />
    <glyph glyph-name="c209" unicode="&#x421;" horiz-adv-x="1987" 
d="M1286 811l41.0029 176.003c8 37.333 38.5 69.833 91.5 97.5s112.5 41.5 178.5 41.5c94.667 0 167.5 -24 218.5 -72s76.5 -116.667 76.5 -206c0 -183.333 -31.833 -348.333 -95.5 -495s-152.334 -261.334 -266.001 -344.001s-241.5 -124 -383.5 -124
c-9.33301 0 -24.666 0.666992 -45.999 2s-37.333 2 -48 2c-120 16 -242.333 41.5 -367 76.5s-214 69.833 -268 104.5c-43.333 27.333 -85.166 73.666 -125.499 138.999s-73.5 141.666 -99.5 228.999c-49.333 170 -74 373.667 -74 611c0 384 54.667 749.667 164 1097
c50.667 165.333 113 309 187 431s148 203.667 222 245c32 18 80.333 34.167 145 48.5s124.334 21.5 179.001 21.5c5.33301 0 13.666 -0.666992 24.999 -2s19.333 -2 24 -2c12 -2.66699 50.333 -15 115 -37c219.333 -80 358.333 -136 417 -168c32 -26 60.667 -52 86 -78
c40.667 -48.667 73.667 -97.667 99 -147c40.667 -94 61 -219.667 61 -377c0 -111.333 -7.83301 -192.333 -23.5 -243s-45.834 -85 -90.501 -103s-115.667 -27 -213 -27c-33.333 0 -80 2.66699 -140 8c-53.333 7.33301 -96.833 29.5 -130.5 66.5s-51.5 81.833 -53.5 134.5
l-8 233c-8 180.667 -45 271 -111 271c-27.333 0 -52.833 -19 -76.5 -57s-41.834 -90 -54.501 -156l-57 -299c-16.667 -74.667 -33 -212.667 -49 -414c-22 -237.333 -33 -419 -33 -545c0 -284 19 -491.333 57 -622c22 -68.667 60.333 -103 115 -103c28 0 58 11 90 33
c38 28 65.667 53 83 75s32.166 52.333 44.499 91s31.166 111.667 56.499 219z" />
    <glyph glyph-name="c210" unicode="&#xd2;" horiz-adv-x="1671" 
d="M537 2253l-29.001 -3.99805l-123 -17c-88 -13.333 -148 -20 -180 -20c-24 0 -43.333 12.333 -58 37c-14 18.667 -24.667 39 -32 61c-44 136.667 -66 252.667 -66 348c0 30 5.33301 51 16 63s31.334 21 62.001 27l197 37l1040 127c10.667 2.66699 25.667 4 45 4
c58 0 93.667 -4 107 -12l16 -16c70.667 -74 106 -130 106 -168c0 13.333 -2.66699 -12.667 -8 -78l-24 -213c0 -8 -7 -19 -21 -33c-16 -16 -29.667 -24 -41 -24l-205 -21l-127 -12l-28 -4c-12 0 -20.333 -11 -25 -33v-70l-4 -176l4 -1569l4 -258v-163
c2.66699 -8.66699 4 -18.334 4 -29.001c2.66699 -2.66699 4 -8.33398 4 -17.001c0 -60 -50.333 -90 -151 -90c-98 0 -193.5 11.333 -286.5 34s-154.5 49.667 -184.5 81c-30 30 -45 121.333 -45 274l37 1684v225z" />
    <glyph glyph-name="c210" unicode="&#x422;" horiz-adv-x="1671" 
d="M537 2253l-29.001 -3.99805l-123 -17c-88 -13.333 -148 -20 -180 -20c-24 0 -43.333 12.333 -58 37c-14 18.667 -24.667 39 -32 61c-44 136.667 -66 252.667 -66 348c0 30 5.33301 51 16 63s31.334 21 62.001 27l197 37l1040 127c10.667 2.66699 25.667 4 45 4
c58 0 93.667 -4 107 -12l16 -16c70.667 -74 106 -130 106 -168c0 13.333 -2.66699 -12.667 -8 -78l-24 -213c0 -8 -7 -19 -21 -33c-16 -16 -29.667 -24 -41 -24l-205 -21l-127 -12l-28 -4c-12 0 -20.333 -11 -25 -33v-70l-4 -176l4 -1569l4 -258v-163
c2.66699 -8.66699 4 -18.334 4 -29.001c2.66699 -2.66699 4 -8.33398 4 -17.001c0 -60 -50.333 -90 -151 -90c-98 0 -193.5 11.333 -286.5 34s-154.5 49.667 -184.5 81c-30 30 -45 121.333 -45 274l37 1684v225z" />
    <glyph glyph-name="c211" unicode="&#xd3;" horiz-adv-x="2089" 
d="M336 442l294.996 95.0039c5.33301 2.66699 13.333 4 24 4c56.667 0 89.667 -31.667 99 -95c6 -60.667 13.833 -99 23.5 -115s29.167 -24 58.5 -24c34.667 0 62 9.66699 82 29s39 53.333 57 102c19.333 52 35.666 118 48.999 198s20 148 20 204
c0 62.667 -43.667 94 -131 94h-41c-158.667 -22 -273.334 -33 -344.001 -33c-38 0 -73.333 8.33301 -106 25c-25.333 12.667 -42.5 26.167 -51.5 40.5s-16.5 41.833 -22.5 82.5l-196 1212l-58 274c-8 32.667 -12 68.334 -12 107c0 40.667 1.33301 64 4 70l16 36
c13.333 36 39.333 54 78 54c14 0 23.667 -1.33301 29 -4c8 -3.33301 17.667 -6.33301 29 -9c34 -13.333 98 -20 192 -20c2.66699 0 6.66699 0.666992 12 2s9.66602 2 12.999 2c80 0 147.333 -44.333 202 -133s91 -213.667 109 -375l53 -446
c24 -223.333 47.333 -357.333 70 -402c10.667 -20 26.334 -36.5 47.001 -49.5s40.334 -19.5 59.001 -19.5h111c44 0 71.333 2.66699 82 8c18 14 33 46.667 45 98l37 139c10 44.667 36 176 78 394l53 307c8 56.667 20.333 138.667 37 246c20.667 150 75.334 225 164.001 225
c26.667 0 51 -1.33301 73 -4l213 -25c54.667 -6 101.834 -29.167 141.501 -69.5s59.5 -85.5 59.5 -135.5c0 -32 -19 -92 -57 -180c-1.33301 -6 -5.66602 -17 -12.999 -33l-393 -1482c-31.333 -123.333 -54.666 -235.333 -69.999 -336
c-18 -140.667 -32.167 -231.834 -42.5 -273.501s-28.833 -85.834 -55.5 -132.501c-27.333 -51.333 -69.666 -95 -126.999 -131c-42 -26.667 -91.5 -44.334 -148.5 -53.001s-156.167 -14 -297.5 -16l-107 -5h-45c-138.667 0 -251.667 11.833 -339 35.5
s-138 57.167 -152 100.5l-33 114l-45 111c-5.33301 16 -8 27 -8 33c0 10 2.66699 29 8 57c17.333 45.333 40.333 72.666 69 81.999z" />
    <glyph glyph-name="c211" unicode="&#x423;" horiz-adv-x="2089" 
d="M336 442l294.996 95.0039c5.33301 2.66699 13.333 4 24 4c56.667 0 89.667 -31.667 99 -95c6 -60.667 13.833 -99 23.5 -115s29.167 -24 58.5 -24c34.667 0 62 9.66699 82 29s39 53.333 57 102c19.333 52 35.666 118 48.999 198s20 148 20 204
c0 62.667 -43.667 94 -131 94h-41c-158.667 -22 -273.334 -33 -344.001 -33c-38 0 -73.333 8.33301 -106 25c-25.333 12.667 -42.5 26.167 -51.5 40.5s-16.5 41.833 -22.5 82.5l-196 1212l-58 274c-8 32.667 -12 68.334 -12 107c0 40.667 1.33301 64 4 70l16 36
c13.333 36 39.333 54 78 54c14 0 23.667 -1.33301 29 -4c8 -3.33301 17.667 -6.33301 29 -9c34 -13.333 98 -20 192 -20c2.66699 0 6.66699 0.666992 12 2s9.66602 2 12.999 2c80 0 147.333 -44.333 202 -133s91 -213.667 109 -375l53 -446
c24 -223.333 47.333 -357.333 70 -402c10.667 -20 26.334 -36.5 47.001 -49.5s40.334 -19.5 59.001 -19.5h111c44 0 71.333 2.66699 82 8c18 14 33 46.667 45 98l37 139c10 44.667 36 176 78 394l53 307c8 56.667 20.333 138.667 37 246c20.667 150 75.334 225 164.001 225
c26.667 0 51 -1.33301 73 -4l213 -25c54.667 -6 101.834 -29.167 141.501 -69.5s59.5 -85.5 59.5 -135.5c0 -32 -19 -92 -57 -180c-1.33301 -6 -5.66602 -17 -12.999 -33l-393 -1482c-31.333 -123.333 -54.666 -235.333 -69.999 -336
c-18 -140.667 -32.167 -231.834 -42.5 -273.501s-28.833 -85.834 -55.5 -132.501c-27.333 -51.333 -69.666 -95 -126.999 -131c-42 -26.667 -91.5 -44.334 -148.5 -53.001s-156.167 -14 -297.5 -16l-107 -5h-45c-138.667 0 -251.667 11.833 -339 35.5
s-138 57.167 -152 100.5l-33 114l-45 111c-5.33301 16 -8 27 -8 33c0 10 2.66699 29 8 57c17.333 45.333 40.333 72.666 69 81.999z" />
    <glyph glyph-name="c212" unicode="&#xd4;" horiz-adv-x="3338" 
d="M1376 2478c2.66699 30 4.00195 65.667 4.00195 107v24c0 47.333 -5.33301 145.666 -16 295v86c0 60.667 13.5 100.5 40.5 119.5s83.167 28.5 168.5 28.5c147.333 0 259.333 -24.667 336 -74c32.667 -24.667 49 -59 49 -103c0 -19.333 -2.66699 -45 -8 -77
c-7.33301 -51.333 -13 -133.333 -17 -246v-53l21 16l53 74c32.667 46 105 69 217 69c63.333 0 123.333 -10.667 180 -32l197 -86l115 -25c82.667 -22.667 170 -111.334 262 -266c98 -169.333 164.833 -310.5 200.5 -423.5s53.5 -242.167 53.5 -387.5
c0 -209.333 -31.667 -411.5 -95 -606.5s-154.666 -372.5 -274 -532.5c-119.333 -162 -230 -253.333 -332 -274c-14.667 -6 -39 -9 -73 -9c-88 -5.33301 -144 -8 -168 -8c-98.667 0 -171.834 14.833 -219.501 44.5s-89.167 85.834 -124.5 168.501l8 -229l20 -230v-49
c0 -54 -8 -92 -24 -114s-44.667 -33 -86 -33c-14 0 -25 1.33301 -33 4l-119 45l-225 37c-38.667 6 -71.5 23.333 -98.5 52s-40.5 60.334 -40.5 95.001v21l24 221l8 135c-52 -74 -95.667 -120.333 -131 -139c-44.667 -27.333 -108.667 -41 -192 -41
c-91.333 0 -178.5 20.333 -261.5 61s-173.5 107.667 -271.5 201c-148.667 145.333 -253.334 294.666 -314.001 447.999s-91 344 -91 572c0 243.333 31.667 471.666 95 684.999s148.5 383.166 255.5 509.5c107 126.333 222.167 189.5 345.5 189.5c8 0 15 -1.33301 21 -4
l122 -24l226 -37c24.667 -6 47.5 -20.333 68.5 -43s62.167 -76.667 123.5 -162zM1946 1192l-4 -377c0 -108 14 -193.667 42 -257s65.667 -95 113 -95c30 0 71 21.667 123 65c81.333 65.333 142.666 139.333 184 222c44.667 89.333 83.167 219.5 115.5 390.5
s48.5 331.5 48.5 481.5c0 127.333 -14.333 248.833 -43 364.5s-66.834 209.5 -114.5 281.5c-47.667 72 -97.5 108 -149.5 108c-30.667 0 -64.834 -10.833 -102.5 -32.5c-37.667 -21.667 -69.167 -49.167 -94.5 -82.5c-29.333 -37.333 -52.333 -79.666 -69 -127
c-28.667 -100 -45 -258.333 -49 -475v-467zM1376 1737l0.000976562 143c0 137.333 -5.5 230 -16.5 278s-38.167 94.667 -81.5 140c-34 38 -73.667 57 -119 57c-22.667 0 -49.334 -10.667 -80.001 -32s-58.667 -48.666 -84 -81.999
c-89.333 -118.667 -149.333 -270.334 -180 -455.001c-30 -169.333 -45 -357.666 -45 -564.999c0 -214.667 28.333 -395.334 85 -542.001s128 -220 214 -220c33.333 0 70.5 12.833 111.5 38.5s69.5 53.834 85.5 84.501c14.667 21.333 31 67.666 49 138.999
c14 62 23.333 127.667 28 197z" />
    <glyph glyph-name="c212" unicode="&#x424;" horiz-adv-x="3338" 
d="M1376 2478c2.66699 30 4.00195 65.667 4.00195 107v24c0 47.333 -5.33301 145.666 -16 295v86c0 60.667 13.5 100.5 40.5 119.5s83.167 28.5 168.5 28.5c147.333 0 259.333 -24.667 336 -74c32.667 -24.667 49 -59 49 -103c0 -19.333 -2.66699 -45 -8 -77
c-7.33301 -51.333 -13 -133.333 -17 -246v-53l21 16l53 74c32.667 46 105 69 217 69c63.333 0 123.333 -10.667 180 -32l197 -86l115 -25c82.667 -22.667 170 -111.334 262 -266c98 -169.333 164.833 -310.5 200.5 -423.5s53.5 -242.167 53.5 -387.5
c0 -209.333 -31.667 -411.5 -95 -606.5s-154.666 -372.5 -274 -532.5c-119.333 -162 -230 -253.333 -332 -274c-14.667 -6 -39 -9 -73 -9c-88 -5.33301 -144 -8 -168 -8c-98.667 0 -171.834 14.833 -219.501 44.5s-89.167 85.834 -124.5 168.501l8 -229l20 -230v-49
c0 -54 -8 -92 -24 -114s-44.667 -33 -86 -33c-14 0 -25 1.33301 -33 4l-119 45l-225 37c-38.667 6 -71.5 23.333 -98.5 52s-40.5 60.334 -40.5 95.001v21l24 221l8 135c-52 -74 -95.667 -120.333 -131 -139c-44.667 -27.333 -108.667 -41 -192 -41
c-91.333 0 -178.5 20.333 -261.5 61s-173.5 107.667 -271.5 201c-148.667 145.333 -253.334 294.666 -314.001 447.999s-91 344 -91 572c0 243.333 31.667 471.666 95 684.999s148.5 383.166 255.5 509.5c107 126.333 222.167 189.5 345.5 189.5c8 0 15 -1.33301 21 -4
l122 -24l226 -37c24.667 -6 47.5 -20.333 68.5 -43s62.167 -76.667 123.5 -162zM1946 1192l-4 -377c0 -108 14 -193.667 42 -257s65.667 -95 113 -95c30 0 71 21.667 123 65c81.333 65.333 142.666 139.333 184 222c44.667 89.333 83.167 219.5 115.5 390.5
s48.5 331.5 48.5 481.5c0 127.333 -14.333 248.833 -43 364.5s-66.834 209.5 -114.5 281.5c-47.667 72 -97.5 108 -149.5 108c-30.667 0 -64.834 -10.833 -102.5 -32.5c-37.667 -21.667 -69.167 -49.167 -94.5 -82.5c-29.333 -37.333 -52.333 -79.666 -69 -127
c-28.667 -100 -45 -258.333 -49 -475v-467zM1376 1737l0.000976562 143c0 137.333 -5.5 230 -16.5 278s-38.167 94.667 -81.5 140c-34 38 -73.667 57 -119 57c-22.667 0 -49.334 -10.667 -80.001 -32s-58.667 -48.666 -84 -81.999
c-89.333 -118.667 -149.333 -270.334 -180 -455.001c-30 -169.333 -45 -357.666 -45 -564.999c0 -214.667 28.333 -395.334 85 -542.001s128 -220 214 -220c33.333 0 70.5 12.833 111.5 38.5s69.5 53.834 85.5 84.501c14.667 21.333 31 67.666 49 138.999
c14 62 23.333 127.667 28 197z" />
    <glyph glyph-name="c213" unicode="&#xd5;" horiz-adv-x="2060" 
d="M950 1081l-20 -98.002l-119 -569c-6 -32 -34.667 -133 -86 -303c-19.333 -71.333 -41.333 -131.666 -66 -180.999c-16 -32.667 -46 -49 -90 -49c-18 0 -59 7 -123 21l-184 45c-36.667 7.33301 -70.667 25 -102 53c-24.667 27.333 -46.667 50.666 -66 69.999
c-22 7.33301 -33 19.333 -33 36c0 12 11 36.667 33 74c44.667 88.667 84.334 180.334 119.001 275.001l254 667c60 164 90 257 90 279c0 47.333 -45 170 -135 368c-27.333 55.333 -109.333 263 -246 623c-49.333 138 -74 232.333 -74 283c0 68 24.667 102 74 102
c2.66699 0 6 -0.666992 10 -2s7.66699 -2 11 -2l233 -66l221 -36c12 0 30 -16.667 54 -50c54.667 -87.333 88.667 -151.333 102 -192l164 -574l24 -65c8.66699 8 13 14.667 13 20l32 107l119 319l156 439c69.333 204.667 141.666 307 216.999 307
c27.333 0 46.333 -2.66699 57 -8l94 -49l250 -86c8.66699 -4.66699 23.667 -22.667 45 -54c19.333 -26 29 -50.333 29 -73v-25l-65 -111l-119 -229l-463 -860c-5.33301 -16 -8 -28.333 -8 -37c0 -10.667 5.33301 -32.667 16 -66l209 -499l209 -553
c40.667 -110.667 61 -183 61 -217c0 -84.667 -24.333 -127 -73 -127c-22 0 -38.667 1.33301 -50 4c21.333 0 -46.667 2.66699 -204 8c-72 0 -126.667 5.33301 -164 16c-14 4.66699 -26.333 10.334 -37 17.001c-9.33301 6.66699 -31.333 29.667 -66 69
c-11.333 16 -19.333 31 -24 45l-225 775l-25 77z" />
    <glyph glyph-name="c213" unicode="&#x425;" horiz-adv-x="2060" 
d="M950 1081l-20 -98.002l-119 -569c-6 -32 -34.667 -133 -86 -303c-19.333 -71.333 -41.333 -131.666 -66 -180.999c-16 -32.667 -46 -49 -90 -49c-18 0 -59 7 -123 21l-184 45c-36.667 7.33301 -70.667 25 -102 53c-24.667 27.333 -46.667 50.666 -66 69.999
c-22 7.33301 -33 19.333 -33 36c0 12 11 36.667 33 74c44.667 88.667 84.334 180.334 119.001 275.001l254 667c60 164 90 257 90 279c0 47.333 -45 170 -135 368c-27.333 55.333 -109.333 263 -246 623c-49.333 138 -74 232.333 -74 283c0 68 24.667 102 74 102
c2.66699 0 6 -0.666992 10 -2s7.66699 -2 11 -2l233 -66l221 -36c12 0 30 -16.667 54 -50c54.667 -87.333 88.667 -151.333 102 -192l164 -574l24 -65c8.66699 8 13 14.667 13 20l32 107l119 319l156 439c69.333 204.667 141.666 307 216.999 307
c27.333 0 46.333 -2.66699 57 -8l94 -49l250 -86c8.66699 -4.66699 23.667 -22.667 45 -54c19.333 -26 29 -50.333 29 -73v-25l-65 -111l-119 -229l-463 -860c-5.33301 -16 -8 -28.333 -8 -37c0 -10.667 5.33301 -32.667 16 -66l209 -499l209 -553
c40.667 -110.667 61 -183 61 -217c0 -84.667 -24.333 -127 -73 -127c-22 0 -38.667 1.33301 -50 4c21.333 0 -46.667 2.66699 -204 8c-72 0 -126.667 5.33301 -164 16c-14 4.66699 -26.333 10.334 -37 17.001c-9.33301 6.66699 -31.333 29.667 -66 69
c-11.333 16 -19.333 31 -24 45l-225 775l-25 77z" />
    <glyph glyph-name="c214" unicode="&#xd6;" horiz-adv-x="2363" 
d="M1413 283c-61.333 -76 -114.167 -131.499 -158.5 -166.499s-99.166 -64.167 -164.499 -87.5c-82.667 -30 -178.334 -45 -287.001 -45c-104.667 0 -191.334 13.333 -260.001 40s-125.5 71.167 -170.5 133.5s-83.167 147.833 -114.5 256.5c-43.333 155.333 -65 360 -65 614
c0 210 1.33301 383.333 4 520l12 504c0 89.333 4 193 12 311c7.33301 165.333 22.333 269.333 45 312c17.333 24.667 64 37 140 37c70.667 0 137.334 -12.333 200.001 -37l156 -62c44.667 -18 71.5 -32 80.5 -42s13.5 -31.333 13.5 -64v-291c0 -67.333 -4 -152 -12 -254
c-22 -364.667 -33 -655.334 -33 -872.001c0 -211.333 12.333 -372.666 37 -483.999c17.333 -66.667 43.666 -119.5 78.999 -158.5s74.333 -58.5 117 -58.5c73.333 0 135 34.333 185 103c35.333 52.667 57 110 65 172c12.667 59.333 21 135.666 25 228.999
c13.333 178 20 283 20 315l-8 992c0 13.333 -2.66699 107.333 -8 282c-2.66699 35.333 -4 86 -4 152c0 100.667 8 159.334 24 176c16.667 16 62 24 136 24c143.333 0 267.333 -16.333 372 -49c42.667 -11.333 71.334 -25 86.001 -41c19.333 -18.667 29 -78.667 29 -180v-90
l-16 -1470l-13 -402c-2.66699 -22 -4 -52 -4 -90c0 -147.333 45 -221 135 -221c38 0 77.667 6.66699 119 20c28.667 11.333 46.667 17 54 17c33.333 0 62 -15 86 -45s36 -65.667 36 -107c0 -16 -5.33301 -70.667 -16 -164l-16 -139c-6 -34 -10.167 -58.167 -12.5 -72.5
s-5.16602 -28.5 -8.5 -42.5c-2.66699 -14 -20.334 -76.667 -53 -188c-22 -80 -48 -156.333 -78 -229c-18.667 -38.667 -43.334 -58 -74 -58c-13.333 0 -22.666 1.33301 -27.999 4l-62 33l-327 12c-24.667 0 -37 20.667 -37 62c0 70 47.667 206.333 143 409
c19.333 44.667 29 79 29 103c0 35.333 -12.333 53 -37 53c-3.33301 0 -21 -2.66699 -53 -8c-24.667 -8 -68.334 -12 -131.001 -12c-54.667 0 -95 7.83301 -121 23.5s-43.833 45.167 -53.5 88.5s-14.5 108.333 -14.5 195v37z" />
    <glyph glyph-name="c214" unicode="&#x426;" horiz-adv-x="2363" 
d="M1413 283c-61.333 -76 -114.167 -131.499 -158.5 -166.499s-99.166 -64.167 -164.499 -87.5c-82.667 -30 -178.334 -45 -287.001 -45c-104.667 0 -191.334 13.333 -260.001 40s-125.5 71.167 -170.5 133.5s-83.167 147.833 -114.5 256.5c-43.333 155.333 -65 360 -65 614
c0 210 1.33301 383.333 4 520l12 504c0 89.333 4 193 12 311c7.33301 165.333 22.333 269.333 45 312c17.333 24.667 64 37 140 37c70.667 0 137.334 -12.333 200.001 -37l156 -62c44.667 -18 71.5 -32 80.5 -42s13.5 -31.333 13.5 -64v-291c0 -67.333 -4 -152 -12 -254
c-22 -364.667 -33 -655.334 -33 -872.001c0 -211.333 12.333 -372.666 37 -483.999c17.333 -66.667 43.666 -119.5 78.999 -158.5s74.333 -58.5 117 -58.5c73.333 0 135 34.333 185 103c35.333 52.667 57 110 65 172c12.667 59.333 21 135.666 25 228.999
c13.333 178 20 283 20 315l-8 992c0 13.333 -2.66699 107.333 -8 282c-2.66699 35.333 -4 86 -4 152c0 100.667 8 159.334 24 176c16.667 16 62 24 136 24c143.333 0 267.333 -16.333 372 -49c42.667 -11.333 71.334 -25 86.001 -41c19.333 -18.667 29 -78.667 29 -180v-90
l-16 -1470l-13 -402c-2.66699 -22 -4 -52 -4 -90c0 -147.333 45 -221 135 -221c38 0 77.667 6.66699 119 20c28.667 11.333 46.667 17 54 17c33.333 0 62 -15 86 -45s36 -65.667 36 -107c0 -16 -5.33301 -70.667 -16 -164l-16 -139c-6 -34 -10.167 -58.167 -12.5 -72.5
s-5.16602 -28.5 -8.5 -42.5c-2.66699 -14 -20.334 -76.667 -53 -188c-22 -80 -48 -156.333 -78 -229c-18.667 -38.667 -43.334 -58 -74 -58c-13.333 0 -22.666 1.33301 -27.999 4l-62 33l-327 12c-24.667 0 -37 20.667 -37 62c0 70 47.667 206.333 143 409
c19.333 44.667 29 79 29 103c0 35.333 -12.333 53 -37 53c-3.33301 0 -21 -2.66699 -53 -8c-24.667 -8 -68.334 -12 -131.001 -12c-54.667 0 -95 7.83301 -121 23.5s-43.833 45.167 -53.5 88.5s-14.5 108.333 -14.5 195v37z" />
    <glyph glyph-name="c215" unicode="&#xd7;" horiz-adv-x="2044" 
d="M737 2212l-12.001 -254.004v-127c0 -170.667 5.83301 -301.667 17.5 -393s32 -154.5 61 -189.5s71.167 -52.5 126.5 -52.5c68.667 0 120.334 28.667 155.001 86c21.333 34.667 36.333 81 45 139c22 159.333 33 348 33 566v213c0 8 -2.66699 102 -8 282
c-2.66699 32.667 -4 83.334 -4 152c0 88 5.5 143.333 16.5 166s36.833 34 77.5 34h12c152 -5.33301 294 -21.666 426 -48.999c37.333 -8 63.666 -18 78.999 -30s25.833 -32.167 31.5 -60.5s8.5 -71.833 8.5 -130.5c0 -38 -1.33301 -68 -4 -90
c-5.33301 -229.333 -8 -471 -8 -725c0 -643.333 5.33301 -1043.33 16 -1200l17 -328l4 -139v-8c0 -80.667 -16.333 -123 -49 -127l-58 -4l-245 -29c-49.333 -5.33301 -90.333 -8 -123 -8c-61.333 0 -102.666 9.33301 -123.999 28s-32 55.667 -32 111c0 62 4 193 12 393
c2 76 4 140 6 192s3 93.333 3 124l-5 176l5 192c-38 -82.667 -73.333 -144.167 -106 -184.5s-74 -74.166 -124 -101.499c-85.333 -46.667 -183.666 -70 -294.999 -70c-123.333 0 -228.833 26 -316.5 78s-147.167 124.333 -178.5 217
c-24.667 70.667 -40.834 135.334 -48.501 194.001s-13.5 167.334 -17.5 326.001c-13.333 348 -20 611.667 -20 791c0 125.333 6.66699 211.166 20 257.5c13.333 46.333 38 69.5 74 69.5c10.667 0 18.667 -1.33301 24 -4l119 -45l324 -41c43.333 -8.66699 65 -44 65 -106
v-291z" />
    </font>
</defs>
</svg>
